<?xml version="1.0" encoding="UTF-8" standalone="no"?><!DOCTYPE svg PUBLIC "-//W3C//DTD SVG 1.1//EN" "http://www.w3.org/Graphics/SVG/1.1/DTD/svg11.dtd"><svg width="100%" height="100%" viewBox="0 0 4945 3570" version="1.1" xmlns="http://www.w3.org/2000/svg" xmlns:xlink="http://www.w3.org/1999/xlink" xml:space="preserve" xmlns:serif="http://www.serif.com/" style="fill-rule:evenodd;clip-rule:evenodd;stroke-linejoin:round;stroke-miterlimit:1.41421;"><rect x="0" y="0" width="4980" height="3600" style="fill:#fff;"/><g><g><rect x="318.4" y="-363.631" width="4302.73" height="4302.73" style="fill:#fff;"/><rect x="568.968" y="1902.57" width="3801.55" height="1146.36" style="fill:#c51f3f;"/><path d="M568.968,3048.93l3801.55,0l0,-1146.36l-3801.55,0l0,1146.36Zm-60.761,-1201.21l3923.1,0l0,1256.05l-3923.1,0l0,-1256.05Z" style="fill:#fff;"/><path d="M2336.18,2751.35l1.719,-445.843l-177.44,0l45.805,-113.487l572.768,0l-45.806,113.487l-131.634,0l1.719,445.843l-267.131,0Z" style="fill:#fff;"/><path d="M3587.83,2574.07l169.738,0l-84.869,-226.816l-84.869,226.816Zm204.449,92.883l-239.205,0l-31.608,84.401l-153.042,0l225.767,-559.33l282.467,0l225.812,559.33l-278.605,0l-31.586,-84.401Z" style="fill:#fff;"/><path d="M3044.66,2305.51l0,445.843l-249.898,0l0,-559.33l438.097,0c129.938,0 173.623,83.374 173.623,149.292c0,84.467 -62.191,126.924 -97.504,148.689l120.272,261.349l-273.18,0l-89.914,-262.711c39.466,0 92.883,-22.456 92.883,-99.29c0,-51.921 -37.635,-83.842 -74.914,-83.842l-39.465,0Z" style="fill:#fff;"/><path d="M1530.68,2751.35c71.052,0 217.04,11.831 335.46,11.831c275.657,0 323.293,-138.89 323.293,-207.241c0,-54.756 -24.175,-117.035 -118.62,-162.55c-107.906,-51.9 -279.051,-14.465 -279.051,-69.824c0,-46.632 218.914,-31.386 319.655,-18.014l46.854,-113.487c0,0 -95.227,-13.237 -246.46,-13.237c-242.197,0 -364.233,54.957 -364.233,198.936c0,28.84 8.885,87.436 68.708,132.148c135.809,101.522 322.557,40.269 322.557,100.473c0,17.924 -9.844,35.046 -120.763,35.046c-52.368,0 -150.877,-6.117 -237.398,-17.122l-50.002,123.041Z" style="fill:#fff;"/><path d="M1056.4,2574.07l169.739,0l-84.87,-226.816l-84.869,226.816Zm204.494,92.883l-239.227,0l-31.564,84.401l-153.086,0l225.812,-559.33l282.466,0l225.767,559.33l-278.582,0l-31.586,-84.401Z" style="fill:#fff;"/><path d="M2469.8,2005.66c-312.847,-194.338 -598.059,-392.895 -598.059,-665.852c0,-186.234 151.011,-337.177 337.223,-337.177c66.945,0 128.71,19.532 180.275,53.216l0.178,-93.731l-217.262,0l0,-132.171c0,0 84.981,-22.277 174.18,-35.782c-36.898,-34.622 -60.069,-85.093 -60.069,-138.957c0,-101.343 82.168,-183.511 183.534,-183.511c101.343,0 183.489,82.168 183.489,183.511c0,53.864 -23.148,104.335 -60.047,138.957c89.2,13.505 174.181,35.782 174.181,35.782l0,132.171l-217.263,0l0.179,93.731c51.564,-33.684 113.263,-53.216 180.275,-53.216c186.257,0 337.222,150.943 337.222,337.177c0,272.957 -285.212,471.514 -598.036,665.852Z" style="fill:#fff;"/><path d="M2840.89,1349.09c-72.258,130.518 -211.37,218.892 -371.086,218.892c-159.738,0 -298.895,-88.374 -371.108,-218.892l110.272,0c54.757,73.953 125.965,125.228 218.647,137.125l0.268,-146.412c0,-120.897 -98.04,-218.869 -218.915,-218.869c-120.897,0 -216.593,97.972 -216.593,218.869c0,216.616 288.181,405.663 477.429,525.043c189.226,-119.38 477.362,-308.427 477.362,-525.043c0,-120.897 -95.673,-218.869 -216.548,-218.869c-120.943,0 -218.915,97.972 -218.915,218.869l0.268,146.412c92.682,-11.897 163.89,-63.172 218.647,-137.125l110.272,0Zm-436.312,-693.889c0,36.029 29.198,65.226 65.226,65.226c36.006,0 65.181,-29.197 65.181,-65.226c0,-36.005 -29.175,-65.203 -65.181,-65.203c-36.028,0 -65.226,29.198 -65.226,65.203Zm-79.177,0c0,-79.712 64.645,-144.38 144.403,-144.38c79.735,0 144.381,64.668 144.381,144.38c0,65.517 -43.663,120.853 -103.442,138.51l0.045,30.515c106.276,6.719 217.463,35.916 217.463,35.916l0,62.837l-217.285,0l0.38,218.313c53.105,-61.052 130.898,-99.513 219.272,-99.513c164.626,0 298.069,133.42 298.069,298.024c0,276.819 -346.62,483.613 -558.883,619.399c-212.33,-135.786 -558.905,-342.58 -558.905,-619.399c0,-164.604 133.442,-298.024 298.069,-298.024c88.374,0 166.167,38.461 219.272,99.513l0.379,-218.313l-217.329,0l0,-62.837c0,0 111.232,-29.197 217.508,-35.916l0.045,-30.515c-59.779,-17.657 -103.442,-72.993 -103.442,-138.51Z" style="fill:#231f20;"/><path d="M2840.89,1349.09c-72.258,130.518 -211.37,218.892 -371.086,218.892c-159.738,0 -298.895,-88.374 -371.108,-218.892l110.272,0c54.757,73.953 125.965,125.228 218.647,137.125l0.268,-146.412c0,-120.897 -98.04,-218.869 -218.915,-218.869c-120.897,0 -216.593,97.972 -216.593,218.869c0,216.616 288.181,405.663 477.429,525.043c189.226,-119.38 477.362,-308.427 477.362,-525.043c0,-120.897 -95.673,-218.869 -216.548,-218.869c-120.943,0 -218.915,97.972 -218.915,218.869l0.268,146.412c92.682,-11.897 163.89,-63.172 218.647,-137.125l110.272,0Z" style="fill:#c51f3f;"/></g></g></svg>