<?xml version="1.0" encoding="UTF-8" standalone="no"?><!DOCTYPE svg PUBLIC "-//W3C//DTD SVG 1.1//EN" "http://www.w3.org/Graphics/SVG/1.1/DTD/svg11.dtd"><svg width="100%" height="100%" viewBox="0 0 4945 3570" version="1.1" xmlns="http://www.w3.org/2000/svg" xmlns:xlink="http://www.w3.org/1999/xlink" xml:space="preserve" xmlns:serif="http://www.serif.com/" style="fill-rule:evenodd;clip-rule:evenodd;stroke-linejoin:round;stroke-miterlimit:1.41421;"><g><g><rect x="0" y="-750" width="4980" height="4980" style="fill:#177554;"/><path d="M3032.4,1198.51l0,106.03c0,15.683 -5.244,16.69 -15.657,16.69l-3.591,0l0,5.943c7.389,0 20.592,-0.776 31.934,-0.776c10.153,0 23.355,0.776 30.718,0.776l0,-5.943l-3.565,0c-9.094,0 -15.682,-1.808 -15.682,-17.077l0,-105.643l30.951,0c12.633,0 13.589,11.704 13.977,19.067l5.632,-2.196c0,-5.374 0,-10.722 0.387,-16.07c0.543,-5.373 1.318,-10.721 2.068,-16.095l-4.522,-0.775c-0.362,5.942 -5.089,6.149 -10.179,6.149l-97.349,0c-5.09,0 -9.792,0.18 -11.291,-5.762l-4.521,0c0,5.762 -0.388,11.316 -1.163,16.871c-0.542,5.761 -1.498,11.316 -2.247,16.87l5.658,0c2.842,-14.494 3.384,-18.059 17.542,-18.059l30.9,0Z" style="fill:#fff;"/><path d="M3184,1188.59c-5.684,0 -11.342,0.8 -16.974,0.8c-7.751,0 -15.295,-0.8 -23.02,-0.8l0,5.942l2.429,0c8.319,0 16.432,3.772 16.432,14.907c0,7.932 -0.775,20.849 -2.3,34.93l-5.606,55.211c-1.731,14.288 -2.274,21.03 -17.206,21.65l-2.636,0l0,5.943c7.389,-0.414 14.907,-0.776 22.27,-0.776c8.474,0 17.129,0.362 25.629,0.776l0,-5.943l-2.221,0c-5.271,-0.207 -9.276,-0.413 -12.117,-2.196c-2.429,-1.782 -3.927,-4.96 -3.927,-11.316l6.407,-87.169l0.361,0l45.627,109.594l4.573,0l48.08,-111.765l0.387,0l5.297,83.786c0.18,5.167 0.18,7.337 0.18,9.739c0,8.707 -6.432,8.707 -16.25,9.327l0,5.943c10.386,-0.414 20.746,-0.776 31.132,-0.776c9.068,0 18.292,0.362 27.179,0.776l0,-5.943c-11.316,-0.413 -16.069,-1.188 -16.793,-11.135l-7.182,-90.942c-0.388,-4.34 -1.111,-10.308 -0.957,-15.475c0.388,-8.732 11.911,-9.146 17.569,-9.146l1.679,0l0,-5.942c-6.562,0 -13.382,0.8 -19.971,0.8c-6.794,0 -13.589,-0.8 -19.273,-0.8l-44.722,103.859l-44.076,-103.859Z" style="fill:#fff;"/><path d="M3382.65,1314.46c0,-8.319 -7.182,-15.863 -15.114,-15.863c-7.931,0 -14.907,7.544 -14.907,15.863c0,8.552 6.976,15.682 14.907,15.682c8.087,0 15.114,-7.13 15.114,-15.682Z" style="fill:#fff;"/><path d="M1630.7,1196.47c2.635,-0.207 5.09,-0.801 10.748,-0.801c16.793,0 27.541,11.315 27.541,28.988c0,23.432 -10.18,30.977 -29.04,30.977l-9.249,0l0,-59.164Zm-24.157,113.961c0,7.363 -6.407,10.748 -13.408,10.748l-3.385,0l0,5.942c9.431,0 18.318,-0.801 27.361,-0.801c10.747,0 21.676,0.801 32.449,0.801l0,-5.942l-3.41,0c-8.681,0 -15.45,-0.62 -15.45,-15.889l0,-42.526l12.453,0c12.246,22.865 24.699,44.309 39.244,64.357c5.839,0 11.859,-0.801 17.724,-0.801c6.226,0 12.246,0.801 18.472,0.801l0,-5.942c-9.249,-1.214 -13.021,-3.592 -18.291,-11.937l-32.243,-50.819c14.881,-6.174 26.197,-17.077 26.197,-34.955c0,-28.187 -21.108,-34.956 -44.877,-34.956c-10.024,0 -19.066,0.801 -30.382,0.801c-11.497,0 -23.201,-0.801 -29.247,-0.801l0,5.968l3.385,0c5.864,0 13.408,0.594 13.408,15.088l0,100.863Z" style="fill:#fff;"/><path d="M1737.66,1327.12c10.773,0 33.199,-0.801 50.174,-0.801c16.973,0 38.675,0.801 50.741,0.801c1.705,-10.515 3.952,-21.056 6.433,-31.571l-5.296,-1.395c-5.659,22.631 -15.631,24.233 -38.29,24.233c-12.064,0 -23.019,0 -23.019,-12.917l0,-46.272l22.632,0c13.021,0 13.59,7.751 14.727,19.661l5.658,-1.188c-0.362,-7.545 -0.569,-15.089 -0.569,-22.633c0,-7.751 0.207,-15.475 0.569,-23.227l-5.658,0c-1.137,10.696 -3.591,17.466 -14.907,17.466l-22.452,0l0,-52.033l26.224,0c19.816,0 22.064,10.334 23.019,23.226l5.658,-1.576c-0.568,-8.732 -0.749,-21.832 -0.362,-30.383c-12.84,0 -32.449,0.801 -48.313,0.801c-15.837,0 -35.446,-0.801 -46.969,-0.801l0,5.968l2.661,0c6.769,0 13.952,0.982 13.952,11.316l0,104.041c0,10.334 -7.183,11.342 -13.952,11.342l-2.661,0l0,5.942Z" style="fill:#fff;"/><path d="M1995.56,1226.85c-2.273,-11.548 -2.273,-26.61 -2.273,-33.974c-7.545,-0.206 -13.952,-1.963 -21.315,-3.772c-7.364,-1.782 -15.45,-3.565 -27.154,-3.565c-38.107,0 -75.466,24.027 -75.466,70.093c0,47.873 31.881,74.458 74.149,74.458c19.428,0 35.834,-3.565 52.627,-8.526l0,-3.591l-4.34,-2.583l0,-30.151c0,-6.976 3.591,-10.153 10.205,-10.153l2.429,0l0,-5.943c-8.474,0.388 -16.768,0.775 -25.268,0.775c-9.43,0 -18.886,-0.387 -28.316,-0.775l0,5.943l2.481,0c6.949,0 14.312,1.989 14.312,10.153l0,32.346c-2.428,2.378 -11.884,3.979 -20.927,3.772c-36.015,0 -50.922,-34.955 -50.922,-67.715c0,-33.173 16.586,-59.37 50.354,-59.37c22.064,0 38.108,8.525 43.766,32.966l5.658,-0.388Z" style="fill:#fff;"/><path d="M2062.24,1314.41c0,-8.345 -7.156,-15.89 -15.088,-15.89c-7.932,0 -14.907,7.545 -14.907,15.89c0,8.525 6.975,15.682 14.907,15.682c8.112,0 15.088,-7.157 15.088,-15.682Z" style="fill:#fff;"/><path d="M2839.38,758.318l89.934,169.922c-46.478,79.058 -84.612,159.123 -85.128,269.313c-0.672,123.727 32.01,190.254 103.885,299.746c-130.6,257.014 -270.32,215.393 -441.197,326.823c-170.904,-111.43 -310.65,-69.809 -441.276,-326.823c71.902,-109.492 104.61,-176.019 103.989,-299.746c-0.568,-110.19 -38.727,-190.255 -85.18,-269.313l89.935,-169.922l220.611,0c0,0 65.416,57.382 115.357,55.806c46.866,-1.473 106.65,-55.806 106.65,-55.806l222.42,0Z" style="fill:#fff;"/><path d="M2858.13,927.104l-56.321,-106.418l-184.881,0c0,0 -63.22,41.26 -108.407,41.441c-45.755,0.181 -109.751,-41.441 -109.751,-41.441l-186.87,0l-56.322,106.418c108.847,197.282 102.801,382.059 -17.62,573.063c104.713,183.434 213.611,163.178 368.91,251.021c155.272,-87.843 264.196,-67.561 368.856,-251.021c-120.368,-191.03 -126.439,-375.781 -17.594,-573.063Z" style="fill:#ee2b34;"/><path d="M2546.61,1375.87c10.747,7.854 11.368,20.539 7.053,28.161c-6.666,11.807 -16.018,10.747 -20.565,11.032c10.257,8.474 13.874,20.978 5.193,33.302c43.301,37.178 74.872,94.43 33.612,167.338c-32.63,57.614 -126.311,80.505 -215.186,30.28c-88.849,-50.276 -117.527,-142.484 -84.922,-200.124c41.233,-72.908 106.573,-75.337 160.75,-57.381c6.097,-13.797 18.654,-17.13 31.184,-12.685c-2.093,-4.031 -7.803,-11.497 -1.111,-23.304c4.314,-7.648 15.527,-13.642 27.774,-8.5l63.994,-113.238l-29.504,-16.742l30.641,-54.256l-22.219,-12.582l-15.708,27.851l-66.579,-37.667l15.761,-27.852l-21.057,-11.91l-30.693,54.281l-45.47,-25.733l132.77,-234.718l45.393,25.733l-30.615,54.307l20.978,11.885l15.76,-27.852l66.631,37.643l-15.787,27.876l22.323,12.661l30.719,-54.282l29.478,16.664l17.181,-30.46l56.348,31.856l-214.127,378.416Z" style="fill:#fff;"/><path d="M2562.37,997.222l17.905,10.128l-23.356,41.208l11.601,6.588l-24.596,43.481l-11.6,-6.562l-23.252,41.234l-17.878,-10.102l23.329,-41.234l-11.627,-6.588l24.597,-43.481l11.548,6.562l23.329,-41.234Z" style="fill:#ee2b34;"/><path d="M2423.34,1528.17c-5.633,0.853 -13.926,3.436 -30.099,-5.735c-20.049,-11.342 -21.004,-31.495 -19.118,-38.186c11.161,5.839 24.75,3.927 32.32,-9.481c6.588,-11.653 2.093,-23.098 -9.224,-29.505c-13.15,-7.441 -39.683,-8.371 -57.794,23.691c-18.705,33.044 -20.1,88.23 46.272,125.769c66.346,37.565 112.953,7.931 131.659,-25.113c18.059,-32.036 3.643,-54.306 -9.482,-61.721c-11.316,-6.407 -23.459,-4.366 -30.047,7.26c-7.57,13.409 -2.247,26.016 8.5,32.579c-4.728,5.063 -22.529,14.648 -42.578,3.307c-16.172,-9.146 -18.24,-17.568 -20.409,-22.865Z" style="fill:#ee2b34;"/><path d="M2671.55,1006.58l7.337,4.133l-116.209,205.369l-7.363,-4.134l116.235,-205.368Z" style="fill:#3c4041;"/><path d="M2519.74,920.645l7.286,4.134l-116.158,205.394l-7.337,-4.185l116.209,-205.343Z" style="fill:#3c4041;"/><path d="M2454.09,1525.72c-6.019,-9.791 -6.201,-20.435 -0.904,-29.84c9.946,-17.568 30.331,-12.995 42.861,-5.296c-20.539,-6.976 -32.656,5.839 -36.738,13.021c-4.057,7.208 -5.348,13.9 -5.219,22.115Z" style="fill:#3c4041;"/><path d="M2732.18,995.62l10.567,5.968l-207.745,367.153l-27.67,-15.709c5.012,0.336 19.944,4.806 37.435,-26.197l187.413,-331.215Z" style="fill:#3c4041;"/><path d="M2311.16,1508.62c-10.618,-24.776 -0.49,-50.224 3.979,-58.104c18.447,-32.631 50.096,-34.465 77.533,-22.245c-33.638,-11.083 -57.898,10.619 -69.317,30.796c-7.828,13.823 -12.66,25.319 -12.195,49.553Z" style="fill:#3c4041;"/><path d="M2415.7,1650.94c55.547,17.594 116.804,-4.547 143.647,-52.034c16.587,-29.22 19.196,-67.199 3.669,-89.417c7.156,24.079 1.033,58.104 -10.386,78.308c-34.62,61.308 -106.495,67.251 -136.93,63.143Z" style="fill:#3c4041;"/><path d="M2500.85,1391.24l-17.517,-9.921c-11.238,-6.356 -8.81,-16.768 -7.957,-20.462c4.444,5.502 19.919,14.855 30.77,21.004c10.825,6.123 26.792,14.571 33.767,15.553c-2.764,2.61 -10.386,10.05 -21.572,3.694l-17.491,-9.868Z" style="fill:#3c4041;"/><path d="M2491.78,1407.26l-23.381,-13.254c-11.239,-6.33 -18.912,1.111 -21.625,3.72c6.976,0.982 28.885,12.763 39.71,18.886c10.8,6.123 32.166,18.834 36.609,24.312c0.827,-3.695 3.256,-14.107 -7.957,-20.463l-23.356,-13.201Z" style="fill:#3c4041;"/><path d="M2903.3,927.698l-77.637,-146.644l-208.727,0c0,0 -63.168,40.769 -108.381,41.441c-47.15,0.723 -113.574,-41.441 -113.574,-41.441l-206.945,0l-77.61,146.644c44.411,77.094 81.33,158.916 81.899,269.725c0.62,125.743 -32.346,196.275 -100.424,301.194c122.178,231.1 236.268,188.342 414.975,298.584c178.706,-110.242 292.796,-67.484 414.922,-298.584c-68.077,-104.919 -101.018,-175.451 -100.398,-301.194c0.542,-110.809 37.488,-192.631 81.9,-269.725Zm-63.918,-169.38l89.934,169.922c-46.478,79.058 -84.612,159.123 -85.128,269.313c-0.672,123.727 32.01,190.254 103.885,299.746c-130.6,257.014 -270.32,215.393 -441.197,326.823c-170.904,-111.43 -310.65,-69.809 -441.276,-326.823c71.902,-109.492 104.61,-176.019 103.989,-299.746c-0.568,-110.19 -38.727,-190.255 -85.18,-269.313l89.935,-169.922l220.611,0c0,0 66.45,42.165 113.6,41.441c45.187,-0.672 108.407,-41.441 108.407,-41.441l222.42,0Z" style="fill:#3c4041;"/><path d="M854.208,2244.08c53.583,0 55.314,-82.029 0,-82.029l-136.645,0l0,82.029l136.645,0Zm2.119,271.405c62.832,0 64.77,-96.393 0,-96.393l-138.764,0l0,96.393l138.764,0Zm-472.95,-427.401c0,-55.547 -70.687,-111.533 -90.425,-124.736l723.841,0c151.423,0 225.081,101.406 225.081,204.284c0,67.044 -31.442,119.232 -64.977,151.63c42.293,32.683 86.911,91.717 86.911,181.342c0,122.099 -102.206,221.05 -247.015,221.05l-723.815,0c10.98,-6.329 90.399,-69.085 90.399,-125.303l0,-508.267Z" style="fill:#3c4041;"/><path d="M856.327,2551.27l-174.521,0l0,-167.932l174.521,0c111.894,0 109.931,167.932 0,167.932Zm-2.119,-271.43l-172.402,0l0,-153.516l172.402,0c102.439,0 100.682,153.516 0,153.516Zm-435.075,-198.445l0,521.65c0,32.967 -17.413,63.918 -37.099,82.856l634.759,0c127.938,0 211.259,-85.697 211.259,-185.294c0,-82.158 -45.549,-150.003 -119.594,-178.087c59.138,-27.333 97.659,-88.254 97.659,-154.885c0,-83.863 -58.363,-168.527 -189.324,-168.527l-634.734,0c19.636,18.887 37.074,49.812 37.074,82.287Z" style="fill:#fff;"/><path d="M1298.12,2088.09c0,-55.315 -57.252,-100.347 -90.038,-124.736l852.917,0l0,314.112c-23.821,-37.203 -62.497,-95.54 -132.641,-95.54l-282.23,0l0,59.835l281.92,0l0,183.976l-281.92,0l0,68.362l281.946,0c66.863,0 107.761,-52.731 133.751,-95.308l0,322.869l-853.096,0c33.354,-25.034 89.391,-69.757 89.391,-125.303l0,-508.267Z" style="fill:#3c4041;"/><path d="M1333.88,2081.39l0,521.65c0,33.019 -17.543,63.892 -37.152,82.856l729.318,0l0,-195.603c-18.886,22.271 -50.561,39.606 -86.808,39.606l-328.864,0l0,-139.927l281.921,0l0,-112.463l-281.921,0l0,-131.348l329.174,0c35.473,0 67.173,16.328 85.723,38.934l0,-185.992l-728.491,0c19.609,18.887 37.1,49.786 37.1,82.287Z" style="fill:#fff;"/><path d="M2830.05,1963.35l0,314.345c-25.319,-39.452 -64.125,-95.773 -132.692,-95.773l-175.839,0c-52.679,0 -79.108,24.362 -79.108,83.707l0,144.835c0,59.629 25.577,83.631 78.307,83.631l176.64,0c65.855,0 107.838,-54.901 132.692,-95.748l0,323.309l-442.05,0c-193.587,0 -298.352,-99.183 -298.352,-278.122l0,-222.265c0,-184.622 129.025,-257.919 298.352,-257.919l442.05,0Z" style="fill:#3c4041;"/><path d="M2794.27,1999.11l-406.268,0c-158.295,0 -262.621,65.003 -262.621,222.162l0,222.265c0,157.082 86.602,242.366 262.621,242.366l406.268,0l0,-195.525c-18.886,22.373 -50.406,39.528 -85.723,39.528l-187.827,0c-73.89,0 -114.064,-41.492 -114.064,-119.439l0,-144.835c0,-78.127 41.492,-119.464 114.865,-119.464l187.026,0c35.498,0 66.992,16.483 85.723,39.141l0,-186.199Z" style="fill:#fff;"/><path d="M2898.02,2088.65c0,-56.735 -56.787,-100.114 -91.148,-125.304l519.299,0c-8.268,6.95 -87.351,64.693 -87.351,125.304l0,152.638l149.357,-165.297c48.545,-53.739 -53.403,-112.645 -53.403,-112.645l543.326,0l-317.341,348.37l353.537,409.936l-598.201,0c25.138,-18.472 98.382,-71.772 60.946,-115.253l-138.221,-160.698l0,150.648c0,53.713 52.576,97.685 89.391,125.303l-520.59,0c33.974,-25.216 90.399,-69.007 90.399,-125.303l0,-507.699Z" style="fill:#3c4041;"/><path d="M2933.99,2081.94l0,521.108c0,33.07 -17.309,63.867 -37.1,82.856l343.513,0c-19.636,-18.964 -37.152,-49.837 -37.152,-82.856l0,-256.136l204.516,245.57c27.024,32.45 14.597,72.96 -9.688,93.422l438.355,0l-323.257,-374.826l284.142,-311.967l-376.428,0c21.315,22.064 27.309,63.815 -0.801,94.921l-216.839,240.221l0,-252.313c0,-32.94 17.465,-63.942 37.126,-82.829l-343.409,0c19.764,18.887 37.022,49.864 37.022,82.829Z" style="fill:#fff;"/><path d="M3865.21,1934.31c55.935,-55.96 -24.26,-118.974 -32.114,-126.466l381.233,0l-223.686,282.126l-267.271,0l141.838,-155.66Z" style="fill:#3c4041;"/><path d="M3891.67,1958.39l-87.325,95.825l169.018,0l166.95,-210.588l-234.356,0c26.585,35.111 18.834,78.335 -14.287,114.763Z" style="fill:#fff;"/><path d="M4649.61,1963.35l0,314.06c-19.532,-32.217 -61.644,-95.876 -132.667,-95.876l-186.896,0c-27.412,0 -31.442,12.866 -31.442,20.333c0,7.647 3.565,20.332 31.442,20.332l93.035,0c175.347,0 263.99,114.737 263.99,249.728c0,135.664 -109.596,249.729 -289.258,249.729l-442.695,0l0,-341.652c9.533,16.587 56.218,96.342 132.744,96.342l175.011,0c34.594,0 53.636,-13.719 53.636,-32.218c0,-18.911 -14.624,-30.874 -53.687,-30.874l-95.799,0c-150.675,0 -231.437,-119.723 -231.437,-224.952c0,-105.203 80.762,-224.952 231.437,-224.952l482.586,0Z" style="fill:#3c4041;"/><path d="M4613.83,1999.11l-446.804,0c-127.785,0 -195.681,100.45 -195.681,189.195c0,88.798 67.896,189.196 195.681,189.196l95.799,0c38.469,0 89.391,12.478 89.391,66.63c0,53.455 -54.797,68 -89.34,68l-186.276,0c-37.72,0 -62.419,-14.442 -85.749,-41.027l0,214.799l406.965,0c162.92,0 253.475,-100.966 253.475,-213.973c0,-116.338 -73.657,-213.997 -228.207,-213.997l-93.035,0c-44.205,0 -67.173,-25.371 -67.173,-56.063c0,-30.72 23.691,-56.09 67.173,-56.09l198.032,0c35.575,0 67.017,16.638 85.749,39.193l0,-185.863Z" style="fill:#fff;"/><path d="M494.781,2591.24l0,-517.361c0,-5.89 -1.344,-16.896 -2.816,-22.658l530.951,0c71.151,0 107.941,23.175 127.086,38.779c-11.652,-19.945 -43.715,-59.267 -127.086,-59.267l-560.508,0c5.995,10.257 8.526,28.652 8.526,45.368l0,515.139c0,16.639 -2.635,32.166 -5.942,41.26c8.862,-4.444 29.789,-21.495 29.789,-41.26Z" style="fill:#3c4041;"/><path d="M981.759,2192.36c0,62.651 -39.528,119.232 -121.505,119.232l-213.766,0l20.488,20.488l193.278,0c96.393,0 137.834,-61.826 137.834,-123.417c0,-36.661 -23.33,-62.265 -30.926,-69.059c8.345,14.312 14.597,33.638 14.597,52.756Z" style="fill:#3c4041;"/><path d="M990.957,2460.9c0,63.659 -43.869,122.203 -128.585,122.203l-215.884,0l20.488,20.462l195.396,0c98.615,0 146.076,-67.974 146.076,-127.913c0,-37.203 -20.333,-65.7 -31.029,-75.259c7.673,14.571 13.538,34.723 13.538,60.507Z" style="fill:#3c4041;"/><path d="M1852.84,2329.73l0,-20.513l-277.76,0l20.229,20.513l257.531,0Z" style="fill:#3c4041;"/><path d="M1985.84,2030.73l-608.329,0c5.297,9.043 8.501,26.094 8.501,43.146l0,517.361c0,18.499 -2.662,31.985 -6.072,41.518c8.707,-4.547 29.918,-21.702 29.918,-41.518l0,-517.361c0,-5.658 -1.369,-16.974 -2.868,-22.606l578.85,0l0,-20.54Z" style="fill:#3c4041;"/><path d="M1934.82,2582.25c23.743,0 40.381,-18.112 44.722,-25.242c-6.925,2.558 -18.912,4.728 -33.845,4.728l-370.614,0l20.539,20.514l339.198,0Z" style="fill:#3c4041;"/><path d="M2201.65,2436.14l0,-222.368c0,-107.761 59.991,-162.559 192.993,-162.481l360.486,0l0,-20.566l-360.486,0c-143.931,0 -216.814,61.153 -216.814,183.047l0,222.368c0,79.936 24.751,132.46 65.959,162.895c-29.531,-39.762 -42.138,-89.521 -42.138,-162.895Z" style="fill:#3c4041;"/><path d="M2527.39,2582.25l176.716,0c20.798,0 39.503,-15.321 44.127,-24.958c-8.603,2.635 -17.516,4.444 -32.94,4.444l-187.903,0c-49.993,0 -94.586,-14.209 -123.703,-47.487c10.567,28.859 45.394,68.001 123.703,68.001Z" style="fill:#3c4041;"/><path d="M3010.57,2591.24l0,-516.818c0,-6.382 -1.24,-16.923 -2.636,-23.201l157.056,0c1.008,-8.448 2.119,-12.479 4.108,-20.488l-190.978,0c5.761,10.076 8.603,26.327 8.603,43.689l0,516.818c0,18.809 -2.971,32.708 -6.097,41.674c12.014,-7.312 29.944,-23.305 29.944,-41.674Z" style="fill:#3c4041;"/><path d="M3999.69,1895.69l41.879,0l16.38,-20.462l-84.457,0c8.035,23.046 -4.134,66.449 -40.718,106.521l-25.525,27.954l32.501,0c52.034,-60.223 55.108,-87.144 59.94,-114.013Z" style="fill:#3c4041;"/><path d="M4048.05,2189.75c0,-66.94 44.075,-138.531 127.06,-138.531l401.1,0l0,-20.488l-401.1,0c-98.408,0 -149.796,82.39 -149.796,150.081c0,45.186 22.322,92.543 55.03,118.818c-18.705,-24.725 -32.294,-66.475 -32.294,-109.88Z" style="fill:#3c4041;"/><path d="M4406.32,2436.79c0,98.383 -100.992,107.192 -135.25,107.192l-186.353,0c-13.952,0 -31.83,-2.918 -39.865,-5.967l0,103.627l24.88,0l0,-78.747c4.495,0.594 12.711,1.55 17.207,1.55l184.131,0c36.3,0 152.431,-9.224 152.431,-115.383c0,-30.744 -17.413,-51.026 -29.272,-62.6c7.57,12.737 12.091,28.885 12.091,50.328Z" style="fill:#3c4041;"/><path d="M3468.61,2541.24l-171.989,-206.531l182.53,-202.217c20.565,-22.761 33.819,-50.121 35.654,-81.279l173.254,0l18.731,-20.488l-215.755,0c2.997,25.293 -4.779,58.777 -29.84,86.55l-195.757,216.84l184.596,221.67c20.617,24.751 29.504,55.057 25.113,85.853l23.82,0c5.735,-38.702 -8.138,-74.2 -30.357,-100.398Z" style="fill:#3c4041;"/></g></g></svg>