<?xml version="1.0" encoding="UTF-8" standalone="no"?><!DOCTYPE svg PUBLIC "-//W3C//DTD SVG 1.1//EN" "http://www.w3.org/Graphics/SVG/1.1/DTD/svg11.dtd"><svg width="100%" height="100%" viewBox="0 0 4945 3570" version="1.1" xmlns="http://www.w3.org/2000/svg" xmlns:xlink="http://www.w3.org/1999/xlink" xml:space="preserve" xmlns:serif="http://www.serif.com/" style="fill-rule:evenodd;clip-rule:evenodd;stroke-linejoin:round;stroke-miterlimit:1.41421;"><rect x="0" y="0" width="5040" height="3660" style="fill:#ebebeb;"/><g><g><path d="M-0.271,-1052.4l0,3227.8c229.914,106.417 467.634,195.995 711.163,267.428c243.556,71.407 492.946,124.669 718.198,158.267c225.25,33.599 426.334,47.561 601.761,49.585c175.425,1.999 325.193,-7.913 468.646,-26.377c143.48,-18.492 280.671,-45.509 427.215,-88.965c146.543,-43.458 302.412,-103.354 519.43,-214.753c216.991,-111.374 495.051,-274.277 698.534,-370.703c203.429,-96.425 332.254,-126.373 458.868,-148.462c126.587,-22.114 250.989,-36.396 375.765,-41.379l0,-2812.44l-4979.58,0Z" style="fill:#eb302e;"/><path d="M4083.1,854.078c61.335,0.613 122.83,-6.287 176.678,-19.263c53.821,-12.976 99.943,-32.027 150.887,-61.549c50.917,-29.495 106.657,-69.462 157.894,-114.357c-11.91,31.973 -28.27,62.215 -50.944,93.121c-22.727,30.908 -51.796,62.481 -86.567,91.657c-69.435,58.778 -161.464,104.819 -245.714,125.175c-42.018,10.445 -82.118,15.374 -122.244,15.32c-21.662,0.107 -38.448,-0.453 -53.874,-2.078c-7.861,-0.772 -17.026,-1.759 -26.219,-2.904l100.103,-125.122Z" style="fill:#fff;"/><path d="M2406.24,965.052l130.131,0l-60.056,110.094l-125.122,0l55.047,-110.094Z" style="fill:#fff;"/><path d="M1886.57,1662.44c-60.27,-11.696 -130.824,-18.118 -201.138,-17.398c-63.067,-3.251 -126.24,1.199 -238.653,25.259c-112.412,24.059 -274.063,67.756 -381.76,92.669c-107.669,24.912 -161.384,31.093 -215.365,32.212c-26.645,0 -53.316,-2.158 -76.923,-6.075c-23.606,-3.916 -44.176,-9.591 -62.267,-16.332c-18.092,-6.742 -33.705,-14.575 -47.454,-23.234c-13.748,-8.66 -25.605,-18.145 -36.023,-28.376c-10.391,-10.232 -19.317,-21.236 -26.991,-33.066c-7.699,-11.803 -14.121,-24.459 -19.37,-38.155c-5.249,-13.668 -9.325,-28.376 -12.07,-44.389c-2.771,-16.013 -4.21,-33.332 -4.156,-50.598c0.186,-26.137 3.464,-52.195 12.043,-87.286c8.579,-35.091 22.408,-79.24 44.949,-132.902c22.515,-53.688 53.715,-116.915 90.271,-179.449c36.556,-62.535 78.441,-124.376 118.407,-176.546c39.967,-52.142 78.015,-94.613 111.906,-128.105c33.892,-33.492 63.627,-58.031 89.498,-76.602c25.845,-18.572 47.827,-31.174 67.384,-40.42c19.583,-9.246 36.795,-15.134 52.409,-18.944c15.614,-3.784 29.655,-5.489 43.697,-5.489c9.192,0.24 16.279,0.559 24.166,6.235c7.647,6.847 8.606,12.363 10.098,22.488c0.48,4.396 0.8,10.364 0.773,16.333c-20.25,8.979 -42.284,23.553 -58.911,37.994c-7.673,6.635 -13.268,12.417 -17.611,17.506c-11.511,13.508 -18.252,25.978 -18.545,39.301c-1.545,9.751 11.804,27.337 20.596,32.026c27.337,18.224 58.058,5.941 86.701,-26.991c5.595,-6.741 11.004,-14.548 15.8,-23.074c4.796,-8.499 8.979,-17.718 12.31,-27.044c12.016,-37.089 17.345,-75.457 -9.033,-108.256c-6.102,-7.434 -13.615,-13.935 -22.514,-19.37c-8.9,-5.409 -19.184,-9.752 -30.908,-12.763c-11.697,-3.01 -24.806,-4.689 -44.123,-4.289c-19.343,0.399 -44.895,2.877 -73.538,9.032c-28.616,6.155 -60.349,15.986 -95.547,30.987c-35.197,15.028 -73.831,35.25 -116.328,62.801c-42.471,27.576 -88.726,62.534 -135.78,104.712c-47.027,42.204 -94.854,91.657 -138.443,144.172c-88.619,106.418 -155.043,220.535 -190.907,309.927c-18.464,45.321 -30.374,85.475 -37.995,121.098c-7.62,35.65 -10.977,66.744 -11.004,97.891c-0.106,41.006 5.089,82.091 15.827,116.409c5.036,16.36 11.137,31.254 18.278,45.029c7.141,13.802 15.321,26.511 24.673,38.368c9.325,11.83 19.823,22.808 31.893,33.065c12.07,10.312 25.738,19.904 41.538,28.723c15.774,8.846 33.705,16.892 55.047,24.033c21.316,7.141 46.015,13.349 76.283,17.719c30.241,4.395 66.024,6.927 101.781,6.927c56.193,1.732 112.386,-2.478 205.774,-21.582c93.415,-19.078 224.025,-53.076 317.707,-72.152c93.681,-19.078 150.46,-23.234 207.186,-21.343c35.65,-0.266 71.327,2.238 100.263,6.635c28.935,4.423 51.103,10.71 71.832,18.784c20.73,8.073 40.02,17.905 61.496,32.825c21.475,14.921 45.108,34.904 66.69,56.833c58.857,-38.634 120.752,-61.522 168.232,-69.009c23.9,-4.236 45.455,-6.154 67.011,-6.048c9.138,0.08 18.304,0.746 29.095,2.105c10.791,1.386 23.234,3.463 58.778,13.882c35.516,10.391 94.161,29.122 152.325,49.078c-59.71,-47.959 -124.349,-90.057 -181.688,-119.579c-57.339,-29.522 -107.376,-46.495 -167.672,-58.192Z" style="fill:#fff;"/><path d="M3040.03,1423.44c4.663,-25.046 6.874,-49.052 6.821,-73.085c0.027,-17.958 -3.011,-35.97 -9.326,-49.185c-2.824,-6.102 -6.154,-11.298 -9.965,-15.933c-9.351,-11.112 -18.784,-16.813 -29.921,-21.45c-6.448,-2.611 -13.775,-4.769 -22.408,-6.261c-8.633,-1.465 -18.545,-2.318 -29.735,-2.238c-11.191,0.08 -23.687,1.066 -36.13,3.171c-50.144,8.819 -101.302,34.078 -151.579,90.884c-12.789,14.574 -25.445,31.359 -37.569,50.57c-12.123,19.211 -23.713,40.82 -34.211,64.613c-10.444,23.793 -19.77,49.744 -27.337,76.922c-7.567,27.15 -13.375,55.526 -17.185,84.142c26.644,-22.141 54.061,-43.403 73.858,-57.631c19.796,-14.255 31.972,-21.475 48.359,-30.002c16.413,-8.526 37.009,-18.384 57.951,-27.47c4.77,-31.787 13.562,-64.213 24.913,-90.857c5.302,-12.603 10.951,-23.634 16.599,-33.145c5.675,-9.485 11.378,-17.505 16.973,-24.3c15.986,-19.344 31.546,-30.214 47.347,-36.37c23.473,-7.38 42.284,-10.578 63.892,6.901c9.593,9.806 12.017,17.986 14.202,28.243c3.623,38.102 -2.318,72.313 -13.962,111.506c-5.435,17.452 -12.523,35.651 -21.715,54.622c-9.218,18.971 -20.543,38.714 -34.478,59.044c-27.683,40.738 -68.129,84.968 -113.051,120.218c-43.004,34.051 -88.912,58.191 -121.018,67.597c-15.375,4.69 -27.604,6.581 -39.008,6.741c-11.43,0.186 -22.035,-1.332 -32.826,-4.396c-21.235,-5.969 -43.776,-18.785 -62.055,-37.702c-8.978,-9.245 -16.785,-19.69 -22.967,-30.614c-12.629,-22.541 -18.171,-45.562 -18.118,-67.357c0.906,-25.632 5.302,-51.024 19.078,-94.641c13.748,-43.643 36.875,-105.564 69.248,-174.946c32.346,-69.382 73.991,-146.224 114.943,-213.022c40.953,-66.77 81.239,-123.495 117.875,-170.016c36.636,-46.548 69.648,-82.891 99.597,-112.493c29.948,-29.628 56.859,-52.489 81.158,-70.767c24.273,-18.278 45.961,-31.973 65.838,-42.818c19.877,-10.843 37.941,-18.81 54.94,-24.912c44.443,-16.786 86.275,-17.958 133.035,-17.185c-34.53,19.236 -67.623,41.032 -96.879,63.733c-58.804,45.615 -100.661,93.122 -127.119,133.701c-13.375,20.409 -23.287,39.46 -30.775,57.285c-7.46,17.852 -12.469,34.478 -15.666,50.198c-3.197,15.747 -4.583,30.561 -4.77,42.178c-0.186,11.617 0.826,20.009 2.612,27.444c1.785,7.406 4.369,13.828 7.593,19.53c3.198,5.702 7.061,10.631 11.59,14.974c4.53,4.343 9.726,8.1 15.774,11.217c6.075,3.144 13.002,5.702 21.049,7.434c8.047,1.759 17.212,2.717 26.351,2.691c19.104,-0.107 38.102,-4.45 60.642,-14.654c11.777,-5.409 24.54,-12.63 38.288,-22.382c13.749,-9.751 28.537,-22.034 43.51,-36.928c14.975,-14.895 30.135,-32.4 44.257,-51.61c14.121,-19.211 27.177,-40.127 38.155,-60.989c21.208,-40.153 34.904,-80.759 41.058,-115.903c3.011,-16.893 4.397,-32.373 4.397,-47.853c-0.054,-3.864 -0.294,-7.727 -1.12,-15.348c-0.825,-7.619 -2.264,-19.023 -3.064,-27.097c-0.799,-8.047 -0.932,-12.842 -0.826,-17.611c41.406,-0.613 82.944,3.969 121.952,13.402c39.007,9.459 75.509,23.739 129.517,53.342c54.008,29.601 125.495,74.524 193.944,123.416l110.094,-115.077c-42.924,-31.786 -87.74,-61.068 -126.586,-83.184c-38.848,-22.087 -71.727,-37.035 -100.903,-47.986c-29.175,-10.977 -54.647,-17.958 -77.828,-22.487c-35.89,-6.795 -64.026,-8.287 -102.58,-4.37c-12.976,1.332 -26.565,3.304 -53.049,10.338c-26.458,7.06 -65.758,19.157 -104.553,32.586c-22.807,-12.922 -46.467,-24.487 -63.599,-31.467c-17.133,-6.981 -27.763,-9.379 -38.608,-11.031c-40.792,-5.862 -76.922,-1.651 -125.148,11.404c-35.01,9.752 -76.496,25.179 -124.695,49.638c-48.226,24.433 -103.14,57.899 -159.12,99.197c-55.953,41.272 -112.972,90.377 -164.608,141.961c-51.61,51.583 -97.865,105.644 -136.739,157.947c-38.874,52.33 -70.394,102.901 -95.653,150.301c-25.232,47.427 -44.176,91.683 -58.485,133.142c-14.307,41.458 -23.952,80.119 -30.161,116.248c-6.208,36.157 -8.952,69.835 -9.112,96.906c-0.134,27.097 2.291,47.586 7.141,67.25c4.849,19.69 12.096,38.528 21.821,56.272c9.725,17.719 21.902,34.372 36.503,49.372c14.601,15.028 31.627,28.43 50.544,39.461c18.944,11.057 39.78,19.769 61.655,25.605c45.242,11.51 86.887,12.39 134.261,-1.093c24.433,-6.874 52.196,-17.638 81.931,-33.358c60.616,-31.627 126.96,-84.729 176.598,-142.121c51.131,-58.591 85.636,-119.367 106.151,-173.481c10.391,-27.39 17.532,-53.475 22.195,-78.521Zm266.736,-668.691c-0.32,21.742 -2.665,43.43 -7.78,68.902c-5.116,25.498 -13.055,54.807 -22.541,82.091c-9.485,27.284 -20.516,52.569 -31.361,73.671c-10.817,21.102 -21.448,38.048 -31.36,51.85c-25.551,35.064 -48.625,54.275 -73.645,65.492c-26.031,10.737 -51.104,12.283 -74.204,-0.826c-6.501,-3.811 -13.722,-11.91 -16.333,-19.291c-6.98,-24.752 -1.226,-45.988 7.594,-73.165c3.943,-10.951 9.218,-22.834 16.572,-36.104c7.328,-13.268 16.706,-27.869 29.336,-44.335c12.629,-16.466 28.483,-34.771 48.919,-54.755c20.409,-19.983 45.402,-41.644 71.806,-61.201c26.351,-19.558 54.115,-37.01 82.997,-52.329Z" style="fill:#fff;"/><path d="M2094.66,1357.15c10.657,-23.395 28.269,-60.59 46.361,-97.519l160.132,-295.272l-120.086,0l-20.037,25.046c-16.732,-8.793 -34.024,-16.573 -46.467,-21.209c-12.443,-4.636 -20.037,-6.128 -28.19,-7.194c-8.126,-1.066 -16.785,-1.705 -25.472,-1.652c-28.189,0.32 -55.607,7.806 -88.113,26.324c-12.256,7.114 -26.004,16.386 -43.349,29.629c-17.346,13.242 -38.262,30.428 -76.283,73.938c-37.995,43.51 -93.069,113.344 -138.844,170.097c-45.748,56.726 -82.17,100.369 -108.415,128.532c-26.271,28.163 -42.365,40.82 -55.58,50.198c-13.216,9.379 -23.554,15.453 -32.799,19.904c-9.273,4.449 -17.452,7.273 -25.126,9.111c-20.063,4.583 -41.512,4.29 -57.765,-5.941c-10.018,-7.087 -12.709,-13.295 -15.64,-20.996c-6.208,-21.076 -3.703,-37.888 -0.8,-58.404c1.999,-12.043 5.143,-25.685 10.125,-41.405c4.983,-15.72 11.804,-33.519 21.396,-53.902c9.618,-20.382 21.955,-43.35 37.621,-68.236c30.935,-49.798 77.349,-106.817 114.331,-141.934c18.278,-17.611 33.625,-29.842 45.616,-38.101c11.989,-8.287 20.649,-12.576 27.31,-15.188c6.661,-2.611 11.323,-3.543 16.013,-3.57c6.581,0.106 12.309,0.826 18.358,4.796c7.567,6.048 8.926,9.859 10.711,19.317c0.613,4.13 0.986,10.045 0.959,15.934c-11.244,1.705 -22.381,4.182 -31.041,6.767c-8.686,2.611 -14.867,5.329 -20.063,7.993c-5.169,2.692 -9.325,5.303 -12.869,7.94c-24.966,18.892 -27.604,42.632 -25.232,58.112c2.212,7.54 8.233,15.32 16.119,21.049c22.648,17.319 49.319,5.941 74.551,-24.726c4.557,-5.595 9.166,-12.043 13.429,-19.024c13.482,-22.088 20.943,-43.51 23.82,-61.948c4.13,-29.256 -0.106,-63.6 -40.02,-89.365c-14.814,-8.419 -28.003,-11.937 -45.935,-11.91c-9.831,0.027 -21.847,1.039 -33.998,3.464c-12.176,2.424 -24.459,6.234 -38.287,11.617c-13.802,5.382 -29.123,12.336 -57.019,34.451c-27.924,22.114 -68.423,59.416 -100.635,86.487c-32.187,27.071 -56.087,43.91 -76.816,56.406c-20.729,12.47 -38.288,20.623 -55.447,27.257c-17.159,6.634 -33.918,11.75 -50.97,15.534c8.339,-21.156 15.747,-42.711 21.182,-61.229c5.409,-18.545 8.846,-34.052 10.977,-45.882c2.105,-11.803 2.931,-19.903 2.851,-28.402c-0.08,-16.653 -3.81,-34.158 -10.631,-47.374c-3.25,-6.528 -7.114,-12.256 -11.404,-17.265c-9.938,-11.458 -20.223,-17.798 -31.067,-22.382c-29.095,-11.03 -53.475,-9.139 -82.917,-2.424c-14.921,3.677 -31.786,9.432 -50.864,18.411c-19.077,8.979 -40.393,21.182 -63.44,37.542c-23.074,16.333 -47.906,36.796 -72.339,60.562c-24.407,23.767 -48.439,50.837 -69.675,78.654c-42.072,54.994 -72.579,112.146 -89.791,159.893c-8.607,23.606 -14.308,45.135 -17.932,64.825c-3.623,19.664 -5.142,37.462 -5.355,51.85c-0.213,14.388 0.932,25.339 3.01,35.224c2.052,9.858 5.036,18.651 8.846,26.537c3.81,7.888 8.42,14.868 13.909,21.05c5.488,6.181 11.803,11.563 19.104,16.093c7.274,4.529 15.533,8.206 24.885,10.737c9.352,2.505 19.824,3.864 31.334,3.89c11.484,0 24.033,-1.332 36.982,-4.209c12.949,-2.851 26.298,-7.194 40.526,-13.589c14.202,-6.422 29.282,-14.867 45.908,-26.591c16.627,-11.697 34.798,-26.671 55.767,-47.32c20.995,-20.649 44.816,-47.028 74.071,-85.822c29.256,-38.794 63.92,-90.031 96.026,-142.733l90.084,-20.036c-22.727,45.374 -43.723,91.763 -55.58,121.364c-11.856,29.629 -14.547,42.498 -16.466,56.167c-5.915,43.163 -4.582,87.073 20.117,121.151c7.46,10.524 16.652,19.664 27.523,27.31c10.871,7.647 23.501,13.775 37.862,17.959c14.361,4.183 30.508,6.421 46.601,6.341c41.618,-0.426 77.721,-8.819 124.535,-37.808c15.933,-9.939 33.811,-22.781 57.845,-44.256c24.06,-21.449 54.275,-51.53 82.864,-83.051c-0.24,27.497 0.719,55.074 2.291,72.926c1.545,17.852 3.677,26.005 5.756,32.585c2.104,6.555 4.156,11.565 6.34,15.854c2.212,4.29 4.583,7.833 7.088,10.924c9.272,11.111 18.171,15.427 28.403,18.785c34.264,8.366 60.723,3.969 93.628,-10.472c11.644,-5.302 24.459,-12.47 40.979,-24.353c16.493,-11.856 36.689,-28.455 55.74,-46.201c-0.054,11.297 0.559,22.621 1.492,30.828c0.933,8.233 2.212,13.375 3.597,17.585c2.344,6.927 4.502,11.777 9.725,17.878c13.109,13.483 25.898,15.401 42.338,17.665c6.661,0.72 14.787,1.119 22.914,1.119c32,-0.213 63.706,-10.205 100.342,-33.544c19.051,-12.283 39.487,-28.616 61.229,-50.465c21.768,-21.849 44.842,-49.186 68.662,-83.397c23.82,-34.238 48.386,-75.323 70.048,-117.848l-25.019,-4.982c-30.135,40.446 -61.149,80.28 -81.292,104.846c-20.143,24.592 -29.362,33.891 -36.396,40.419c-7.061,6.528 -11.91,10.231 -16.066,12.922c-8.873,5.889 -18.012,7.834 -27.178,6.634c-5.435,0.294 -14.148,-6.1 -13.908,-13.907c-0.053,-4.45 -1.785,-4.583 1.999,-14.762c1.998,-5.622 5.728,-15.24 16.386,-38.633Zm-989.276,2.291c-22.142,30.72 -31.814,40.472 -39.887,47.986c-8.046,7.513 -14.468,12.816 -20.303,16.893c-5.861,4.049 -11.137,6.901 -16.199,9.112c-23.554,9.485 -50.811,11.137 -70.102,-13.216c-6.821,-10.151 -9.165,-19.264 -8.952,-32.586c0.186,-7.727 1.385,-17.398 4.796,-30.401c3.384,-13.029 8.979,-29.388 18.624,-50.277c9.672,-20.889 23.447,-46.335 41.645,-74.418c18.172,-28.11 40.766,-58.831 65.012,-88.166c13.216,15.054 27.364,29.309 38.528,39.247c11.137,9.938 19.29,15.533 31.494,21.822c12.203,6.288 28.456,13.242 45.082,18.997c-33.013,52.596 -67.597,104.286 -89.738,135.007Zm138.124,-251.336c-1.039,7.408 -2.612,14.255 -7.327,26.991c-4.69,12.762 -12.523,31.44 -21.076,49.718c-13.562,-4.13 -26.884,-9.032 -37.222,-13.615c-10.338,-4.557 -17.666,-8.739 -23.687,-12.71c-6.048,-3.97 -10.791,-7.7 -14.788,-11.323c-3.996,-3.65 -7.22,-7.168 -9.911,-10.632c-20.356,-28.696 -21.795,-58.51 8.473,-88.245c4.396,-4.157 9.538,-8.233 15.16,-11.857c5.595,-3.65 11.724,-6.874 17.825,-9.406c18.811,-6.581 36.423,-13.295 54.514,-0.319c20.303,20.463 18.625,38.714 19.664,58.884c-0.053,7.114 -0.56,15.107 -1.625,22.514Zm711.962,226.45c-9.458,15.373 -19.557,30.348 -28.456,42.338c-8.873,11.989 -16.546,20.969 -23.234,28.003c-6.687,7.06 -12.336,12.15 -17.292,16.04c-8.526,6.634 -15.561,10.524 -22.915,12.576c-11.19,2.878 -24.885,0.533 -35.516,-9.273c-10.791,-11.509 -12.47,-18.384 -12.683,-31.467c0.107,-5.622 0.826,-13.082 2.798,-22.567c1.972,-9.512 5.169,-20.995 10.764,-35.784c5.595,-14.76 13.589,-32.772 25.685,-55.18c12.097,-22.408 28.27,-49.238 47.827,-77.481c19.583,-28.27 42.524,-58.005 63.679,-82.678c21.156,-24.646 40.473,-44.282 55.927,-58.35c15.427,-14.096 26.937,-22.675 35.783,-28.403c8.873,-5.755 15.107,-8.66 20.117,-10.472c9.272,-3.463 18.011,-3.543 26.884,0c15.347,9.007 10.471,25.046 9.938,33.385c-0.613,3.358 -1.572,6.235 -7.274,16.92c-5.675,10.657 -16.28,28.962 -26.91,47.214l-125.122,215.179Z" style="fill:#fff;"/><path d="M4278.86,1638.67c-17.346,21.316 -30.615,35.57 -41.459,46.228c-10.818,10.684 -19.211,17.772 -26.164,23.02c-6.982,5.223 -12.523,8.633 -17.239,11.058c-9.566,4.636 -16.467,7.167 -26.112,5.622c-9.485,-2.238 -9.965,-9.859 -10.098,-14.522c1.146,-3.73 -1.492,1.439 9.645,-22.114c8.287,-17.346 24.246,-50.225 40.393,-82.997l190.187,-350.293l-110.121,0l-35.011,30.028c-14.441,-8.525 -29.415,-16.173 -40.339,-20.835c-10.925,-4.663 -17.745,-6.342 -24.513,-7.461c-6.794,-1.119 -13.509,-1.705 -21.076,-1.732c-37.967,0.374 -73.032,11.43 -110.92,33.439c-11.297,6.608 -23.367,14.521 -36.769,24.832c-13.429,10.312 -28.189,23.021 -45.962,39.647c-17.744,16.6 -38.5,37.089 -74.23,83.29c-35.73,46.175 -86.461,118.034 -122.271,167.299c-35.81,49.266 -56.752,75.937 -71.434,92.616c-14.68,16.68 -23.073,23.367 -29.735,28.003c-6.661,4.637 -11.59,7.221 -16.012,8.873c-6.289,2.292 -11.138,2.931 -17.639,2.025c-10.285,-0.16 -23.74,-14.201 -26.138,-23.953c-5.649,-18.145 -4.236,-26.112 0.106,-53.902c2.824,-16.306 7.674,-40.419 15.534,-71.273c7.887,-30.854 18.811,-68.476 30.854,-105.698c80.466,-50.358 157.921,-105.858 216.725,-154.084c58.804,-48.253 98.983,-89.205 139.722,-138.604c40.766,-49.425 82.038,-107.27 118.967,-167.725l-50.038,5.035c-28.616,43.004 -60.189,84.063 -97.864,126.934c-37.675,42.844 -81.505,87.5 -130.051,130.61c-48.546,43.11 -101.808,84.675 -157.441,122.777c31.413,-65.332 65.199,-129.545 101.115,-192.185c35.89,-62.667 73.938,-123.79 112.066,-179.903c38.154,-56.139 76.443,-107.27 111.186,-149.66c34.745,-42.391 65.999,-75.99 91.684,-100.982c25.711,-24.993 45.881,-41.326 61.761,-52.463c15.853,-11.111 27.417,-17.026 36.316,-20.569c8.873,-3.571 15.107,-4.823 21.369,-4.85c2.984,0 6.102,0.852 9.219,2.691c12.762,9.646 11.111,15.054 10.205,25.685c-0.373,2.985 -0.933,6.182 -4.956,18.198c-4.05,12.017 -11.563,32.853 -19.478,53.502l45.056,-5.009c7.274,-12.177 13.882,-24.806 17.799,-33.492c3.89,-8.686 5.089,-13.402 5.915,-18.864c0.852,-5.436 1.332,-11.563 1.305,-17.692c-0.399,-20.543 -6.421,-40.499 -28.322,-57.072c-5.889,-4.236 -12.523,-7.514 -19.61,-9.699c-24.034,-6.661 -44.79,-2.877 -71.168,3.81c-18.118,5.01 -38.927,12.923 -63.493,25.845c-24.566,12.923 -52.889,30.855 -86.567,57.312c-33.679,26.458 -72.74,61.415 -116.489,107.696c-43.723,46.281 -92.163,103.86 -141.242,170.871c-49.079,67.037 -98.77,143.506 -143.639,221.76c-44.843,78.201 -84.836,158.161 -120.193,240.145l-60.056,0c9.805,-22.941 18.598,-46.361 24.06,-63.227c5.409,-16.866 7.514,-27.231 8.926,-37.302c4.183,-28.243 2.638,-59.497 -11.324,-84.329c-4.21,-7.647 -9.219,-14.335 -14.814,-20.063c-21.822,-20.729 -39.7,-25.019 -63.813,-25.259c-9.619,0.133 -21.155,1.359 -34.291,4.423c-13.136,3.037 -27.844,7.887 -44.497,15.481c-16.652,7.619 -35.223,17.984 -55.979,32.372c-20.756,14.415 -43.67,32.853 -67.57,55.687c-23.873,22.834 -48.733,50.064 -71.807,79.507c-47.533,60.455 -83.742,126.053 -102.9,176.038c-10.018,25.685 -16.413,48.173 -20.489,67.97c-4.077,19.77 -5.835,36.849 -5.915,51.636c-0.08,14.788 1.492,27.258 4.53,38.581c3.037,11.298 7.513,21.449 13.268,30.375c5.782,8.952 12.816,16.732 21.049,23.154c8.233,6.448 17.612,11.537 28.03,14.947c10.391,3.41 21.768,5.142 33.066,5.302c23.42,0.134 46.121,-5.488 73.511,-18.597c14.175,-6.928 29.708,-16.227 47.16,-29.282c17.426,-13.056 36.77,-29.869 58.752,-52.676c22.007,-22.835 46.653,-51.664 74.363,-89.871c27.684,-38.208 58.458,-85.822 86.675,-134.847l60.056,0c-15.481,47.906 -29.628,96.293 -37.543,126.906c-7.886,30.588 -9.485,43.404 -10.683,56.007c-2.212,23.58 -3.065,46.681 1.065,66.344c1.892,9.139 4.743,17.479 8.447,25.099c3.703,7.62 8.233,14.468 13.615,20.596c5.382,6.129 11.617,11.484 18.731,15.987c7.087,4.503 15.054,8.126 23.74,10.551c8.712,2.452 18.171,3.73 27.977,3.783c33.172,-0.266 64.159,-10.657 101.327,-35.863c13.962,-9.539 29.522,-21.795 48.094,-39.433c18.597,-17.666 40.206,-40.686 60.455,-64.826c0,15.161 0.853,30.321 2.318,42.738c1.44,12.389 3.437,22.061 5.702,30.187c2.239,8.154 4.743,14.735 7.354,20.384c2.638,5.622 5.383,10.257 8.286,14.281c6.102,8.499 12.31,13.828 18.838,17.852c12.869,7.433 23.18,9.778 39.38,9.672c6.661,-0.134 15.108,-0.774 23.447,-2.212c16.92,-3.011 32.64,-8.66 52.063,-20.143c9.885,-5.862 20.863,-13.402 35.864,-26.485c15,-13.055 34.024,-31.68 51.956,-51.237c0,13.882 0.772,27.763 1.998,38.235c1.199,10.471 2.878,17.532 4.636,23.287c1.732,5.755 3.57,10.258 5.515,14.095c5.117,11.59 19.131,23.42 29.843,26.138c33.998,8.099 60.615,1.119 96.105,-15.294c14.041,-6.901 29.283,-16.2 46.148,-29.096c16.866,-12.895 35.303,-29.388 55.66,-51.343c20.33,-21.902 42.551,-49.265 65.865,-83.503c23.314,-34.211 47.72,-75.297 69.595,-117.688l-30.029,5.009c-20.382,29.069 -41.778,57.419 -59.096,78.734Zm-926.662,-45.695c-14.309,21.475 -29.283,41.671 -43.804,59.23c-14.547,17.558 -28.643,32.48 -40.952,44.043c-12.309,11.564 -22.86,19.797 -31.414,25.552c-8.552,5.728 -15.16,8.979 -20.409,10.978c-5.249,1.972 -9.165,2.717 -13.269,2.771c-12.869,-0.081 -25.658,-5.223 -36.982,-18.065c-3.624,-4.157 -6.875,-9.032 -9.539,-14.468c-5.968,-12.763 -8.526,-23.42 -8.313,-40.233c0.107,-9.406 1.119,-21.528 3.411,-34.318c2.318,-12.789 5.915,-26.218 11.216,-40.419c17.826,-48.174 54.382,-99.303 105.459,-142.734c6.341,11.404 14.334,22.248 26.271,33.093c5.622,5.088 12.07,10.044 19.877,15.08c7.806,5.036 17.026,10.125 30.374,15.64c13.349,5.516 30.827,11.431 48.573,16.28c-12.523,23.34 -26.191,46.095 -40.499,67.57Zm83.423,-191.626c-0.933,7.061 -2.238,14.041 -7.727,28.936c-5.516,14.84 -15.187,37.569 -25.818,59.816c-14.042,-4.209 -27.87,-9.246 -37.862,-13.641c-10.045,-4.397 -16.253,-8.153 -21.395,-11.724c-5.143,-3.597 -9.246,-6.954 -12.709,-10.365c-7.035,-6.874 -11.644,-13.695 -15.134,-20.916c-14.921,-37.754 -12.497,-76.655 32.266,-107.03c13.348,-7.94 27.097,-11.51 39.806,-11.483c13.109,0.373 23.074,0.826 34.372,9.485c11.083,10.391 12.496,19.477 14.601,33.758c0.693,6.076 1.119,13.962 1.065,21.449c-0.053,7.513 -0.559,14.654 -1.465,21.715Zm617.135,219.149c-13.269,22.089 -28.509,43.004 -40.765,58.511c-12.257,15.481 -21.903,25.286 -30.242,32.453c-8.366,7.167 -15.427,11.723 -22.541,14.707c-14.521,5.756 -30.747,7.008 -41.912,-1.598c-9.565,-9.805 -9.432,-17.185 -9.618,-31.334c0.107,-6.208 0.72,-14.734 2.185,-24.299c1.465,-9.592 3.81,-20.25 7.46,-32.426c3.624,-12.177 8.579,-25.872 15.587,-41.726c7.007,-15.853 16.066,-33.837 27.87,-53.9c11.804,-20.09 26.351,-42.232 43.323,-65.066c17.026,-22.807 36.503,-46.308 55.554,-66.904c19.051,-20.623 37.701,-38.315 53.395,-51.637c15.694,-13.348 28.483,-22.3 38.368,-28.322c9.885,-6.022 16.892,-9.086 22.488,-11.004c5.595,-1.918 9.778,-2.665 13.961,-2.719c7.78,0.161 13.349,0.161 19.504,3.411c9.085,7.061 5.302,15.507 3.543,25.339c-1.438,5.649 -3.783,12.869 -7.673,21.769c-3.89,8.872 -9.272,19.423 -15.374,29.548l-135.113,225.197Z" style="fill:#fff;"/><path d="M-0.271,2876.49l0,1055.91l4979.58,0l0,-1691.46c-68.769,-20.01 -138.338,-37.275 -194.424,-48.705c-56.059,-11.404 -98.611,-16.973 -142.361,-20.729c-43.75,-3.758 -88.698,-5.729 -133.647,-5.622c-129.092,1.465 -258.05,11.723 -391.459,29.122c-133.407,17.399 -271.291,41.965 -492.865,133.194c-221.575,91.204 -526.864,249.098 -779.319,369.61c-252.482,120.539 -452.127,203.723 -623.877,259.116c-171.748,55.393 -315.628,83.024 -459.374,101.302c-143.746,18.278 -287.359,27.23 -425.243,28.456c-137.884,1.225 -270.067,-5.249 -400.544,-17.372c-130.45,-12.123 -259.169,-29.895 -415.331,-61.708c-156.189,-31.813 -339.821,-77.668 -521.136,-131.117Z" style="fill:#eb302e;"/></g></g></svg>