<?xml version="1.0" encoding="UTF-8" standalone="no"?><!DOCTYPE svg PUBLIC "-//W3C//DTD SVG 1.1//EN" "http://www.w3.org/Graphics/SVG/1.1/DTD/svg11.dtd"><svg width="100%" height="100%" viewBox="0 0 4945 3570" version="1.1" xmlns="http://www.w3.org/2000/svg" xmlns:xlink="http://www.w3.org/1999/xlink" xml:space="preserve" xmlns:serif="http://www.serif.com/" style="fill-rule:evenodd;clip-rule:evenodd;stroke-linejoin:round;stroke-miterlimit:1.41421;"><rect x="-480" y="-420" width="6240" height="4380" style="fill:#fff;"/><g><clipPath id="_clip1"><rect x="610.947" y="277.39" width="3938.11" height="3045.22"/></clipPath><g clip-path="url(#_clip1)"><g id="Слой_x0020_1"><g id="_2360342473120"><path d="M3948.82,1693.1c-3.043,35.904 -5.274,73.025 -7.505,108.929c-2.637,43.41 -5.68,92.297 -10.143,139.966c-4.665,47.872 -11.968,94.73 -18.865,140.169l-0.811,4.665c-2.434,16.025 -5.071,32.659 -7.505,48.684c-2.232,15.213 -4.666,30.427 -6.897,45.032l-0.203,0.609c-4.057,26.573 -8.317,51.929 -10.954,77.082c-7.911,70.997 -121.912,336.729 -164.916,384.196c-26.979,29.616 -50.509,56.595 -73.431,82.356c-117.044,131.649 -194.329,219.077 -404.886,364.317c-3.246,2.231 -22.516,15.619 -32.862,20.082c-408.334,175.058 -759.871,213.397 -982.802,213.397c-161.265,0 -255.589,-20.488 -259.443,-21.3l-0.406,-1.622c-20.082,-4.463 -106.698,-30.631 -127.795,-41.584c-84.993,-43.613 -172.827,-88.848 -258.835,-135.098c-51.118,-27.384 -102.641,-58.42 -157.41,-94.527c-40.976,-27.182 -194.735,-180.13 -211.977,-203.457c-50.104,-67.346 -101.627,-136.72 -141.589,-217.049c-38.135,-76.676 -74.039,-155.382 -108.524,-231.45l-14.199,-30.63c-10.345,-23.125 -13.794,-45.032 -16.431,-61.058l-0.203,-2.028c-0.405,-2.029 -0.811,-4.057 -1.217,-6.288l-7.708,-43.816c-10.954,-61.869 -22.313,-125.766 -32.659,-189.258c-15.619,-95.744 -29.413,-189.055 -39.758,-259.646c-6.085,-40.975 3.246,-259.241 8.722,-289.465c3.246,-17.039 6.694,-36.31 11.766,-55.783c19.676,-78.706 53.552,-147.674 86.21,-214.412l0.203,-0.405l3.449,-6.897c22.313,-45.438 49.089,-98.99 79.922,-152.137c15.011,-25.559 111.567,-157.613 135.097,-187.229c16.634,-20.893 62.072,-73.837 98.788,-116.435c20.893,-24.342 40.772,-47.467 44.829,-52.538c8.52,-10.751 16.837,-21.502 25.356,-32.05c40.57,-51.929 82.56,-105.279 133.272,-154.165c19.473,-18.662 40.975,-30.427 56.595,-38.947c2.028,-1.014 3.651,-1.826 5.477,-2.84c20.69,-11.562 40.164,-20.691 59.029,-28.399c22.11,-8.722 43.206,-17.445 63.694,-25.762c102.642,-41.989 191.489,-78.096 323.747,-110.958c31.847,-7.911 83.776,-16.431 154.165,-25.153c71.605,-8.925 106.698,-12.78 142.602,-12.78c3.854,0 7.709,0 11.563,0.203c79.719,1.42 159.439,3.043 239.158,4.869c13.591,0.203 25.965,1.217 37.933,2.028c0.609,0 2.434,0.203 5.274,0.406c145.037,8.52 167.148,14.808 174.247,17.039c112.378,33.065 195.952,74.243 231.451,92.093c6.085,2.84 10.953,5.275 13.59,6.492c32.456,14.808 57.407,34.687 75.46,50.306c30.63,26.776 63.492,53.349 95.339,78.908c17.039,13.794 36.107,29.21 54.769,44.627l12.374,10.142c24.748,20.488 50.509,41.382 75.054,65.115c51.118,49.089 118.058,114.001 183.578,180.941c42.193,43.207 89.862,92.093 132.663,146.051c8.317,10.345 16.634,20.691 24.951,31.036c51.929,64.709 105.684,131.446 148.079,209.543c15.214,27.79 25.559,54.972 35.702,81.342l0.608,1.217c2.231,6.086 4.666,12.374 7.1,18.459c20.893,52.944 42.192,107.51 64.911,167.148c5.072,13.185 9.129,25.761 13.388,37.729l0.203,0.812c3.449,10.345 7.1,21.096 10.548,30.63c17.04,44.424 23.125,89.659 19.068,138.546Z" style="fill:#fefefe;fill-rule:nonzero;"/><path d="M3845.98,1577.07c-8.723,-22.922 -15.619,-46.858 -24.545,-69.78c-21.299,-56.392 -43.004,-112.378 -65.317,-168.364c-12.171,-30.833 -23.125,-62.68 -38.947,-91.891c-45.438,-83.573 -107.104,-155.787 -165.727,-229.827c-39.353,-49.495 -83.777,-95.136 -127.998,-140.574c-60.043,-61.464 -121.709,-121.507 -183.578,-181.144c-26.37,-25.356 -54.972,-48.278 -83.168,-71.606c-51.321,-42.395 -84.994,-88.036 -140.98,-123.94c-146.457,-94.122 -273.846,-130.229 -287.437,-131.244c0,0 -192.909,-20.284 -208.731,-22.11c-495.559,-57.001 -779.142,116.638 -908.762,168.77c-16.837,6.694 -33.267,14.808 -49.292,23.53c-14.606,8.114 -30.428,16.026 -42.396,27.385c-56.595,54.769 -103.25,118.058 -152.136,179.318c-20.691,26.168 -40.773,52.741 -61.464,78.706c-52.74,66.737 -105.684,133.068 -158.222,199.806c-18.459,23.327 -39.555,45.235 -54.363,70.794c-27.993,48.278 -53.349,98.381 -77.894,148.485c-32.659,66.534 -65.926,133.069 -84.182,205.689c-12.577,49.698 -25.965,263.5 -18.662,312.387c12.779,87.428 25.762,174.652 39.961,261.675c12.577,78.502 26.776,156.599 40.773,234.898c2.637,15.823 90.47,223.134 133.474,309.75c48.075,96.759 218.874,309.548 324.964,388.456c47.263,35.498 99.801,67.143 151.731,95.136c104.061,55.986 254.372,155.179 507.933,186.418c422.939,52.335 986.25,-139.763 1093.35,-194.735c1.217,-0.609 4.869,-3.854 5.274,-4.26c1.826,-1.217 20.082,-15.416 20.082,-15.416c0,0 123.332,-99.396 192.098,-170.799c103.859,-108.321 201.429,-226.785 214.817,-250.112c39.758,-68.563 75.663,-139.763 110.755,-210.963c22.719,-46.047 42.599,-93.513 48.278,-145.848c4.666,-42.801 12.577,-85.197 18.865,-127.795c9.331,-63.897 20.691,-127.389 26.776,-191.489c8.114,-83.574 10.751,-167.756 17.851,-251.33c2.84,-34.078 -1.217,-66.128 -13.185,-97.976Z" style="fill:#f49a2a;fill-rule:nonzero;"/><path d="M4390.43,2107.92c-15.822,-57 -228.611,-806.12 -250.518,-883.812c-1.015,-3.854 -4.666,-6.491 -8.723,-6.491c-16.025,0.203 -55.58,0.812 -58.015,1.015c-54.769,3.448 -91.484,3.854 -146.253,7.505c-3.449,0.203 -6.289,-2.231 -6.694,-5.477c-12.374,-100.41 -24.748,-201.632 -37.325,-304.882c-0.405,-3.448 -3.448,-6.085 -6.896,-5.882c-23.328,2.028 -47.467,4.057 -71.809,5.68c-85.805,5.476 -171.407,11.156 -257.009,16.025c-159.845,8.925 -319.893,17.445 -479.738,26.37c-13.59,0.811 -19.879,-3.246 -21.501,-17.445c-3.449,-30.833 -4.666,-45.438 -7.709,-63.086c-0.608,-3.448 -3.651,-5.883 -7.099,-5.274c-76.474,11.157 -461.278,74.445 -464.524,66.94c-52.538,-127.186 -222.931,-332.266 -223.134,-332.672c-172.421,-211.368 -466.755,-225.771 -466.755,-225.771c-6.694,-1.622 -79.719,-0.405 -86.616,1.42l-155.991,40.773l-163.901,60.246l-309.548,127.998c0,0 -80.53,33.267 -62.071,65.114l20.082,45.235l70.185,104.062c53.35,60.246 203.661,193.72 203.661,193.72c4.057,3.854 1.42,10.548 -4.057,10.954l-182.159,16.634c-0.202,0 -149.499,17.039 -216.033,25.964c-79.517,10.751 -159.237,20.488 -238.956,30.63c-32.456,4.26 -112.378,18.054 -135.098,21.908c-3.448,0.609 -5.679,3.854 -5.274,7.303l205.486,1425.01c0.406,2.028 1.826,3.854 3.854,4.666l1646.93,672.443c334.498,-37.324 658.853,-151.325 737.152,-191.692l1184.03,-928.439c1.826,-1.622 2.637,-4.259 2.029,-6.694Z" style="fill:#2d3092;fill-rule:nonzero;"/><path d="M4012.92,1744.01c-12.982,64.506 -90.47,91.485 -153.353,8.114c-7.708,-10.346 -3.246,-25.559 9.128,-23.531c69.171,11.157 122.926,-15.416 132.46,-17.445c13.185,-2.637 19.271,-3.651 11.765,32.862Zm267.355,351.739c-20.285,-70.997 -38.744,-139.357 -59.232,-207.108c-28.196,-92.702 -57.406,-184.998 -86.819,-277.294c-26.37,-82.357 -54.161,-164.105 -80.125,-246.664c-5.477,-17.648 -13.388,-20.894 -30.022,-18.054c-104.67,17.648 -209.34,34.89 -314.213,51.321c-16.836,2.637 -21.704,9.128 -21.502,25.762c3.246,204.065 5.68,408.131 8.52,612.197c0.609,48.075 2.231,96.15 3.651,144.428c0.203,8.52 -0.608,17.445 13.591,15.214c55.378,-8.52 96.353,-16.634 151.934,-24.139c13.185,-1.826 18.053,-7.303 20.082,-20.691c7.505,-50.509 9.534,-122.52 18.053,-173.232c0.609,-2.637 2.638,-4.869 5.275,-5.274c37.932,-5.477 73.431,-7.709 115.218,-13.794c2.434,-0.203 5.071,0.811 6.288,3.245c4.463,7.1 9.331,14.808 13.591,23.125c17.445,34.484 42.598,90.471 59.232,125.766c7.099,15.62 18.662,17.243 32.861,15.417c24.748,-3.043 67.549,-9.534 92.296,-13.185c15.214,-2.434 30.225,-5.68 46.25,-8.926c3.651,-0.811 6.085,-4.462 5.071,-8.114Z" style="fill:#fefefe;fill-rule:nonzero;"/><path d="M3711.08,2195.96l25.762,-738.167c0.406,-11.968 9.737,-21.502 21.502,-22.516l301.839,-51.321l-6.085,-19.27c-4.26,-13.997 -10.346,-19.068 -21.097,-19.068c-2.637,0 -5.679,0.406 -8.925,1.014c-104.67,17.648 -209.34,34.89 -314.213,51.321c-16.836,2.637 -21.704,9.128 -21.502,25.762c3.246,204.065 5.68,408.131 8.52,612.197c0.609,48.075 2.231,96.15 3.651,144.428c0.203,7.709 -0.405,16.025 10.548,15.62Z" style="fill:#cecce5;fill-rule:nonzero;"/><path d="M4040.51,1977.49l27.182,-5.477l85.399,151.933c-5.883,0.812 -11.563,1.42 -16.431,2.029c-14.199,1.826 -25.559,0 -32.861,-15.417c-16.634,-35.295 -41.787,-91.282 -59.232,-125.766c-1.42,-2.637 -2.637,-5.071 -4.057,-7.302Z" style="fill:#cecce5;fill-rule:nonzero;"/><path d="M4025.5,1772.82c-12.982,64.303 -90.471,91.485 -153.354,7.911c-4.057,-5.274 -4.665,-11.968 -2.84,-16.836c60.855,68.766 131.244,41.178 143.617,-19.879l0.812,-4.057c13.185,-2.84 19.068,-3.651 11.765,32.861Z" style="fill:#cecce5;fill-rule:nonzero;"/><path d="M3029.72,1051.89c119.883,-7.1 293.725,-19.068 413.608,-25.762c97.976,-5.68 269.18,-18.662 309.953,-21.502c13.794,-1.014 13.185,8.317 14.402,16.025c8.723,56.392 16.634,120.289 25.356,176.884c4.057,25.762 5.274,51.321 9.534,77.083c4.666,28.196 -22.719,25.964 -24.342,25.964c-32.05,1.015 -164.51,8.114 -194.734,12.78c-4.666,0.811 -7.911,4.868 -7.709,9.534c3.043,72.417 6.086,142.602 9.331,212.788c4.463,97.57 9.331,194.938 13.591,292.305c4.463,94.933 8.52,189.867 12.577,284.8c1.014,27.384 1.623,54.769 2.434,82.153c0.406,13.591 -4.665,18.46 -19.473,18.865c-35.296,1.015 -52.538,4.869 -87.631,7.506c-29.21,2.231 -176.478,17.648 -178.101,17.85c-32.862,2.638 -31.847,-20.893 -33.876,-42.801c-10.751,-123.737 -22.11,-247.475 -32.861,-371.416c-9.129,-105.481 -14.808,-203.863 -22.922,-309.75c-4.26,-56.797 -10.143,-121.1 -13.388,-177.087c-0.203,-5.071 -4.666,-8.925 -9.94,-8.519c-32.659,2.637 -147.674,10.548 -148.08,10.548c-4.868,0.406 -9.128,-1.826 -12.373,-4.666c-5.68,-4.868 -8.926,-11.968 -9.534,-19.473l-27.993,-194.532l-5.072,-43.612c-0.811,-7.506 1.218,-15.011 6.492,-20.488c2.637,-3.043 6.288,-5.274 10.751,-5.477Z" style="fill:#fefefe;fill-rule:nonzero;"/><path d="M3260.76,1348.46l61.666,890.911c-26.776,-0.608 -25.964,-22.719 -27.79,-43.004c-10.751,-123.737 -22.11,-247.475 -32.861,-371.416c-9.129,-105.481 -14.808,-203.863 -22.922,-309.75c-3.854,-50.915 -8.926,-107.712 -12.171,-159.236l34.078,-7.505Z" style="fill:#cecce5;fill-rule:nonzero;"/><path d="M3094.42,1338.32l-37.324,-250.721c-0.811,-5.071 3.043,-9.736 8.114,-10.142l702.871,-53.958l-0.406,-2.84c-1.217,-7.302 -0.608,-16.228 -12.373,-16.228c-0.609,0 -1.42,0 -2.029,0.203c-40.773,2.84 -211.977,15.822 -309.953,21.502c-119.883,6.694 -293.725,18.662 -413.608,25.762c-4.463,0.203 -8.114,2.434 -10.751,5.477c-5.274,5.477 -7.303,12.982 -6.492,20.488l5.072,43.612l27.993,194.735c0.608,7.302 3.854,14.402 9.534,19.27c3.245,2.84 7.505,5.072 12.373,4.666l26.979,-1.826Z" style="fill:#cecce5;fill-rule:nonzero;"/><path d="M2294.59,2380.76c-33.673,5.274 -33.064,5.274 -37.527,-30.022c-20.894,-163.699 -38.744,-327.6 -59.841,-491.502c-21.704,-170.596 -42.801,-341.192 -65.114,-511.585c-2.231,-18.662 3.043,-25.964 21.502,-28.196c67.751,-8.114 135.503,-17.647 203.052,-26.573c44.423,-5.68 76.474,14.2 105.887,46.25c52.132,57 107.509,110.958 161.67,166.133c25.559,26.167 53.958,55.986 79.111,82.356c2.434,2.84 11.968,14.605 22.313,23.734c4.26,3.854 11.157,0.203 10.346,-5.477c-16.431,-127.389 -36.716,-261.675 -53.147,-389.267c-11.562,-89.456 -10.345,-68.563 -22.313,-157.816c-1.217,-10.346 1.826,-14.605 11.359,-16.431c103.656,-20.082 241.39,-34.079 241.39,-34.079c22.314,-1.825 26.168,1.015 28.399,18.865c7.506,54.972 25.965,187.027 35.093,264.312c10.548,87.834 75.866,640.597 103.453,880.161c1.42,11.968 3.246,35.498 6.897,84.182c1.825,20.894 -7.911,23.733 -16.634,26.168c-13.591,3.854 -101.627,17.242 -138.343,23.327c-12.171,2.029 -19.067,-2.434 -26.573,-10.954c-147.877,-166.538 -406.103,-467.363 -406.711,-468.377c-6.289,-7.1 -13.997,-5.072 -13.997,-5.072l-7.505,1.623c-3.246,0.812 -5.477,3.854 -5.275,7.303c1.218,14.402 10.751,109.944 17.243,172.421c7.505,72.823 32.861,271.615 32.861,271.615c0,0 4.666,43.409 5.071,64.708c0.406,11.36 -9.331,15.214 -20.487,16.634c-65.318,7.708 -134.083,16.025 -199.401,24.139c-4.26,0.609 -8.519,0.811 -12.779,1.42Z" style="fill:#fefefe;fill-rule:nonzero;"/><path d="M2275.93,2383.19l-121.101,-1021.55c-0.608,-4.868 2.84,-9.331 7.708,-10.143l272.223,-37.729c-22.11,-16.431 -47.061,-24.748 -78.096,-20.691c-67.549,8.723 -135.301,18.256 -203.052,26.37c-18.459,2.232 -23.733,9.534 -21.502,28.196c22.313,170.393 43.41,340.989 65.114,511.585c21.097,163.902 38.947,327.803 59.841,491.502c3.448,26.979 3.854,33.267 18.865,32.456Z" style="fill:#cecce5;fill-rule:nonzero;"/><path d="M2720.78,1606.89c7.911,9.128 39.353,27.385 39.353,27.385l-59.841,-571.425l243.824,-18.257l-2.231,-17.445c-2.028,-14.808 -5.071,-19.27 -18.865,-19.27c-2.637,0 -6.085,0 -9.737,0.405c0,0 -137.734,13.997 -241.39,34.079c-9.533,1.826 -12.576,6.085 -11.359,16.431c11.968,89.253 10.751,68.36 22.313,157.816c16.431,127.592 36.716,261.878 53.147,389.267c0.811,5.882 -6.086,9.331 -10.346,5.477c-1.622,-1.42 -3.245,-2.84 -4.868,-4.463Z" style="fill:#cecce5;fill-rule:nonzero;"/><path d="M1675.9,1937.94l24.139,-188.041c1.014,-8.316 7.506,-14.605 15.62,-15.416l21.299,-2.029c6.491,-0.608 12.576,3.246 14.605,9.331l60.652,175.465l-136.315,20.69Zm507.122,409.957c-29.21,-83.979 -58.218,-168.161 -87.225,-252.141c-35.296,-102.438 -70.388,-204.877 -105.278,-307.315c-28.602,-83.574 -56.189,-167.351 -85.603,-250.721c-30.224,-85.4 -62.274,-169.988 -92.904,-255.387c-5.071,-14.199 -12.983,-16.025 -26.168,-14.808c-71.605,6.491 -143.211,12.577 -215.019,18.662c-30.631,2.637 -31.036,2.84 -34.282,32.862c-5.882,53.957 -10.954,107.915 -16.633,161.873c-11.969,116.232 -24.545,232.465 -36.31,348.9c-11.36,113.798 -21.705,227.799 -32.862,341.8c-8.519,89.253 -17.445,178.71 -26.573,270.6c-0.406,2.637 1.217,5.477 3.854,6.491c13.388,5.68 26.37,13.997 38.744,13.185c49.698,-4.057 98.99,-12.373 148.485,-18.053c11.766,-1.42 17.243,-5.883 19.068,-17.242c3.854,-27.588 38.136,-205.08 48.075,-282.569c0.406,-2.839 2.637,-5.071 5.274,-5.476c49.901,-8.317 101.222,-17.04 153.151,-25.762c3.043,-0.406 6.086,1.217 7.1,4.057c1.623,4.057 4.26,11.156 4.26,11.156c0,0 90.673,237.739 95.947,254.373c3.651,11.562 15.62,32.658 35.702,29.21c33.47,-5.883 149.905,-21.705 167.755,-22.719c34.485,-2.231 40.773,-14.2 31.442,-40.976Z" style="fill:#fefefe;fill-rule:nonzero;"/><path d="M1543.65,1292.27l-80.328,1169.62c-11.157,-0.608 -23.125,-7.911 -35.499,-13.185c-2.434,-1.014 -4.057,-3.651 -3.651,-6.491c9.128,-91.89 18.054,-181.347 26.573,-270.6c11.157,-114.001 21.502,-228.002 32.862,-341.8c11.765,-116.435 24.341,-232.668 36.31,-348.9c5.679,-53.958 10.751,-107.916 16.633,-161.873c1.623,-15.214 2.637,-22.719 7.1,-26.776Z" style="fill:#cecce5;fill-rule:nonzero;"/><path d="M1903.5,2120.7l88.847,289.465l-8.519,1.42c-20.082,3.448 -32.051,-17.648 -35.702,-29.21c-4.868,-15.011 -78.705,-209.34 -93.513,-247.679l48.887,-13.996Z" style="fill:#cecce5;fill-rule:nonzero;"/><path d="M1695.17,1963.7l-19.271,-25.762l136.315,-20.69l-37.73,-109.539l37.73,109.539l9.128,17.647l-126.172,28.805Z" style="fill:#cecce5;fill-rule:nonzero;"/><path d="M1379.54,1906.9c-57,5.883 -113.798,11.968 -170.596,18.054c-25.153,2.637 -59.231,8.925 -82.965,11.765c-3.854,0.609 -6.897,4.057 -6.491,8.114c0.406,4.868 1.217,14.808 1.217,14.808l37.73,483.997c0,0 1.623,20.285 2.434,30.427c0.203,3.246 -2.028,6.289 -5.274,6.897c-32.253,5.477 -53.755,8.114 -85.602,12.171c-42.192,5.68 -84.588,9.94 -126.983,13.591c-14.605,1.217 -29.616,-0.609 -44.018,-3.448c-4.057,-0.812 -8.114,-9.737 -8.926,-15.417c-9.534,-65.114 -18.256,-130.432 -27.181,-195.546c-16.837,-124.346 -33.673,-248.693 -50.307,-373.242c-17.648,-131.04 -34.484,-262.283 -52.538,-393.323c-10.751,-79.72 -23.327,-159.237 -34.89,-238.753c-2.434,-16.228 -4.057,-32.659 -6.085,-49.09c-2.637,-23.327 16.431,-27.182 30.021,-29.616c75.663,-13.793 474.464,-64.708 598.201,-82.762c18.46,-2.637 22.719,7.708 24.545,21.096c4.463,34.485 8.114,58.218 12.374,92.702c5.882,44.018 15.619,100.005 22.719,144.023c2.028,13.388 -0.406,22.313 -12.577,24.747c-35.701,7.506 -109.741,19.474 -109.741,19.474c0,0 -204.674,35.498 -215.628,37.324c-3.449,0.406 -5.68,3.651 -5.274,6.897c6.085,47.466 20.69,196.966 24.544,222.931c2.638,16.227 11.766,20.893 27.385,18.864c57.406,-7.505 96.15,-13.185 153.759,-20.284c29.616,-3.652 59.232,-7.506 88.848,-10.954c0.406,0 0.812,-0.203 1.217,-0.203c6.289,-0.812 12.171,3.651 12.983,9.939c4.665,33.065 30.021,182.564 30.63,186.824c2.231,21.299 -1.826,25.762 -23.531,27.993Z" style="fill:#fefefe;fill-rule:nonzero;"/><path d="M943.011,2506.72l-213.194,-1292.55c-7.1,4.057 -12.171,10.954 -10.751,23.733c2.028,16.431 3.651,32.862 6.085,49.09c11.563,79.516 24.139,159.033 35.093,238.753c17.851,131.04 34.687,262.283 52.132,393.323c16.837,124.549 33.673,248.896 50.51,373.242c8.925,65.114 17.647,130.432 27.181,195.546c0.812,5.68 4.869,14.605 8.926,15.417c14.402,2.839 29.413,4.665 44.018,3.448Z" style="fill:#cecce5;fill-rule:nonzero;"/><path d="M1242.42,757.155c-17.445,-18.257 -33.673,-37.73 -49.901,-57.204c-7.506,-8.722 -6.897,-13.793 2.231,-21.096c11.562,-9.534 126.578,-53.146 171.61,-69.78c213.397,-79.517 293.522,-147.471 451.136,-146.254c217.048,1.826 284.596,68.157 303.664,79.314c10.751,6.086 35.296,23.936 35.296,23.936c202.849,126.984 292.305,390.484 314.415,448.702c50.104,131.648 172.016,353.971 174.653,361.273c5.883,16.228 3.043,22.516 -13.185,28.196c-9.534,3.449 -139.763,-205.688 -139.966,-205.891c-55.986,-92.702 -151.325,-108.93 -199.4,-102.845c-13.185,1.623 -25.762,4.057 -25.965,4.057c-6.694,0.812 -56.392,8.52 -82.356,12.374c-305.693,47.67 -398.801,17.039 -467.161,-4.463c-100.004,-31.441 -197.169,-95.744 -277.294,-160.656c-105.278,-85.399 -181.752,-172.421 -197.777,-189.663Z" style="fill:#77b94c;fill-rule:nonzero;"/><path d="M1268.38,677.232l-28.196,18.054c0,0 200.009,251.532 521.524,425.171c-16.633,-4.26 -30.833,-8.723 -44.221,-12.983c-100.004,-31.644 -197.169,-95.541 -277.294,-160.656c-105.278,-85.399 -181.752,-172.421 -197.777,-189.663c-17.445,-18.257 -33.673,-37.73 -49.901,-57.204c-7.506,-8.722 -6.897,-13.793 2.231,-21.096c11.562,-9.534 126.578,-53.146 171.61,-69.78c177.898,-66.331 263.095,-124.549 377.907,-141.385c-195.343,72.417 -475.883,209.542 -475.883,209.542Z" style="fill:#61943b;fill-rule:nonzero;"/><path d="M2223.39,1105.45l77.894,-23.733c13.996,-4.26 28.602,-7.911 43.004,-8.52c15.822,-0.609 52.74,8.114 59.637,12.982c99.599,68.563 153.557,187.433 176.073,248.693c-39.758,-59.841 -87.631,-136.517 -87.631,-136.517c-55.986,-92.702 -151.325,-108.93 -199.4,-102.845c-13.185,1.623 -25.762,4.057 -25.965,4.057c-3.854,0.406 -22.313,3.246 -42.192,6.289l-1.42,-0.406Z" style="fill:#61943b;fill-rule:nonzero;"/><path d="M1442.02,767.906c-4.26,0 -5.68,5.477 -2.029,7.708c92.702,53.958 185.404,108.118 274.049,168.567c46.655,32.05 93.31,66.129 147.471,82.763c79.922,24.341 163.902,6.896 244.433,-5.68c82.153,-12.983 177.492,-31.645 151.73,-37.324c-33.47,-7.303 -58.623,-17.851 -91.89,-26.168c-104.264,-25.762 -207.717,-58.015 -303.867,-106.698c-89.66,-45.438 -179.319,-106.496 -279.729,-101.628c-47.264,2.232 -93.513,19.271 -140.168,18.46Z" style="fill:#61943b;fill-rule:nonzero;"/></g><path d="M4483.53,2017.66c3.652,0 6.694,-0.812 8.52,-2.435c2.029,-1.622 3.043,-3.854 3.043,-6.694c0,-6.288 -4.057,-9.331 -11.968,-9.331l-11.563,0l0,18.46l11.968,0Zm-1.825,70.388c-9.94,0 -19.068,-1.825 -27.182,-5.071c-8.317,-3.448 -15.416,-8.114 -21.299,-13.997c-5.883,-6.085 -10.548,-13.185 -13.794,-21.502c-3.245,-8.114 -4.868,-17.242 -4.868,-27.181c0,-9.94 1.623,-18.865 5.071,-27.182c3.246,-8.317 7.911,-15.417 13.794,-21.502c5.882,-6.085 12.982,-10.751 21.299,-14.199c8.317,-3.449 17.445,-5.274 27.182,-5.274c9.736,0 18.865,1.825 27.181,5.071c8.114,3.448 15.214,8.114 21.299,13.996c5.883,6.086 10.346,13.185 13.794,21.502c3.246,8.317 4.869,17.242 4.869,27.182c0,9.737 -1.623,18.865 -5.072,27.182c-3.245,8.317 -7.911,15.416 -13.793,21.502c-6.086,6.085 -13.186,10.751 -21.299,14.199c-8.317,3.449 -17.445,5.274 -27.182,5.274Zm0.203,-11.968c8.114,0 15.416,-1.42 22.11,-4.057c6.694,-2.84 12.374,-6.694 17.039,-11.562c4.869,-4.869 8.52,-10.751 11.157,-17.648c2.637,-6.897 3.854,-14.402 3.854,-22.516c0,-8.114 -1.217,-15.62 -3.854,-22.516c-2.84,-6.897 -6.491,-12.78 -11.359,-17.648c-4.869,-5.072 -10.549,-8.926 -17.243,-11.766c-6.694,-2.839 -13.996,-4.259 -21.907,-4.259c-8.114,0 -15.417,1.42 -22.111,4.259c-6.897,2.637 -12.576,6.492 -17.242,11.563c-4.665,4.868 -8.317,10.751 -10.954,17.648c-2.637,6.694 -4.057,14.199 -4.057,22.516c0,7.911 1.42,15.416 4.057,22.313c2.84,6.897 6.491,12.78 11.36,17.648c4.868,5.071 10.548,8.925 17.242,11.765c6.694,2.84 13.997,4.26 21.908,4.26Zm31.644,-26.776c0.203,0.203 0,0.811 -0.406,1.42c-0.608,0.811 -1.217,1.623 -2.231,2.434c-1.014,0.812 -2.231,1.42 -3.651,2.029c-1.42,0.608 -3.043,1.014 -4.666,1.014c-1.623,0 -3.651,-0.609 -5.477,-1.623c-2.028,-1.014 -3.854,-2.84 -5.477,-5.477l-12.373,-17.648l-7.303,0l0,15.62c0,5.68 -2.637,8.722 -8.317,8.722l-2.637,0c-2.637,0 -4.665,-1.014 -5.882,-2.84c-1.42,-2.028 -2.029,-4.665 -2.029,-7.911l0,-50.103c0,-6.897 3.246,-10.346 9.737,-10.346l21.705,0c9.736,0 17.039,1.826 21.907,5.477c5.072,3.854 7.506,9.534 7.506,17.242c0,5.274 -1.42,9.94 -4.26,13.388c-2.84,3.652 -6.897,6.086 -12.374,7.303l16.228,21.299Z" style="fill:#2d3092;fill-rule:nonzero;"/></g></g></g></svg>