<?xml version="1.0" encoding="UTF-8" standalone="no"?><!DOCTYPE svg PUBLIC "-//W3C//DTD SVG 1.1//EN" "http://www.w3.org/Graphics/SVG/1.1/DTD/svg11.dtd"><svg width="100%" height="100%" viewBox="0 0 842 596" version="1.1" xmlns="http://www.w3.org/2000/svg" xmlns:xlink="http://www.w3.org/1999/xlink" xml:space="preserve" xmlns:serif="http://www.serif.com/" style="fill-rule:evenodd;clip-rule:evenodd;stroke-miterlimit:2.613;"><g id="FreeVector.com-Background" serif:id="FreeVector.com Background"><g><g opacity="0.100006"><rect x="0" y="0.002" width="841.89" height="595.275" style="fill:#030505;"/></g></g></g><g id="Vector-Logo" serif:id="Vector Logo"><rect x="0" y="-12" width="852" height="612" style="fill:#fff799;"/><path d="M517,340.438l-1.543,0.071l-2.719,-2.509l3.972,-5.385l-1.324,-21.615l3.195,-1l4.149,0.125l2.51,2.5l-3.24,1.755l0,16.13l9.75,0l2.75,-0.75l0.5,0.24l2.75,3.75l-1.31,3.612l-10.44,1.638l-6.366,1l-2.634,0.438Z"/><path d="M316.904,176.501c9.291,10.621 14.1,28.997 14.1,49.926c0,32.841 -11.859,59.478 -34.352,59.478c-4.835,0 -9.214,-1.238 -13.11,-3.518c5.433,6.19 12.354,9.774 20.603,9.774c14.83,0 25.008,-11.482 30.26,-28.788l0.026,-61.069c-3.543,-11.937 -9.408,-21.15 -17.527,-25.803" style="fill:#f3c727;"/><path d="M303.949,187.931c-0.703,-1.877 -1.498,-3.584 -2.41,-5.031c-1.46,-0.795 -3.088,-1.212 -4.887,-1.212c-12.497,0 -17.229,20.03 -17.229,44.739c0,16.316 2.073,30.574 7.09,38.392c1.499,0.848 3.179,1.317 5.017,1.329c-3.206,-8.196 -4.601,-20.16 -4.601,-33.492c0,-24.565 4.693,-44.491 17.02,-44.725" style="fill:#f3c727;"/><path d="M516.189,187.931c-0.689,-1.877 -1.486,-3.584 -2.412,-5.031c-1.457,-0.795 -3.074,-1.212 -4.873,-1.212c-12.496,0 -17.228,20.03 -17.228,44.739c0,16.316 2.074,30.574 7.078,38.392c1.51,0.848 3.193,1.317 5.029,1.329c-3.23,-8.196 -4.599,-20.16 -4.599,-33.492c0,-24.565 4.651,-44.491 17.005,-44.725" style="fill:#f3c727;"/><path d="M255.379,188.698l-1.772,-33.595l-7.376,-7.39l1.577,33.323c1.928,1.864 3.609,3.884 7.571,7.662" style="fill:#f3c727;"/><path d="M234.906,166.922c-3.089,-1.759 -5.812,-2.02 -9.683,-2.188c-14.413,0 -29.948,14.308 -29.948,63.113c-0.091,29.154 4.731,46.081 11.391,54.943c1.668,1.187 3.361,1.994 5.095,2.515c-5.395,-9.591 -9.056,-25.724 -9.004,-51.216c0,-48.804 15.533,-63.127 29.973,-63.127c1.902,0 4.965,0.874 8.445,2.789c-2.008,-2.698 -4.145,-4.952 -6.269,-6.829" style="fill:#f3c727;"/><path d="M258.076,287.978l0,-47.84c-0.99,-5.891 -1.485,-12.186 -1.485,-18.716c0,-0.742 0.013,-1.459 0.027,-2.176c-3.583,1.851 -6.06,5.643 -6.06,10.035l0,52.428c0,4.861 1.511,9.174 3.688,11.103c-5.552,2.125 -14.478,14.48 -32.32,14.48c-7.128,0 -13.892,-1.851 -19.939,-5.708c7.689,8.158 17.176,11.937 27.432,11.937c17.854,0 26.769,-12.342 32.307,-14.453c-2.15,-1.941 -3.65,-6.243 -3.65,-11.09" style="fill:#f3c727;"/><path d="M339.111,289.268l29.347,0c-1.342,-1.29 -2.436,-2.477 -4.027,-4.027c-0.612,-0.665 -2.058,-2.073 -2.058,-6.165l0,-38.157l-2.814,-7.677l-3.546,0l0,39.163c0,4.131 1.721,5.969 2.386,6.802c1.379,1.356 2.422,2.502 3.843,3.818l-29.362,0l6.231,6.243Z" style="fill:#f3c727;"/><path d="M429.617,264.22l0,-74.947l7.599,0c0.821,0 1.615,0.079 2.411,0.247c-0.796,-1.798 -1.656,-3.388 -2.582,-4.743c-1.9,-1.186 -3.947,-1.773 -6.071,-1.773l-7.82,0l0,81.829l2.828,0c1.238,0 2.45,-0.209 3.635,-0.613" style="fill:#f3c727;"/><path d="M362.373,213.852l0,-24.579l8.406,0c0.95,0 1.889,0.052 2.801,0.195c-0.416,-1.85 -1.016,-3.427 -1.786,-4.783c-2.149,-1.159 -4.678,-1.681 -7.363,-1.681l-8.444,0l0,31.16l3.453,0c0.991,0 1.968,-0.131 2.933,-0.312" style="fill:#f3c727;"/><path d="M469.991,204.794c-3.284,-9.995 -8.367,-17.541 -14.609,-22.389c7.558,9.566 12.329,24.37 12.329,43.774c0,36.243 -16.693,56.846 -36.947,56.846c0,0 -24.812,-0.065 -28.083,-0.026c-1.564,-1.602 -3.285,-3.388 -4.94,-4.926c0,0 -0.012,-0.013 -0.026,-0.026l0.053,0c1.043,-1.212 1.877,-2.411 2.502,-3.818l-14.075,-37.599c6.647,-3.126 12.041,-8.522 15.208,-15.155l0,-28.879c-2.436,-5.474 -6.32,-10.034 -11.651,-12.993c4.796,5.825 7.234,13.657 7.234,21.972c0,12.72 -6.986,23.731 -17.789,28.801l15.325,40.868c1.878,4.757 2.919,6.933 6.503,11.781l-27.51,0l6.255,6.27l57.224,0c16.734,0 31.004,-14.063 35.499,-39.358c-2.411,-8.458 -3.649,-18.18 -3.649,-28.515c0,-5.771 0.379,-11.364 1.147,-16.628" style="fill:#f3c727;"/><path d="M529.158,176.501c9.291,10.621 14.086,28.997 14.086,49.926c0,32.841 -11.859,59.478 -34.34,59.478c-4.846,0 -9.214,-1.238 -13.109,-3.518c5.434,6.19 12.353,9.774 20.604,9.774c14.83,0 25.009,-11.482 30.234,-28.788l0.052,-61.069c-3.544,-11.937 -9.41,-21.15 -17.527,-25.803" style="fill:#f3c727;"/><path d="M622.141,155.234c1.212,1.211 2.175,3.804 2.058,6.789c0,3.518 -1.082,6.724 -2.933,9.279c1.929,-2.164 4.158,-3.976 6.634,-5.369c0.328,-2.307 0.276,-4.823 -0.691,-5.852l-4.964,-4.978l-0.104,0.131Z" style="fill:#f3c727;"/><path d="M664.247,192.895c3.714,3.636 6.216,6.281 6.216,6.281l0.039,-24.381c-2.41,-2.178 -3.846,-4.04 -6.255,-6.23l-0.026,24.292c0.013,0 0.013,0.013 0.026,0.038" style="fill:#f3c727;"/><path d="M626.39,289.997c1.786,-0.846 3.933,-1.355 6.372,-1.355c7.297,0 10.725,2.867 18.088,2.867c14.375,0 26.99,-15.743 26.99,-32.046c0,-20.264 -17.997,-38.262 -26.666,-47.293c-2.879,-3.245 -9.238,-6.868 -9.238,-14.791c0,-6.816 5.851,-9.214 11.728,-9.214c3.936,0 7.115,1.525 9.214,3.31c-0.86,-0.834 -2.06,-2.046 -3.608,-3.557c-2.204,-2.751 -5.606,-6.022 -10.936,-6.022c-6.632,0 -12.653,4.276 -12.653,11.104c0,7.936 6.359,12.185 9.252,15.431c8.666,9.03 26.665,26.402 26.665,46.654c0,16.302 -12.643,30.156 -26.979,30.156c-7.389,0 -10.803,-2.854 -18.087,-2.854c-2.477,0 -4.483,0.521 -6.268,1.368l6.126,6.242Z" style="fill:#f3c727;"/><path d="M570.521,177.426l12.393,35.812l0,-15.013l-0.026,-0.051l-6.138,-17.737c0.104,-2.307 -1.004,-2.216 0.638,-4.431l-6.242,-6.242c-1.434,1.759 -2.125,2.75 -0.625,7.662" style="fill:#f3c727;"/><path d="M589.195,289.345l25.881,0c-1.369,-1.29 -2.45,-2.502 -4.026,-4.04c-0.612,-0.677 -2.189,-2.071 -2.189,-6.164l-0.039,-92.969c0,-4.419 2.594,-8.25 6.215,-10.075c-1.601,0.626 -3.349,0.952 -5.224,0.952c-2.137,-2.346 -2.62,-2.424 -4.093,-4.066l-0.236,0c0.066,-0.053 0.106,-0.079 0.145,-0.105c0,-0.013 0,-0.013 -0.014,-0.013c0.144,-0.169 0.377,-0.312 0.651,-0.469c0.98,-0.769 1.917,-1.617 2.763,-2.554l-0.078,-0.078c-3.714,1.812 -6.371,5.681 -6.371,10.165l-0.027,92.528c0,4.143 1.72,5.968 2.397,6.816c1.368,1.355 2.424,2.502 3.845,3.818l-25.764,0l6.164,6.254Z" style="fill:#f3c727;"/><path d="M551.232,289.345l27.108,0c-1.344,-1.29 -2.437,-2.502 -4.027,-4.04c-0.612,-0.677 -2.163,-2.071 -2.163,-6.164l0,-38.652l-6.255,-18.245l0,50.213c0,4.143 1.732,5.968 2.396,6.816c1.355,1.355 2.412,2.502 3.82,3.818l-27.093,0l6.214,6.254Z" style="fill:#f3c727;"/><path d="M197.935,367.093c0,-2.605 1.25,-4.338 3.01,-5.185l-4.196,-4.197c-1.747,0.848 -2.998,2.608 -2.998,5.214l0,34.573l4.184,0l0,-30.405Z" style="fill:#f3c727;"/><path d="M209.037,398.059l-0.013,11.235l-26.454,0l-0.052,0c1.889,1.914 2.006,1.914 4.131,4.183l26.572,0l0,-11.276c-0.626,-0.767 -2.372,-2.25 -4.184,-4.142" style="fill:#f3c727;"/><path d="M242.777,362.496c3.676,4.99 5.799,12.326 5.748,20.746c0.118,15.572 -7.377,27.603 -18.207,27.603c-3.009,0 -5.734,-0.927 -8.106,-2.609c3.102,4.276 7.311,6.793 12.304,6.793c10.815,0 18.309,-12.031 18.205,-27.604c0.078,-11.259 -3.779,-20.566 -9.944,-24.929" style="fill:#f3c727;"/><path d="M221.118,383.242c0,6.255 1.434,11.807 3.61,15.351c0.717,0.352 1.447,0.547 2.19,0.547c0.09,0 0.182,-0.011 0.26,-0.011c-1.173,-3.247 -1.876,-7.325 -1.876,-11.704c0,-10.516 4.026,-19.067 9.017,-19.378c-0.494,-1.356 -1.081,-2.594 -1.733,-3.637c-0.704,-0.363 -1.433,-0.561 -2.19,-0.561c-5.121,0 -9.278,8.693 -9.278,19.393" style="fill:#f3c727;"/><path d="M371.612,362.496c3.661,4.99 5.8,12.326 5.747,20.746c0.119,15.572 -7.376,27.603 -18.206,27.603c-3.008,0 -5.72,-0.927 -8.105,-2.609c3.101,4.276 7.311,6.793 12.302,6.793c10.816,0 18.284,-12.031 18.206,-27.604c0.052,-11.259 -3.78,-20.566 -9.944,-24.929" style="fill:#f3c727;"/><path d="M349.954,383.242c0,6.255 1.406,11.807 3.609,15.351c0.717,0.352 1.42,0.547 2.189,0.547c0.079,0 0.171,-0.011 0.261,-0.011c-1.174,-3.247 -1.877,-7.325 -1.877,-11.704c0,-10.516 4.014,-19.067 9.019,-19.378c-0.496,-1.356 -1.095,-2.594 -1.747,-3.637c-0.692,-0.363 -1.42,-0.561 -2.163,-0.561c-5.134,0 -9.291,8.693 -9.291,19.393" style="fill:#f3c727;"/><path d="M264.606,404.068c0,2.617 1.212,4.365 2.959,5.226l-13.685,0l-0.026,0c2.099,1.981 1.682,1.735 4.184,4.195l13.696,-0.012c-1.733,-0.86 -2.945,-2.62 -2.945,-5.241l0,-21.461l-4.183,-9.074l0,26.367Z" style="fill:#f3c727;"/><path d="M269.975,357.724c-1.708,1.096 0.182,4.603 0.182,4.603l5.813,12.731l0,-11.325l-5.995,-6.009" style="fill:none;stroke:#fff;stroke-width:1px;"/><path d="M291.414,408.236l0,-41.143c0,-2.605 1.224,-4.365 2.982,-5.197l-4.195,-4.172c-1.759,0.835 -2.946,2.595 -2.946,5.201l0,41.143c0,2.617 1.212,4.365 2.946,5.226l-12.498,0c-0.092,-0.117 -0.182,-0.221 -0.286,-0.314l0,0.015c1.146,1.106 1.381,1.42 4.469,4.482l12.51,0c-1.758,-0.86 -2.982,-2.62 -2.982,-5.241" style="fill:#f3c727;"/><path d="M641.075,403.858c0,2.62 1.186,4.378 2.946,5.226l-13.698,0c2.086,1.982 1.669,1.747 4.171,4.199l13.723,-0.016c-1.76,-0.859 -2.984,-2.62 -2.984,-5.225l0,-21.464l-4.158,-9.072l0,26.352Z" style="fill:#f3c727;"/><path d="M646.432,357.53c-1.707,1.081 0.194,4.573 0.194,4.573l5.813,12.735l0,-11.3l-6.007,-6.008" style="fill:none;stroke:#fff;stroke-width:1px;"/><path d="M667.896,408.042l0,-41.142c0,-2.607 1.198,-4.367 2.958,-5.201l-4.21,-4.169c-1.746,0.834 -2.931,2.595 -2.931,5.186l0,41.142c0,2.62 1.197,4.378 2.957,5.226l-12.498,0c-0.104,-0.104 -0.195,-0.209 -0.285,-0.325c-0.027,0.026 -0.027,0.026 -0.027,0.038c1.161,1.082 1.419,1.409 4.495,4.47l12.499,0c-1.76,-0.859 -2.958,-2.62 -2.958,-5.225" style="fill:#f3c727;"/><path d="M393.427,404.068c0,2.617 1.213,4.365 2.973,5.226l-13.684,0l-0.027,0c2.098,1.981 1.682,1.735 4.184,4.195l13.71,-0.012c-1.76,-0.86 -2.972,-2.62 -2.972,-5.241l0,-21.461l-4.184,-9.074l0,26.367Z" style="fill:#f3c727;"/><path d="M398.797,357.724c-1.708,1.096 0.196,4.603 0.196,4.603l5.812,12.731l0,-11.325l-6.008,-6.009" style="fill:none;stroke:#fff;stroke-width:1px;"/><path d="M420.26,408.236l0,-41.143c0,-2.605 1.213,-4.365 2.972,-5.197l-4.223,-4.172c-1.733,0.835 -2.918,2.595 -2.918,5.201l0,41.143c0,2.617 1.185,4.365 2.945,5.226l-12.485,0c-0.105,-0.117 -0.222,-0.221 -0.299,-0.314l0,0.015c1.146,1.106 1.38,1.42 4.481,4.482l12.499,0c-1.759,-0.86 -2.972,-2.62 -2.972,-5.241" style="fill:#f3c727;"/><path d="M623.912,408.03l0,-41.171c0,-2.605 1.172,-4.363 2.921,-5.238l-4.197,-4.143c-1.736,0.834 -2.947,2.594 -2.947,5.199l0,41.127c0,2.622 1.211,4.368 2.973,5.228l-14.283,0c1.706,1.668 1.186,1.265 4.17,4.183l14.284,0c-1.749,-0.86 -2.921,-2.568 -2.921,-5.185" style="fill:#f3c727;"/><path d="M597.404,356.005l0.824,15.43c1.223,1.237 2.162,2.086 4.22,4.209l-0.846,-15.47l-4.198,-4.169Z" style="fill:#f3c727;"/><path d="M594.852,368.047c-0.027,-0.014 -0.04,-0.04 -0.053,-0.067c-0.338,-0.494 -0.664,-0.949 -1.017,-1.394c-2.919,-2.344 -5.747,-2.879 -7.311,-2.723c-5.395,0.495 -9.278,8.679 -9.278,19.379c0,6.255 1.42,11.833 3.61,15.377c0.717,0.34 1.433,0.547 2.176,0.547c0.079,0 0.196,-0.026 0.275,-0.026c-1.188,-3.242 -1.877,-7.324 -1.877,-11.703c0,-10.712 4.118,-19.079 9.277,-19.379c1.304,-0.051 3.572,0.158 6.1,1.89c-0.731,-0.704 -1.213,-1.093 -1.902,-1.901" style="fill:#f3c727;"/><path d="M606.163,383.945l-4.196,-4.169c-1.733,0.845 -2.932,2.606 -2.932,5.212l0,14.885c0,2.384 0.325,4.455 1.734,5.446c-1.173,0.337 -2.164,0.987 -3.089,1.705c-2.737,2.439 -7.611,3.833 -11.285,3.833c-3.012,0 -5.749,-0.928 -8.122,-2.58c3.116,4.247 7.325,6.764 12.303,6.764c3.676,0 8.551,-1.395 11.287,-3.819c0.899,-0.728 1.915,-1.383 3.087,-1.708c-1.394,-1.003 -1.731,-3.088 -1.731,-5.458l0,-14.884c0,-2.606 1.211,-4.368 2.944,-5.227" style="fill:#f3c727;"/><path d="M443.393,413.267l17.125,0c10.098,0 18.269,-10.086 18.269,-25.778c0,-10.764 -3.844,-18.884 -9.514,-22.922c3.311,4.472 5.332,10.894 5.332,18.727c0,15.704 -8.171,25.79 -18.271,25.79l-17.11,0l4.169,4.183Z" style="fill:#f3c727;"/><path d="M450.561,364.789l0,33.543l1.563,0c0.912,0 1.785,-0.221 2.632,-0.625l0,-28.735l5.084,0c0.117,0 0.221,0.014 0.338,0.014c-0.456,-1.316 -1.002,-2.452 -1.629,-3.439c-0.925,-0.499 -1.89,-0.758 -2.893,-0.758l-5.095,0Z" style="fill:#f3c727;"/><path d="M301.995,413.477l17.111,0c10.086,0 18.271,-10.087 18.271,-25.793c0,-10.749 -3.845,-18.882 -9.5,-22.907c3.284,4.467 5.331,10.894 5.331,18.727c0,15.703 -8.185,25.79 -18.285,25.79l-17.111,0l4.183,4.183Z" style="fill:#f3c727;"/><path d="M309.163,364.982l0,33.545l1.537,0c0.926,0 1.812,-0.207 2.633,-0.625l0,-28.732l5.083,0c0.129,0 0.247,0.011 0.365,0.011c-0.47,-1.302 -1.017,-2.453 -1.644,-3.44c-0.911,-0.497 -1.887,-0.759 -2.905,-0.759l-5.069,0Z" style="fill:#f3c727;"/><path d="M490.242,386.955l0,16.849c0,2.622 1.213,4.368 2.973,5.228l-13.723,0c1.576,1.668 1.641,1.59 4.157,4.183l13.736,0c-1.748,-0.848 -3.322,-2.605 -3.322,-5.227l0,-13.369l-2.334,-7.664l-1.487,0Z" style="fill:#f3c727;"/><path d="M502.428,413.215l14.192,0c-2.229,-1.473 -3.284,-3.44 -3.87,-5.227l-6.582,-18.491c5.33,-1.813 8.614,-7.623 8.614,-13.06c0,-6.059 -2.462,-10.139 -6.229,-12.457c1.303,2.176 2.046,4.939 2.046,8.274c0,5.982 -3.48,11.574 -8.576,13.49c-0.142,0.052 6.399,18.06 6.399,18.06c1.29,3.064 2.139,4.368 3.871,5.228l-14.061,0l4.196,4.183Z" style="fill:#f3c727;"/><path d="M490.242,363.863l0,13.213l1.083,0c0.978,0 1.89,-0.167 2.738,-0.52l0,-8.509l3.921,0c-0.066,-1.473 -0.326,-2.725 -0.743,-3.754c-0.768,-0.288 -1.577,-0.43 -2.45,-0.43l-4.549,0Z" style="fill:#f3c727;"/><path d="M527.672,357.478c-1.694,1.067 0.207,4.572 0.207,4.572l3.297,7.288l1.982,-4.561l-1.472,-3.324l-4.014,-3.975" style="fill:none;stroke:#fff;stroke-width:1px;"/><path d="M553.67,357.463c-1.758,0.849 -3.322,1.589 -5.227,5.877l-11.545,24.908l0,15.556c0,2.622 1.225,4.368 2.971,5.228l-14.284,0c1.683,1.615 1.917,1.903 4.171,4.183l14.297,0c-1.76,-0.86 -2.973,-2.62 -2.973,-5.227l0,-15.561l11.561,-24.903c1.903,-4.288 3.466,-5.028 5.212,-5.862l-4.183,-4.199Z" style="fill:#f3c727;"/><path d="M296.652,181.688c1.81,0 3.427,0.43 4.887,1.212c-2.449,-3.936 -5.683,-6.204 -9.878,-6.204c-12.512,0 -17.229,20.031 -17.229,44.726c0,20.956 3.401,38.524 12.055,43.384c-4.991,-7.819 -7.064,-22.076 -7.064,-38.379c0,-24.709 4.732,-44.739 17.229,-44.739" style="fill:#231f20;"/><path d="M312.798,172.566c8.705,10.764 13.19,28.618 13.19,48.856c0,32.854 -11.846,59.492 -34.327,59.492c-6.335,0 -11.886,-2.111 -16.577,-5.877c5.591,6.841 12.823,10.868 21.568,10.868c22.493,0 34.352,-26.637 34.352,-59.478c0,-23.81 -6.242,-44.334 -18.206,-53.861" style="fill:#231f20;"/><path d="M250.466,281.617l0,-52.427c0,-4.496 2.542,-8.367 6.255,-10.165l-4.977,-4.992l-0.275,0.131c-3.57,1.838 -6.007,5.642 -6.007,10.008l0,52.454c0,4.849 1.499,9.136 3.675,11.064c-5.552,2.151 -14.479,14.48 -32.32,14.48c-8.783,0 -16.98,-2.762 -23.979,-8.68c7.937,9.343 18.011,13.672 28.972,13.672c17.853,0 26.766,-12.33 32.318,-14.467c-2.164,-1.942 -3.662,-6.229 -3.662,-11.078" style="fill:#231f20;"/><path d="M242.711,176.046c-0.038,-0.054 -0.064,-0.105 -0.09,-0.144c0.026,0.065 0.052,0.104 0.09,0.144" style="fill:#231f20;"/><path d="M190.154,222.738c-0.091,36.021 7.298,53.419 16.394,59.935c-6.659,-8.874 -11.455,-25.817 -11.39,-54.93c0,-48.804 15.534,-63.127 29.961,-63.127c3.844,0.17 6.608,0.417 9.683,2.189c-5.864,-5.096 -11.69,-7.194 -14.688,-7.194c-14.412,0 -29.96,14.324 -29.96,63.127" style="fill:#231f20;"/><path d="M247.703,181.036l-1.59,-33.427c-1.42,-1.433 -3.297,-3.31 -4.938,-4.965c-0.027,0.156 -0.052,0.3 -0.091,0.443l1.627,32.959c1.5,1.642 2.973,2.957 4.992,4.99" style="fill:#231f20;"/><path d="M377.478,278.06l0,-0.013l-8.394,0l8.394,0.013Z" style="fill:#231f20;"/><path d="M364.431,183.004c2.685,0 5.214,0.522 7.363,1.681c-2.631,-4.769 -7.194,-6.671 -12.354,-6.671l-8.432,0l0,36.15l4.979,0l0,-31.16l8.444,0Z" style="fill:#231f20;"/><path d="M351.022,228.252l0,39.578c0,4.495 2.28,8.393 5.995,10.191l-27.642,0.026c-0.573,0.053 -1.042,0.078 -1.394,0.053c1.863,1.94 1.656,1.719 4.899,4.925l29.362,0c-1.421,-1.316 -2.464,-2.462 -3.843,-3.818c-0.665,-0.833 -2.386,-2.671 -2.386,-6.802l0,-39.163l3.546,0l-1.839,-4.99l-6.698,0Z" style="fill:#231f20;"/><path d="M379.197,230.376c10.803,-5.07 17.789,-16.081 17.789,-28.801c0,-10.556 -3.897,-20.318 -11.599,-26.208c4.378,5.748 6.595,13.267 6.595,21.217c0,12.719 -7.481,23.718 -18.285,28.8l15.313,40.882c1.876,4.744 4.535,9.579 7.167,11.781l-18.699,0l0,0.013l-8.954,-0.013c0,0 3.87,3.871 4.991,4.978l27.51,0c-3.584,-4.848 -4.625,-7.024 -6.503,-11.781l-15.325,-40.868Z" style="fill:#231f20;"/><path d="M430.974,183.004c2.124,0 4.171,0.587 6.071,1.773c-3.101,-4.587 -6.918,-6.763 -11.063,-6.763l-7.819,0l0,86.819l4.991,0l0,-81.829l7.82,0Z" style="fill:#231f20;"/><path d="M449.765,176.645c7.911,9.527 12.942,24.604 12.942,44.543c0,36.243 -16.694,56.859 -36.947,56.859c0,0 -24.735,0 -28.019,0.026c1.655,1.538 3.376,3.324 4.94,4.926c3.271,-0.039 28.083,0.026 28.083,0.026c20.254,0 36.947,-20.603 36.947,-56.846c0,-23.875 -7.22,-40.777 -17.946,-49.534" style="fill:#231f20;"/><path d="M397.715,278.047c0.014,0.013 0.026,0.026 0.026,0.026c0.013,0 0.027,-0.013 0.027,-0.026l-0.053,0Z" style="fill:#231f20;"/><path d="M508.904,181.688c1.799,0 3.416,0.43 4.887,1.212c-2.449,-3.936 -5.694,-6.204 -9.878,-6.204c-12.51,0 -17.227,20.031 -17.227,44.726c0,20.956 3.402,38.524 12.054,43.384c-4.99,-7.819 -7.064,-22.076 -7.064,-38.379c0,-24.709 4.732,-44.739 17.228,-44.739" style="fill:#231f20;"/><path d="M525.052,172.566c8.704,10.764 13.188,28.618 13.188,48.856c0,32.854 -11.845,59.492 -34.327,59.492c-6.333,0 -11.885,-2.111 -16.575,-5.877c5.59,6.841 12.822,10.868 21.566,10.868c22.481,0 34.34,-26.637 34.34,-59.478c0,-23.81 -6.228,-44.334 -18.192,-53.861" style="fill:#231f20;"/><path d="M607.374,162.492c1.12,1.576 2.528,3.101 3.924,4.209c0.403,-0.743 0.743,-1.512 1.042,-2.332c-1.982,0 -3.688,-0.704 -4.966,-1.877" style="fill:#231f20;"/><path d="M622.127,155.194c-0.625,-0.651 -1.928,-2.189 -3.181,-3.415c1.095,1.498 1.734,3.519 1.656,6.1c0,8.249 -6.633,14.96 -14.87,15.104c1.461,1.615 1.967,1.707 4.067,4.04c8.342,0 14.4,-6.686 14.4,-15.026c0.117,-2.985 -0.846,-5.578 -2.072,-6.803" style="fill:#231f20;"/><path d="M659.242,187.892c3.206,3.088 4.966,4.965 4.966,4.965l0.039,-24.344c-1.017,-0.874 -3.778,-3.753 -5.005,-4.966l-0.026,24.305c0.026,0.013 0.026,0.027 0.026,0.04" style="fill:#231f20;"/><path d="M615.194,249.611c0,0 5.044,9.71 13.058,14.27m-7.115,-8.34l-5.943,-5.956l0,0.026m13.058,14.27c-4.379,-4.092 -7.115,-8.34 -7.115,-8.34" style="fill:none;stroke:#fff;stroke-width:1px;"/><path d="M644.933,208.404c-2.893,-3.245 -9.252,-7.493 -9.252,-15.443c0,-6.816 5.98,-11.091 12.614,-11.091c4.234,0 7.232,2.047 9.422,4.262c-2.813,-3.115 -9.03,-9.227 -15.025,-9.227c-6.62,0 -12.003,5.526 -12.003,12.329c0,7.962 6.36,13.462 9.252,16.706c8.655,9.032 26.652,24.526 26.652,44.778c0,16.304 -12.616,29.532 -26.977,29.532c-7.389,0 -10.803,-2.868 -18.089,-2.868c-2.411,0 -4.521,0.508 -6.294,1.33l5.031,5.017c1.771,-0.873 3.791,-1.381 6.268,-1.381c7.284,0 10.687,2.866 18.087,2.866c14.336,0 26.979,-13.853 26.979,-30.156c0,-20.252 -18.012,-37.622 -26.665,-46.654" style="fill:#231f20;"/><path d="M545.018,283.091l27.093,0c-1.408,-1.316 -2.465,-2.463 -3.82,-3.818c-0.664,-0.848 -2.396,-2.673 -2.396,-6.816l0,-50.213l-5.005,-14.596l0,60.248c0,4.482 2.294,8.392 5.995,10.19l-26.899,0l5.032,5.005Z" style="fill:#231f20;"/><path d="M565.517,174.938l17.397,50.226l0,-11.926l-12.393,-35.812c-1.5,-4.912 -0.809,-5.929 0.625,-7.662l-4.978,-4.978l-0.039,0.013c-2.711,2.436 -2.489,5.408 -0.612,10.139" style="fill:#231f20;"/><path d="M604.95,279.273c-0.677,-0.848 -2.397,-2.673 -2.397,-6.816l0.027,-92.528c0,-4.484 2.657,-8.367 6.371,-10.165l-4.992,-4.978l-0.09,0.026c-3.676,1.811 -6.294,5.655 -6.294,10.126l0,92.958c0,4.482 2.268,8.392 5.981,10.19l-25.555,0c2.255,2.033 1.263,1.434 5.03,5.005l25.764,0c-1.421,-1.316 -2.477,-2.463 -3.845,-3.818" style="fill:#231f20;"/><path d="M577.988,278.073c-0.013,0 -0.027,0.013 -0.027,0.013l0.04,0l-0.013,-0.013" style="fill:none;stroke:#fff;stroke-width:1px;"/><path d="M190.271,359.445l0,38.053l3.48,0l0,-34.573c0,-2.621 1.264,-4.38 3.01,-5.214l-3.518,-3.479l-0.052,0.016c-1.734,0.856 -2.92,2.617 -2.92,5.197" style="fill:#231f20;"/><path d="M205.558,394.554c0,0 -0.026,0 -0.026,-0.013m0,0.013l0.026,0m-0.026,-0.013l0,0.013" style="fill:none;stroke:#fff;stroke-width:1px;"/><path d="M205.558,394.554l0,0.584l-0.026,10.663l-25.4,0c-0.339,0.027 -0.652,0.027 -0.951,0l-0.183,0c1.342,1.474 1.525,1.537 3.481,3.493l26.545,0l0.013,-11.261c-0.665,-0.587 -2.202,-2.123 -3.479,-3.479" style="fill:#231f20;"/><path d="M238.998,358.599c3.845,5.004 6.1,12.511 6.047,21.162c0.118,15.561 -7.389,27.604 -18.219,27.604c-3.166,0 -6.034,-1.043 -8.496,-2.895c3.088,4.016 7.168,6.375 11.988,6.375c10.83,0 18.325,-12.031 18.207,-27.603c0.078,-11 -3.61,-20.162 -9.527,-24.643" style="fill:#231f20;"/><path d="M230.396,363.849c0.757,0 1.486,0.198 2.19,0.561c-1.564,-2.528 -3.544,-4.027 -5.668,-4.027c-5.135,0 -9.28,8.666 -9.28,19.378c0,9.137 3.038,16.787 7.09,18.832c-2.176,-3.544 -3.61,-9.096 -3.61,-15.351c0,-10.7 4.157,-19.393 9.278,-19.393" style="fill:#231f20;"/><path d="M367.833,358.599c3.844,5.004 6.111,12.511 6.046,21.162c0.104,15.561 -7.375,27.604 -18.218,27.604c-3.166,0 -6.035,-1.043 -8.497,-2.895c3.063,4.016 7.168,6.375 11.989,6.375c10.83,0 18.325,-12.031 18.206,-27.603c0.079,-11 -3.596,-20.162 -9.526,-24.643" style="fill:#231f20;"/><path d="M359.245,363.849c0.743,0 1.471,0.198 2.163,0.561c-1.577,-2.528 -3.532,-4.027 -5.656,-4.027c-5.134,0 -9.266,8.666 -9.266,19.378c0,9.137 2.998,16.787 7.077,18.832c-2.203,-3.544 -3.609,-9.096 -3.609,-15.351c0,-10.7 4.157,-19.393 9.291,-19.393" style="fill:#231f20;"/><path d="M266.469,354.248c-2.644,1.301 -1.198,4.584 -1.198,4.584m4.717,-1.121l-3.519,-3.463m3.688,8.079c0,0 -1.915,-3.544 -0.169,-4.616m-4.717,1.121l10.699,23.093l0,-6.867l-5.813,-12.731" style="fill:none;stroke:#fff;stroke-width:1px;"/><path d="M261.139,400.586c0,2.61 1.187,4.367 2.932,5.215c0,0 -13.5,0.027 -13.709,0c1.733,1.773 1.785,1.589 3.492,3.493l13.711,0c-1.747,-0.861 -2.959,-2.609 -2.959,-5.226l0,-26.367l-3.467,-7.544l0,30.429Z" style="fill:#231f20;"/><path d="M287.255,404.068l0,-41.143c0,-2.621 1.212,-4.38 2.946,-5.214l-3.519,-3.463c-1.72,0.856 -2.92,2.591 -2.92,5.197l0,41.141c0,2.61 1.2,4.367 2.946,5.215l-12.498,-0.014c1.108,1.174 1.526,1.435 3.493,3.507l12.498,0c-1.734,-0.861 -2.946,-2.609 -2.946,-5.226" style="fill:#231f20;"/><path d="M642.939,354.039c-2.659,1.3 -1.187,4.587 -1.187,4.587m4.705,-1.111l-3.518,-3.476m3.687,8.064c0,0 -1.927,-3.544 -0.169,-4.588m-4.705,1.111l10.687,23.102l0,-6.89l-5.813,-12.735" style="fill:none;stroke:#fff;stroke-width:1px;"/><path d="M637.582,400.392c0,2.606 1.213,4.365 2.946,5.211c0,0 -13.487,0.015 -13.723,0c1.732,1.777 1.785,1.593 3.494,3.481l13.722,0c-1.76,-0.848 -2.946,-2.606 -2.946,-5.226l0,-26.352l-3.493,-7.558l0,30.444Z" style="fill:#231f20;"/><path d="M663.713,403.858l0,-41.142c0,-2.607 1.197,-4.367 2.957,-5.201l-3.519,-3.476c-1.732,0.859 -2.93,2.591 -2.93,5.211l0,41.142c0,2.606 1.211,4.365 2.957,5.211c0,0 -12.496,-0.012 -12.524,-0.012c1.108,1.172 1.55,1.433 3.518,3.493l12.498,0c-1.76,-0.848 -2.957,-2.606 -2.957,-5.226" style="fill:#231f20;"/><path d="M395.304,354.248c-2.632,1.301 -1.185,4.584 -1.185,4.584m4.704,-1.121l-3.519,-3.463m3.689,8.079c0,0 -1.916,-3.544 -0.17,-4.616m-4.704,1.121l10.686,23.093l0,-6.867l-5.812,-12.731" style="fill:none;stroke:#fff;stroke-width:1px;"/><path d="M389.949,400.586c0,2.61 1.211,4.367 2.958,5.215c0,0 -13.515,0.027 -13.71,0c1.707,1.773 1.786,1.589 3.492,3.493l13.711,0c-1.76,-0.861 -2.973,-2.609 -2.973,-5.226l0,-26.367l-3.478,-7.544l0,30.429Z" style="fill:#231f20;"/><path d="M416.091,404.068l0,-41.143c0,-2.621 1.185,-4.38 2.945,-5.214l-3.519,-3.463c-1.721,0.856 -2.919,2.591 -2.919,5.197l0,41.141c0,2.61 1.213,4.367 2.945,5.215c0,0 -12.498,-0.014 -12.51,-0.014c1.12,1.174 1.536,1.435 3.518,3.507l12.485,0c-1.76,-0.861 -2.945,-2.609 -2.945,-5.226" style="fill:#231f20;"/><path d="M619.689,403.804l0,-41.127c0,-2.605 1.211,-4.365 2.973,-5.214l-3.519,-3.477c-1.747,0.846 -2.879,2.591 -2.879,5.197l0,41.168c0,2.647 1.158,4.34 2.918,5.189l-14.244,0c0.012,0 0.012,-0.011 0.025,-0.011l-0.104,0c1.682,1.549 1.032,1.106 3.52,3.503l14.283,0c-1.762,-0.86 -2.973,-2.606 -2.973,-5.228" style="fill:#231f20;"/><path d="M619.182,353.971l-0.039,0l0,0.015c0.012,0 0.012,-0.015 0.039,-0.015" style="fill:#231f20;"/><path d="M594.799,367.98c0.013,0.027 0.026,0.053 0.053,0.067c1.055,1.238 1.601,1.485 3.376,3.388l-0.824,-15.43c-0.597,-0.677 -2.552,-2.568 -3.478,-3.507l0,0.015l0.873,15.467Z" style="fill:#231f20;"/><path d="M582.979,360.383c-5.123,0 -9.278,8.681 -9.278,19.393c0,9.134 3.035,16.784 7.102,18.843c-2.19,-3.544 -3.61,-9.122 -3.61,-15.377c0,-10.7 3.883,-18.884 9.278,-19.379c1.564,-0.156 4.392,0.379 7.311,2.723c-3.713,-4.666 -8.391,-6.581 -10.803,-6.203" style="fill:#231f20;"/><path d="M601.979,379.761l-3.492,-3.465c-1.747,0.86 -2.932,2.593 -2.932,5.211l0,14.883c0,2.387 0.34,4.447 1.72,5.437c-1.173,0.35 -2.164,1.013 -3.089,1.72c-2.737,2.435 -7.61,3.833 -11.272,3.833c-3.18,0 -6.033,-1.046 -8.498,-2.882c3.063,4 7.155,6.359 11.979,6.359c3.674,0 8.548,-1.394 11.285,-3.833c0.925,-0.718 1.916,-1.368 3.089,-1.705c-1.409,-0.991 -1.734,-3.062 -1.734,-5.446l0,-14.885c0,-2.606 1.211,-4.367 2.944,-5.227" style="fill:#231f20;"/><path d="M593.782,366.586c0.353,0.445 0.679,0.9 1.017,1.394c-0.117,-0.221 -0.195,-0.666 -0.313,-0.781c-0.234,-0.236 -0.481,-0.418 -0.704,-0.613" style="fill:#231f20;"/><path d="M465.482,360.656c3.467,4.498 5.643,11.078 5.643,19.146c0,15.703 -8.185,25.801 -18.258,25.801l-17.059,0c0,-0.012 0.013,-0.012 0.013,-0.012l-0.104,0c1.277,1.487 1.771,1.668 3.507,3.493l17.11,0c10.1,0 18.271,-10.086 18.271,-25.79c0,-10.505 -3.663,-18.492 -9.123,-22.638" style="fill:#231f20;"/><path d="M450.561,364.789l5.095,0c1.003,0 1.968,0.259 2.893,0.758c-1.719,-2.738 -3.948,-4.252 -6.399,-4.252l-5.056,0l0,37.037l3.467,0l0,-33.543Z" style="fill:#231f20;"/><path d="M324.084,360.865c3.453,4.51 5.644,11.078 5.644,19.143c0,15.718 -8.198,25.793 -18.298,25.793l-17.034,0c0,-0.014 0,-0.014 0.027,-0.014l-0.13,0c1.29,1.488 1.786,1.668 3.519,3.507l17.111,0c10.1,0 18.285,-10.087 18.285,-25.79c0,-10.518 -3.688,-18.506 -9.124,-22.639" style="fill:#231f20;"/><path d="M309.163,364.982l5.069,0c1.018,0 1.994,0.262 2.905,0.759c-1.72,-2.726 -3.948,-4.237 -6.385,-4.237l-5.068,0l0,37.023l3.479,0l0,-33.545Z" style="fill:#231f20;"/><path d="M486.777,383.489l0,16.825c0,2.631 1.186,4.377 2.944,5.226l-13.721,0c0,-0.011 0.025,-0.011 0.052,-0.027c-0.027,0 -0.052,0.016 -0.078,0.016c1.421,1.495 1.536,1.6 3.518,3.503l13.723,0c-1.76,-0.86 -2.973,-2.606 -2.973,-5.228l0,-16.849l1.487,0l-1.056,-3.466l-3.896,0Z" style="fill:#231f20;"/><path d="M508.422,403.804c0,0 -6.541,-18.008 -6.399,-18.06c5.096,-1.916 8.576,-7.508 8.576,-13.49c0,-5.836 -2.268,-9.811 -5.812,-12.156c1.459,2.24 2.332,5.109 2.332,8.679c0,7.533 -3.714,11.859 -9.07,13.668l6.334,17.869c1.277,3.076 2.385,4.377 4.131,5.226l-13.776,0c0.028,0 0.028,-0.011 0.028,-0.011l-0.053,0c1.485,1.405 1.043,1.106 3.519,3.503l14.061,0c-1.732,-0.86 -2.581,-2.164 -3.871,-5.228" style="fill:#231f20;"/><path d="M494.791,363.863c0.873,0 1.682,0.142 2.45,0.43c-1.147,-2.709 -3.362,-3.91 -5.916,-3.91l-4.548,0l0,16.693l3.465,0l0,-13.213l4.549,0Z" style="fill:#231f20;"/><path d="M522.979,359.183l6.294,14.481l1.903,-4.316l-3.297,-7.298c0,0 -1.941,-3.545 -0.195,-4.587l-3.532,-3.492l-0.025,0c-1.746,0.849 -2.307,2.478 -1.148,5.212" style="fill:#231f20;"/><path d="M550.15,353.971l-0.012,0c-1.759,0.849 -3.27,1.604 -5.186,5.892l-11.534,24.93l0,15.521c0,2.619 1.213,4.377 2.973,5.226l-14.246,0c0.013,-0.011 0.027,-0.027 0.053,-0.027c-0.04,0 -0.079,0.016 -0.132,0.016c1.11,1.002 1.852,2.029 3.519,3.503l14.27,0c-1.732,-0.86 -2.957,-2.606 -2.957,-5.228l0,-15.518l11.545,-24.946c1.905,-4.288 3.469,-5.028 5.227,-5.877l-3.52,-3.492Z" style="fill:#231f20;"/><path d="M344.558,313.69c0,0 0.13,0.142 0.051,0.415c-0.051,0.262 -0.429,0.524 -0.429,0.524l-4.991,5.943c-1.33,0.258 -1.135,-1.316 -3.063,-2.31c-2.034,-1.118 -4.705,-1.143 -6.751,-0.09c-0.507,0.404 -0.925,0.822 -0.769,1.552c1.72,0.823 3.949,0.534 5.943,0.781c4.64,0.405 8.836,3.231 10.36,7.795c0.522,3.059 0.092,6.461 -2.176,8.716c-4.288,4.602 -11.389,5.604 -17.254,3.716c-2.307,-0.572 -4.405,-1.892 -6.973,-1.642c-1.277,-1.446 -2.814,-2.568 -3.973,-4.093c-0.366,-0.247 3.622,-4.782 5.46,-7.195c1.003,-0.037 1.003,1.225 1.654,1.787c2.776,3.037 7.584,3.139 11.286,2.125c0.275,-0.224 0.847,-0.209 0.847,-0.626c-0.117,-1.068 -1.251,-0.784 -2.072,-0.873c-2.906,-0.235 -6.66,0.183 -9.187,-1.604c-0.704,-0.508 -1.395,-1.043 -1.981,-1.627c-2.919,-2.373 -4.587,-5.15 -4.054,-8.875c0.509,-3.338 3.65,-6.359 6.738,-7.508c4.782,-2.07 10.856,-0.756 15.651,0.703c1.33,0.274 2.868,0.016 3.95,0.561l1.733,1.825Z" style="fill:#231f20;"/><path d="M354.111,340.654c-1.135,-0.849 -2.048,-1.668 -3.219,-2.842c0,-1.368 1.916,-2.748 1.916,-4.142l0,-19.786c0,-1.081 -0.991,-2.265 -1.995,-3.167c-0.247,-0.284 0.377,-0.819 0.743,-0.819l18.401,0c4.275,0 7.937,4.274 9.526,7.792c1.29,3.233 1.161,7.507 -0.846,10.401c-3.232,4.742 -9.254,4.364 -14.662,4.169c-0.651,0 -0.573,2.501 -0.573,3.949c0,0.523 1.785,2.777 2.749,3.622c0.743,0.677 0,0.823 0,0.823l-12.04,0" style="fill-rule:nonzero;"/><path d="M407.359,329.419c0.143,0.456 0.365,0.067 0.704,0.444c0.169,0.195 0.404,0.378 0.652,0.535c2.254,1.72 1.694,1.981 1.694,3.44c-0.039,1.525 0,3.806 0,5.72c0,1.238 -1.238,1.096 -1.238,1.096l-21.125,0c-0.678,0 -3.272,-3.051 -3.272,-3.051c-0.352,-0.415 0.26,-0.678 1.238,-1.654c0,0 0.77,-0.807 0.77,-1.344l0.012,-20.538c0,-1.274 -1.472,-2.592 -2.123,-3.245c-0.17,-0.483 0.338,-0.924 0.728,-0.924l22.521,0c0.691,0.924 1.954,1.941 2.424,3.074c-0.026,2.684 0.026,5.305 0,7.975c0.026,1.592 -1.199,-0.703 -2.424,-1.248c-1.187,-0.353 -2.151,-0.861 -3.311,-0.132l0,0.287c0.9,1.093 2.32,2.02 2.75,3.269l0,6.296Z" style="fill:#231f20;"/><path d="M466.382,335.935c0,1.761 1.433,2.932 2.632,4.184l0,0.535l-11.951,0c-0.755,0 -3.167,-3.182 -3.167,-3.182c-0.326,-0.962 0.692,-1.458 1.135,-2.162c0.444,-0.679 0.794,-0.953 0.794,-2.178l0,-19.846c-0.039,-1.133 -0.86,-2.098 -1.811,-2.816c0,-0.22 -0.053,-0.429 0.209,-0.572l11.427,0c0.993,0.457 1.761,1.615 2.569,2.307c-0.156,0.73 -0.977,1.29 -1.381,1.746c-0.509,0.588 -0.509,1.406 -0.509,2.396l0.053,19.588Z" style="fill:#231f20;"/><path d="M483.232,313.989c0.182,-0.624 0.221,-1.328 0.156,-2.019c-0.13,-1.095 -1.98,-2.022 -0.73,-2.072l12.876,0c4.001,3.688 2.032,2.229 1.799,4.013l0.103,1.225c2.946,7.157 5.421,14.506 8.707,21.58c1.185,2.254 2.41,2.401 3.139,3.247c0.288,0.313 0,0.691 0,0.691c0,0 -11.936,0.025 -12.667,0c-0.716,0 -3.035,-2.92 -3.271,-3.156c-0.221,-0.258 1.317,-1.951 0.886,-3.203l-0.65,-0.405l-7.455,0c-0.939,0.95 -0.9,2.15 -0.887,3.414l2.164,2.868c0.104,0.142 -0.039,0.284 0,0.482l-11.22,0c-0.809,0 -3.272,-3.156 -3.272,-3.156c-0.169,-0.766 0.534,-0.623 0.821,-1.147c0.964,-1.197 1.76,-2.461 2.424,-3.818l7.077,-18.544Z" style="fill:#231f20;"/><path d="M446.233,311.943c0,0 -2.149,-0.063 -2.84,-0.468c-5.356,-3.128 -14.126,-3.794 -19.717,-0.104c-1.694,1.107 -3.167,2.435 -4.497,4.091c-3.361,4.613 -3.335,11.336 -0.3,16.094c3.897,6.152 10.844,10.257 18.063,8.824c4.053,-0.666 7.388,-3.218 11.078,-4.861c0.376,-0.248 1.054,0.128 1.328,-0.377c-2.5,-2.998 -5.289,-6.269 -7.676,-9.148l-0.402,0c-0.275,0.74 -0.717,1.365 -1.265,1.978c-2.567,2.153 -6.1,3.207 -9.487,2.048c-2.268,-1.331 -2.491,-4.183 -2.086,-6.766c0.3,-2.214 2.568,-4.469 4.822,-4.913c2.228,-0.326 4.822,-0.351 6.217,1.513c0.742,1.018 2.188,2.723 2.566,2.424c1.812,-2.49 3.988,-5.032 6.008,-7.519c0.965,-1.069 -1.197,-2.334 -1.812,-2.816" style="fill:#231f20;"/><path d="M360.184,322.173c0,0.965 0.077,0.926 6.802,0.938c1.303,0.012 2.124,-0.662 2.606,-2.109c0.26,-1.33 0.182,-2.818 -0.691,-3.832c-0.482,-0.535 -1.094,-0.823 -2.06,-1.057c-0.337,-0.106 -6.657,-0.195 -6.657,0.43l0,5.63Z" style="fill:#231f20;"/><path d="M350.566,448.375l-7.794,0l0,-6.217l7.05,0l0,-1.979l-7.05,0l0,-5.525l7.363,0l0.652,-1.982l-10.347,0l0,17.673l10.777,0l-0.651,-1.97Z" style="fill:#231f20;"/><path d="M424.9,432.672l-2.32,0l0,17.673l10.791,0l-0.651,-1.97l-7.82,0l0,-15.703Z" style="fill:#231f20;"/><path d="M448.188,443.683l3.624,-8.338l3.635,8.338l-7.259,0Zm2.373,-11.011l-7.507,17.673l2.228,0l2.021,-4.693l9.005,0l2.058,4.693l2.191,0l-7.494,-17.673l-2.502,0Z" style="fill:#231f20;"/><path d="M485.5,450.345l0,-17.673l-2.242,0l0,12.55l-0.508,0.012l-7.586,-12.551l-2.971,-0.011l0,17.673l2.229,0l0,-13.19l0.508,0.015l7.949,13.175l2.621,0Z" style="fill:#231f20;"/><path d="M379.054,450.148l0,-17.685l-2.241,0l0,12.55l-0.509,0.016l-7.573,-12.551l-2.971,-0.015l0,17.685l2.242,0l0,-13.187l0.496,0.011l7.936,13.176l2.62,0Z" style="fill:#231f20;"/><path d="M399.305,441.652l8.849,0l0,4.521c0,2.531 -3.362,4.758 -7.064,4.758c-5.081,0 -8.144,-3.924 -8.144,-9.593c0,-5.641 3.831,-9.264 7.428,-9.264c4.288,0 6.242,1.693 7.128,2.841l-1.341,1.68c-0.964,-1.276 -2.972,-2.423 -5.787,-2.41c-2.15,0 -5.122,2.631 -5.122,7.153c0,2.451 0.691,4.509 1.956,5.774c0.977,0.978 2.28,1.487 3.882,1.487c1.642,0 3.311,-0.613 4.249,-1.525c0.314,-0.326 0.482,-0.639 0.482,-0.901l0.027,-2.566l-6.543,0l0,-1.955Z" style="fill:#231f20;"/><path d="M510.756,441.522c0,-6.296 -4.184,-6.843 -9.84,-6.843l0,13.553c6.19,0 9.84,-0.062 9.84,-6.71m-12.147,-8.85c7.782,0 14.87,0 14.87,8.85c0,9.186 -6.151,8.823 -14.87,8.823l0,-17.673Z" style="fill:#231f20;"/><path d="M178.998,405.801l0,-0.014l0,0.014" style="fill:none;stroke:#fff;stroke-width:1px;"/><path d="M178.998,405.787l0,0.014l0.183,0c-0.053,-0.014 -0.131,-0.014 -0.183,-0.014" style="fill:#d22229;"/><path d="M205.558,394.554l-0.026,0c0.026,0.091 0.026,0.17 0.026,0.275l0,-0.275Z" style="fill:#d22229;"/><path d="M402.876,319.373c0.431,0.025 0.834,0.154 1.211,0.194c-0.195,0.587 -1.016,0.808 -1.68,0.98c-0.782,0.142 -3.414,0.089 -5.199,0c-0.222,-0.356 -0.548,-0.902 0.142,-1.174l5.526,0Z" style="fill:#fff799;"/><path d="M397.833,329.34l6.71,0l1.396,0.198l0.313,0.325c-0.625,0.898 -1.811,0.703 -2.816,0.834l-6.15,0c-0.653,-0.287 -0.078,-1.383 0.547,-1.357" style="fill:#fff799;"/><path d="M363.402,319.605l0,-0.31c1.929,0 4.822,-0.274 5.473,0.466c0.026,0.811 -0.26,1.461 -0.729,2.073c-0.508,0.522 -3.219,0.365 -4.744,0.365l0,-2.594Z" style="fill:#fff799;"/><path d="M489.357,324.704c0.079,-0.587 0.182,-1.357 0.731,-1.554c0.482,0.392 0.482,1.02 0.61,1.564l-1.341,-0.01Z" style="fill:#fff799;"/><path d="M291.661,266.161c-12.512,0 -17.229,-20.042 -17.229,-44.739c0,-24.695 4.717,-44.726 17.229,-44.726c12.484,0 16.485,20.031 16.485,44.726c0,24.697 -4.001,44.739 -16.485,44.739m0,-104.242c-22.506,0 -35.07,26.637 -35.07,59.503c0,32.854 12.564,59.492 35.07,59.492c22.481,0 34.327,-26.638 34.327,-59.492c0,-32.866 -11.846,-59.503 -34.327,-59.503" style="fill:#d22229;"/><path d="M503.913,266.161c-12.51,0 -17.227,-20.042 -17.227,-44.739c0,-24.695 4.717,-44.726 17.227,-44.726c12.486,0 16.486,20.031 16.486,44.726c0,24.697 -4,44.739 -16.486,44.739m0,-104.242c-22.505,0 -35.069,26.637 -35.069,59.503c0,32.854 12.564,59.492 35.069,59.492c22.482,0 34.327,-26.638 34.327,-59.492c0,-32.866 -11.845,-59.503 -34.327,-59.503" style="fill:#d22229;"/><path d="M216.935,302.287c-25.686,0 -46.498,-23.784 -46.498,-79.992c0,-46.21 20.812,-79.977 46.498,-79.977c8.914,0 9.696,2.633 14.739,3.102c3.857,0.352 7.637,-0.847 9.501,-2.776l1.641,33.492c-7.701,-11.924 -18.179,-16.421 -22.585,-16.421c-14.425,0 -29.96,14.324 -29.96,63.141c-0.117,48.362 13.214,63.128 26.091,63.128c5.538,0 8.627,-1.069 11.455,-3.649l0,-58.058c0,-4.471 -2.542,-8.341 -6.243,-10.14l30.261,0c-3.701,1.799 -6.27,5.669 -6.27,10.14l0,52.44c0,4.861 1.514,9.162 3.689,11.091c-5.551,2.137 -14.465,14.479 -32.319,14.479" style="fill:#d22229;"/><path d="M351.022,228.252l6.698,0l14.531,39.63c1.225,4.209 -0.026,8.353 -3.727,10.165l27.653,0c-2.632,-2.202 -5.291,-7.037 -7.167,-11.781l-15.313,-40.882c10.804,-5.082 18.285,-16.081 18.285,-28.8c0,-17.554 -10.778,-33.01 -32.06,-31.798l-31.824,-0.014c3.715,1.799 6.281,5.67 6.281,10.166l0,92.944c0,4.483 -2.58,8.353 -6.281,10.165l28.919,-0.026c-3.715,-1.798 -5.995,-5.696 -5.995,-10.191l0,-39.578Zm-0.014,-14.088l0,-36.15l8.432,0c8.198,0 14.792,4.742 14.792,18.127c0,11.168 -6.594,18.023 -14.792,18.023l-8.432,0Z" style="fill:#d22229;"/><path d="M425.982,178.014c10.282,0 18.597,13.422 18.597,43.408c0,29.987 -8.315,43.411 -18.597,43.411l-7.819,0l0,-86.819l7.819,0Zm-0.222,100.033c20.253,0 36.947,-20.616 36.947,-56.859c0,-36.216 -16.578,-56.402 -36.843,-56.402l-30.716,-0.014c3.701,1.799 6.255,5.67 6.255,10.166l0,92.944c0,4.887 -1.395,7.533 -3.662,10.191c3.258,-0.026 28.019,-0.026 28.019,-0.026" style="fill:#d22229;"/><path d="M639.941,205.94c8.655,9.032 26.652,24.526 26.652,44.778c0,16.304 -12.616,29.532 -26.977,29.532c-7.389,0 -10.803,-2.868 -18.089,-2.868c-2.463,0 -4.588,0.521 -6.372,1.368l0.039,-29.139c0,0 6.451,12.471 16.408,15.769c8.404,2.802 18.14,-2.307 18.14,-13.762c0,-12.133 -16.551,-26.65 -18.727,-28.88c-8.796,-9.031 -17.074,-18.961 -17.074,-31.954c0,-15.508 11.639,-28.084 26,-28.084c7.376,0 7.82,2.202 12.836,2.202c2.452,0 4.706,-0.52 6.465,-1.355l-0.026,24.371c0,0 -8.472,-11.013 -16.524,-11.013c-6.62,0 -12.003,5.526 -12.003,12.329c0,7.962 6.36,13.462 9.252,16.706" style="fill:#d22229;"/><path d="M576.658,164.772c3.689,1.799 6.256,5.67 6.256,10.166l0,50.226l-17.397,-50.226c-1.877,-4.757 -2.099,-7.728 0.651,-10.166l-26.208,0c3.715,1.799 6.269,5.67 6.269,10.166l0,92.958c0,4.482 -2.581,8.392 -6.294,10.19l26.95,0c-3.701,-1.798 -5.995,-5.708 -5.995,-10.19l0,-60.248l20.487,59.83c0.352,0.951 0.663,2.058 0.663,3.141c0,3.18 -1.536,5.943 -4.079,7.467l25.595,0c-3.713,-1.798 -5.981,-5.708 -5.981,-10.19l0,-92.958c0,-4.496 2.671,-8.367 6.37,-10.166l-27.287,0Z" style="fill:#d22229;"/><path d="M620.602,157.879c0,8.34 -6.776,15.104 -15.118,15.104c3.037,-2.151 5.605,-5.044 6.856,-8.614c-4.326,0 -7.39,-3.376 -7.39,-7.689c0,-4.341 3.519,-7.833 7.821,-7.833c4.326,0 8.039,3.089 7.831,9.032" style="fill:#d22229;"/><path d="M190.271,397.498l10.048,0c2.619,0 4.379,-1.211 5.239,-2.957l-0.026,11.26l-26.534,0c1.734,-0.848 2.946,-2.605 2.946,-5.215l0,-41.141c0,-2.606 -1.185,-4.367 -2.946,-5.213l14.232,0c-1.76,0.846 -2.959,2.607 -2.959,5.213l0,38.053Z" style="fill:#d22229;"/><path d="M226.918,399.14c-5.135,0 -9.28,-8.678 -9.28,-19.379c0,-10.712 4.145,-19.378 9.28,-19.378c5.135,0 9.278,8.666 9.278,19.378c0,10.701 -4.143,19.379 -9.278,19.379m-0.092,-46.979c-10.804,0 -18.023,11.886 -18.023,27.6c0,15.692 7.219,27.604 18.023,27.604c10.83,0 18.337,-12.043 18.219,-27.604c0.118,-15.662 -7.389,-27.6 -18.219,-27.6" style="fill:#d22229;"/><path d="M355.752,399.14c-5.134,0 -9.266,-8.678 -9.266,-19.379c0,-10.712 4.132,-19.378 9.266,-19.378c5.135,0 9.278,8.666 9.278,19.378c0,10.701 -4.143,19.379 -9.278,19.379m-0.091,-46.979c-10.817,0 -18.036,11.886 -18.036,27.6c0,15.692 7.219,27.604 18.036,27.604c10.843,0 18.322,-12.043 18.218,-27.604c0.104,-15.662 -7.375,-27.6 -18.218,-27.6" style="fill:#d22229;"/><path d="M261.139,370.157l0,30.429c0,2.61 1.187,4.367 2.932,5.215l-13.709,0c1.733,-0.848 2.945,-2.605 2.945,-5.215l0,-41.141c0,-2.606 -1.185,-4.367 -2.945,-5.213l16.133,0c-2.683,1.291 -1.224,4.6 -1.224,4.6l10.699,23.093l0,-22.48c0,-2.606 -1.212,-4.367 -2.958,-5.213l13.696,0c-1.746,0.846 -2.946,2.607 -2.946,5.213l0,41.141c0,2.61 1.2,4.367 2.946,5.215l-12.485,0c2.712,-1.303 1.213,-4.602 1.213,-4.602l-14.297,-31.042Z" style="fill:#d22229;"/><path d="M637.582,369.948l0,30.444c0,2.606 1.213,4.365 2.946,5.211l-13.723,0c1.759,-0.846 2.972,-2.605 2.972,-5.211l0,-41.142c0,-2.631 -1.213,-4.393 -2.959,-5.227l16.121,0c-2.672,1.291 -1.187,4.603 -1.187,4.603l10.687,23.102l0,-22.478c0,-2.631 -1.212,-4.393 -2.972,-5.227l13.711,0c-1.746,0.834 -2.957,2.596 -2.957,5.227l0,41.142c0,2.606 1.211,4.365 2.957,5.211l-12.496,0c2.696,-1.301 1.223,-4.625 1.223,-4.625l-14.323,-31.03Z" style="fill:#d22229;"/><path d="M389.949,370.157l0,30.429c0,2.61 1.211,4.367 2.958,5.215l-13.71,0c1.734,-0.848 2.959,-2.605 2.959,-5.215l0,-41.141c0,-2.606 -1.2,-4.367 -2.959,-5.213l16.134,0c-2.672,1.291 -1.212,4.6 -1.212,4.6l10.686,23.093l0,-22.48c0,-2.606 -1.212,-4.367 -2.958,-5.213l13.696,0c-1.732,0.846 -2.945,2.607 -2.945,5.213l0,41.141c0,2.61 1.213,4.367 2.945,5.215l-12.484,0c2.684,-1.303 1.225,-4.602 1.225,-4.602l-14.335,-31.042Z" style="fill:#d22229;"/><path d="M607.896,359.183c0,-2.606 -1.211,-4.363 -2.958,-5.212l14.244,0c-1.76,0.849 -2.918,2.606 -2.918,5.212l0,41.168c0,2.647 1.158,4.34 2.918,5.189l-14.244,0c1.747,-0.849 2.931,-2.607 2.931,-5.226l0.027,-41.131Z" style="fill:#d22229;"/><path d="M593.926,352.513l0.873,15.467c-3.83,-5.668 -9.188,-8.012 -11.82,-7.597c-5.123,0 -9.278,8.681 -9.278,19.393c0,10.7 4.155,19.39 9.278,19.39c1.355,0 3.089,-0.573 4.25,-1.653l0,-16.006c0,-2.618 -1.214,-4.377 -2.947,-5.223l14.218,0c-1.746,0.846 -2.945,2.605 -2.945,5.223l0,14.883c0,2.387 0.34,4.447 1.72,5.437c-1.173,0.35 -2.164,1.013 -3.089,1.72c-2.737,2.435 -7.61,3.833 -11.272,3.833c-10.83,0 -18.062,-11.912 -18.062,-27.604c0,-15.718 7.232,-27.604 18.062,-27.604c1.694,0 3.322,0.3 4.822,0.849c0.769,0.299 1.668,0.531 2.646,0.531c1.407,0 2.698,-0.478 3.544,-1.039" style="fill:#d22229;"/><path d="M452.124,398.332l-5.03,0l0,-37.037l5.056,0c5.356,0 9.683,7.235 9.683,18.507c0,11.299 -4.366,18.53 -9.709,18.53m0.743,7.271c10.073,0 18.258,-10.098 18.258,-25.801c0,-15.676 -8.185,-25.779 -18.258,-25.779l-17.033,0c1.76,0.834 2.959,2.596 2.959,5.227l0,41.142c0,2.606 -1.238,4.365 -2.985,5.211l17.059,0Z" style="fill:#d22229;"/><path d="M310.7,398.527l-5.016,0l0,-37.023l5.068,0c5.344,0 9.67,7.22 9.67,18.504c0,11.299 -4.365,18.519 -9.722,18.519m0.73,7.274c10.1,0 18.298,-10.075 18.298,-25.793c0,-15.688 -8.198,-25.776 -18.298,-25.776l-17.007,0c1.761,0.846 2.946,2.607 2.946,5.213l0,41.141c0,2.61 -1.224,4.367 -2.973,5.215l17.034,0Z" style="fill:#d22229;"/><path d="M491.325,377.076l-4.548,0l0,-16.693l4.548,0c3.689,0 6.671,2.49 6.671,8.341c0,5.93 -2.982,8.352 -6.671,8.352m3.413,28.464l13.776,0c-1.746,-0.849 -2.854,-2.15 -4.131,-5.226l-6.334,-17.869c5.356,-1.809 9.07,-6.135 9.07,-13.668c0,-10.272 -6.997,-14.791 -15.624,-14.791l-15.495,-0.015c1.76,0.849 2.944,2.606 2.944,5.212l0,41.131c0,2.631 -1.184,4.377 -2.944,5.226l13.721,0c-1.758,-0.849 -2.944,-2.595 -2.944,-5.226l0,-16.825l3.896,0l5.292,17.449c0,0 1.471,3.297 -1.227,4.602" style="fill:#d22229;"/><path d="M529.273,373.664l6.307,-14.481c1.161,-2.734 0.614,-4.363 -1.144,-5.212l15.702,0c-1.759,0.849 -3.27,1.604 -5.186,5.892l-11.534,24.93l0,15.521c0,2.619 1.213,4.377 2.973,5.226l-14.246,0c1.759,-0.849 2.947,-2.607 2.947,-5.226l0.012,-15.521l-11.481,-24.93c-1.902,-4.288 -3.441,-5.043 -5.201,-5.892l15.705,0c-1.746,0.849 -2.307,2.478 -1.148,5.212l6.294,14.481Z" style="fill:#d22229;"/><path d="M424.913,320.4c-0.755,2.27 -0.6,5.448 1.083,7.402c2.201,2.646 5.264,4.159 8.86,3.532c2.556,-0.456 4.965,-1.602 6.582,-3.791l0.443,0l3.871,4.523l0,0.43c-4.066,2.07 -8.055,4.692 -12.799,4.729c-5.224,0.221 -10.633,-1.94 -13.643,-6.696c-2.763,-4.576 -2.306,-10.988 1.003,-15.157c1.643,-1.995 3.427,-3.05 5.355,-4.106c2.698,-1.225 5.293,-1.693 8.512,-1.524c4.43,0.262 6.58,2.267 10.673,3.035c0.899,0.016 -0.678,1.421 -1.134,2.099c-1.03,1.483 -2.88,4.444 -3.714,3.779c-1.237,-2.958 -5.058,-3.948 -8.484,-3.556c-2.672,0.572 -5.708,2.528 -6.608,5.301" style="fill:#f3c727;"/><path d="M456.659,313.623c0,-1.717 -0.886,-1.758 -0.886,-2.592l0.209,-0.209l7.454,0c0.196,0 0.938,-0.105 0.938,0.498c0,0.414 -1.017,0.56 -1.017,2.669l0,19.314c0.027,1.982 2.321,3.622 0.731,3.622l-8.535,0c-1.28,0 1.106,-1.015 1.106,-3.622l0,-19.68Z" style="fill:#f3c727;"/><path d="M476.795,333.277l-0.992,1.929c-0.573,1.145 -1.785,1.719 -0.729,1.719l7.871,0c0.991,0 -0.509,-1.068 -0.312,-1.98c0.377,-2.555 0.742,-2.92 1.537,-4.338l9.462,0c0.781,1.249 1.134,2.748 1.394,4.222c0.221,1.053 -1.055,2.096 0.078,2.096l8.888,0.012l0.156,-0.363c-0.235,-0.52 -0.794,-0.404 -1.341,-1.33c-3.194,-6.737 -5.526,-13.8 -8.276,-20.655c-0.301,-1.003 -0.808,-2.137 -0.052,-2.998c0.234,-0.339 0.039,-0.744 -0.416,-0.769l-9.762,0.025l-0.313,0.184c0.313,1.211 0.285,2.424 -0.04,3.623l-7.153,18.623Zm11.911,-15.845l0.286,0c1.172,2.759 3.258,8.196 2.828,8.181c-0.429,0 -5.447,0.015 -5.929,0c-0.469,0 1.68,-5.575 2.815,-8.181" style="fill:#f3c727;"/><path d="M531.663,331.825c1.091,-0.14 2.139,-0.377 3.103,-0.822l0.182,0.209c0,0 0.392,6.751 0,6.778c-0.377,0.029 -22.3,-0.013 -22.3,-0.013c-0.084,-0.81 1.063,-0.825 1.063,-3.886l0,-20.72c0,0 0,-1.721 -1.077,-2.809c-0.418,-0.349 -0.098,-0.562 -0.098,-0.562l9.903,0c0.21,0.045 0.658,0.282 0.029,0.674c-0.589,0.39 -1.571,1.566 -1.529,2.697l0,18.119l0.224,0.335l10.5,0Z"/><path d="M534.412,334.305c1.091,-0.14 2.124,-0.36 3.088,-0.805l0.197,0.192c0,0 0.393,6.751 0,6.778c-0.376,0.029 -22.299,-0.013 -22.299,-0.013c-0.084,-0.81 1.063,-0.825 1.063,-3.886l0,-20.72c0,0 0,-1.721 -1.077,-2.809c-0.419,-0.349 -0.098,-0.562 -0.098,-0.562l9.662,0c0.211,0.045 0.658,0.282 0.029,0.674c-0.589,0.39 -1.331,1.566 -1.289,2.697l0,18.119l0.224,0.335l10.5,0Z"/><path d="M531.633,331.191c1.017,-0.131 1.994,-0.352 2.893,-0.767l0.169,0.195c0,0 0.366,6.293 0,6.318c-0.351,0.027 -20.786,-0.012 -20.786,-0.012c-0.078,-0.755 0.991,-0.769 0.991,-3.622l0,-19.314c0,0 0,-1.604 -1.004,-2.618c-0.39,-0.325 -0.091,-0.524 -0.091,-0.524l8.783,0c0.196,0.042 0.613,0.263 0.027,0.628c-0.549,0.364 -1.017,1.46 -0.978,2.514l0,16.889l0.209,0.313l9.787,0Z" style="fill:#f3c727;"/><path d="M387.732,313.989c0,-0.169 -0.077,-0.887 -0.169,-1.054c-0.299,-1.253 -1.942,-2.088 -1.016,-2.088l20.525,0l0.222,0.431c0,6.27 0.144,5.593 -0.274,5.593c-0.833,-0.34 -1.928,-0.758 -2.697,-0.758c-0.287,0.078 -9.578,-0.026 -9.984,0c-0.312,0.041 -0.624,0.131 -0.741,0.508l0,4.588l0.482,0.392c2.645,-0.015 7.468,0 7.468,0c1.693,0 1.576,-0.599 2.292,-0.599l0.391,0.521l0,4.796c0,0.688 -0.573,-0.198 -2.006,-0.198l-7.677,0c-0.235,0 -0.95,0 -0.95,0.43l0,4.64c0,0 -0.222,0.496 1.798,0.496l9.097,0c0.925,0 1.16,-0.103 1.55,-0.481c0.56,-0.509 0.325,-0.523 1.029,-0.431l0.17,0.326l0,5.395l-0.469,0.429l-19.926,0c-0.861,-0.507 0.769,-0.755 0.769,-1.992c0.066,-0.459 0.116,-1.357 0.116,-1.63l0,-19.314Z" style="fill:#f3c727;"/><path d="M369.592,321.002c-0.482,1.447 -1.303,2.121 -2.606,2.109c-6.725,-0.012 -6.802,0.027 -6.802,-0.938l0,-5.63c0,-0.625 6.32,-0.536 6.657,-0.43c0.966,0.234 1.578,0.522 2.06,1.057c0.862,1.014 0.951,2.502 0.691,3.832m5.239,-7.547c-1.355,-1.549 -3.27,-2.608 -5.134,-2.608l-16.812,0c-1.068,0 0.652,0.744 0.652,2.711l0,20.437c0,1.63 -1.772,2.93 -0.391,2.93l6.632,0c0.6,0 1.33,0.237 1.252,-0.443c-0.691,-0.884 -0.977,-1.982 -0.977,-3.168l0,-4.404l0.234,-0.236l7.793,0c1.512,-0.037 2.973,-0.336 4.458,-0.897c2.11,-0.793 3.544,-3.01 4.196,-5.018c0.951,-3.207 0.416,-6.92 -1.903,-9.304" style="fill:#f3c727;"/><path d="M319.993,329.355c1.081,-0.588 -0.131,0.665 2.358,1.992c2.945,1.956 6.933,2.308 10.374,1.279c0.938,-0.326 2.032,-0.927 2.411,-1.929c0.221,-0.756 0.104,-1.577 -0.3,-2.19c-0.848,-1.044 -2.072,-1.173 -3.284,-1.394c-5.384,-0.289 -12.003,0.324 -14.167,-5.565c-0.845,-2.905 0.77,-6.931 3.832,-8.98c4.653,-3.05 11.508,-2.438 16.525,-0.65c1.094,0.31 2.371,0.324 3.518,0.456c0.17,0.116 0.092,0.352 0.118,0.534l-4.001,4.73c-1.082,0.666 -0.651,-0.561 -1.564,-0.95c-2.36,-1.735 -5.996,-2.28 -8.81,-1.134c-0.872,0.428 -1.955,0.937 -2.293,1.927c-0.442,1.122 0.155,2.138 1.094,2.737c5.304,2.1 14.427,-0.834 16.447,6.815c0.3,2.961 -0.651,5.642 -2.606,7.754c-4.509,3.963 -11.937,4.133 -17.464,1.982c-6.385,-2.437 -6.894,-1.043 -6.203,-2.37l4.015,-5.044Z" style="fill:#f3c727;"/></g></svg>