<?xml version="1.0" encoding="UTF-8" standalone="no"?><!DOCTYPE svg PUBLIC "-//W3C//DTD SVG 1.1//EN" "http://www.w3.org/Graphics/SVG/1.1/DTD/svg11.dtd"><svg width="100%" height="100%" viewBox="0 0 4945 3570" version="1.1" xmlns="http://www.w3.org/2000/svg" xmlns:xlink="http://www.w3.org/1999/xlink" xml:space="preserve" xmlns:serif="http://www.serif.com/" style="fill-rule:evenodd;clip-rule:evenodd;stroke-linejoin:round;stroke-miterlimit:1.41421;"><g><rect x="0" y="0.751" width="4944.42" height="3569.25" style="fill:#030404;fill-rule:nonzero;"/><path d="M3378.12,2556.69c-18.37,25.93 -38.8,20.35 -48.54,14.67c-9.75,-5.57 -41.04,-28.17 -41.04,-28.17l-42.08,46.17l-62.03,18c0,0 9.74,24.85 9.74,57.52c0,32.59 0,495.91 0,495.91l32.28,0c0,-37.79 27.6,-44.58 50.27,-44.58c0,-32.46 0,-434.77 0,-489.8c0.48,0.59 1.23,1.36 2.31,2.19c0.11,0.08 0.21,0.17 0.33,0.25c0.38,0.28 0.8,0.56 1.26,0.85c13.45,8.16 58.35,15.64 81.37,-15.89c29.37,-40.2 33.41,-44.92 33.41,-44.92l-17.28,-12.2Z" style="fill:#f04b24;fill-rule:nonzero;"/><path d="M1494.57,2562.27l-38.89,-14.58l-17.24,60.76l11.9,4.59l44.23,-50.77Z" style="fill:#f04b24;fill-rule:nonzero;"/><path d="M1568.98,2562.27l-38.81,-14.58l-17.32,60.76l11.89,4.59l44.24,-50.77Z" style="fill:#f04b24;fill-rule:nonzero;"/><path d="M1411.62,2699.79c0,0 66.77,20.01 87.61,26.01c-18.75,15.04 -83.44,21.04 -87.61,-26.01Zm64.58,246.79l-31.29,56.26l-31.3,-13.5l0,-207.21l62.59,-30.22l0,194.67Zm82,-242.12c0,-9 3.19,-16.92 9.74,-24.84l-134.93,-51.76l-41.99,47.25l-62.6,32.68c0,0 26.99,45.09 56.04,52.92c-15.09,5.68 -58.19,25.93 -58.19,25.93c0,0 9.66,15.75 9.66,25.92c0,10.08 0,203.78 0,212.88c0,8.99 3.27,13.49 -4.32,25.83l97.09,22.59l55.09,-98.03l0,47.35l-7.59,30.33l72.25,20.35l38.89,-63.1l-29.14,-11.25c0,0 0,-286.05 0,-295.05Z" style="fill:#f04b24;fill-rule:nonzero;"/><path d="M1983.26,2723.5l55.25,62.41l-0.73,1.39l-54.52,100.03l0,-163.83Zm79.84,281.59l-78.8,-23.58l0,-51.84l112.17,-199.38l-101.4,-104.68l-45.26,56.26l-56.69,15.84c0,0 9.74,14.66 9.74,33.75c0,19.17 0,238.79 0,265.79c0,27.1 -8.62,39.43 -8.62,39.43l153.68,39.43l52.94,-87.85l-28.34,-9.21l-9.42,26.04Z" style="fill:#f04b24;fill-rule:nonzero;"/><path d="M2754.58,2702.21c0,-22.59 12.93,-41.68 12.93,-41.68l-103.55,-36.09l-62.6,122.77c0,0 0,-56.34 0,-64.17c0,-7.93 4.32,-22.51 4.32,-22.51l-98.12,-38.34l-65.87,118.27c0,0 0,-42.75 0,-58.59c0,-15.75 6.46,-28.09 6.46,-28.09l-80.87,-31.59l-39.92,60.85l33.45,15.75c0,0 0,260.13 0,295.05c0,34.92 -7.58,57.43 -7.58,57.43l78.8,19.17l33.46,-59.68l-22.68,-9l0,-224.12c0,0 31.3,-47.96 44.23,-71.64c11.9,2.25 23.71,7.92 35.61,12.42c0,21.33 0,233.74 0,277.67c0,43.92 -8.63,55.18 -8.63,55.18l79.84,20.33l35.62,-64.26l-26.99,-10.08l0,-215.13l47.42,-77.21l28.11,7.83c0,0 0,258.58 0,287.84c0,29.34 -8.71,47.34 -8.71,47.34l86.3,22.51l32.42,-61.93l-33.45,-11.25c0,0 0,-272.55 0,-295.05Z" style="fill:#f04b24;fill-rule:nonzero;"/><path d="M3133.26,2686.37c0,-16.84 10.78,-31.51 10.78,-31.51l-80.97,-30.42l-39.92,63.1l34.58,15.75c0,0 0,259.04 0,287.22c0,28.17 -10.78,56.25 -10.78,56.25l86.31,22.6l33.44,-59.78l-33.44,-14.57c0,0 0,-291.72 0,-308.64Z" style="fill:#f04b24;fill-rule:nonzero;"/><path d="M3148.34,2556.69l-39.92,-13.5l-17.24,63l12.93,5.68l44.23,-55.18Z" style="fill:#f04b24;fill-rule:nonzero;"/><path d="M3473.06,2693.06l32.32,-61.93l-76.56,0l0,-70.07l-49.39,73.66l-48.72,47.82l-9.75,9.33l5.38,0.11l28.07,0c0,0 0,256.85 0,298.53c0,41.67 -10.78,55.17 -10.78,55.17l86.31,23.68l37.68,-60.85l-37.68,-18l0,-297.45l43.12,0Z" style="fill:#f04b24;fill-rule:nonzero;"/><path d="M1768.57,2784.39c0,20.25 0,130.6 0,130.6l-43.19,85.6l-28.02,-7.83l0,-288.31l80.47,27.39l-20.03,18.79c0,0 10.77,13.5 10.77,33.76Zm-1.12,293.17c-21.82,-8.96 -41.06,-13.05 -58,-13.61l58,-108.37c0,0 0,71.31 0,121.98Zm-93.36,-407.21l-39.86,20.23l-21.19,9.8c0,0 5.6,16.41 5.6,31.08c0,14.67 0,251.12 0,274.8c0,23.67 -8.71,34.92 -8.71,34.92l78.59,23.94c-61.24,9.34 -84.92,66.59 -88.94,84.98l17.95,6.36c15.01,-50.44 103.71,-24.19 132.85,-3.85c14.05,-13.6 43.06,-47.24 43.06,-47.24l53.85,-15.48c0,0 0,-377.94 0,-390.36c0,-12.42 7.59,-20.25 7.59,-20.25l-146.75,-50.34l-34.04,41.41Z" style="fill:#f04b24;fill-rule:nonzero;"/><path d="M2238.5,2847.11l19.14,16.82c6.84,-3.91 12.69,-8.44 17.72,-13.45l0,0.04c0,0 0.42,-0.41 1.16,-1.21c2.14,-2.22 4.12,-4.55 5.94,-6.95c0.06,-0.08 0.12,-0.16 0.18,-0.23c0.15,-0.2 0.31,-0.39 0.45,-0.59c12.75,-16.33 35.76,-53.36 24.94,-97.41c0,0 -7.72,-29.93 -28.21,-114.93l-22.18,0.07l-53.23,98.5c0,0 0,-35.73 0,-52.66c0,-16.83 5.35,-25.91 5.35,-25.91l-70.1,-25.84l-42.07,64.18l-1.37,2.02l-1.14,1.9l32.69,15.05c0,0 0,279.5 0,300.83c0,21.42 -5.35,34.93 -5.35,34.93l114.32,29.33l48.54,-84.51l-27.64,-12.54l-5.8,29.46l-46.39,-14.67l0,-220.7l28.49,-51.87c0,0 10.02,36.36 22.05,78.09c10.26,35.63 -17.49,52.25 -17.49,52.25Z" style="fill:#f04b24;fill-rule:nonzero;"/><path d="M1063.94,2536.29l-22.8,0l0.37,138.88l23.92,-57.45l84.35,0c0,0 28.69,0.61 83.73,-21.45l-13.02,11.56c-19.05,15.9 -30.53,24.96 -44.16,29.6c2.16,3.43 3.19,10.18 3.19,16.93c0,6.76 0,78.26 0,78.26l-62.52,0l-0.01,-13.94l-23.78,0l0,114.1l22.54,-52.63l65.93,0l0,304.53c0,0 -106.34,-130.82 -112.21,-138.79c-5.4,-7.33 -20.12,-22.39 -16.41,-37.32l-3.91,-0.06c-28.03,43.94 -37.93,95.98 -10.941,132.09c26.991,36.02 104.671,128.14 104.671,128.14l70.1,-55.2l62.59,-22.03c0,0 0,-454.6 0,-478.29c0,-23.68 17.21,-44.34 33.42,-44.34l0,-16.52l-244.88,0l-0.17,-16.07Z" style="fill:#f04b24;fill-rule:nonzero;"/><path d="M2901.98,2723.5l55.25,62.41l-0.73,1.39l-54.52,100.03l0,-163.83Zm79.84,281.59l-78.8,-23.58l0,-51.84l112.17,-199.38l-101.39,-104.68l-45.27,56.26l-56.69,15.84c0,0 9.74,14.66 9.74,33.75c0,19.17 0,238.79 0,265.79c0,27.1 -8.62,39.43 -8.62,39.43l153.69,39.43l52.94,-87.85l-28.35,-9.21l-9.42,26.04Z" style="fill:#f04b24;fill-rule:nonzero;"/><path d="M3594.5,2724.63l55.25,62.4l-0.73,1.39l-54.52,100.04l0,-163.83Zm79.84,281.58l-78.8,-23.58l0,-51.84l112.17,-199.37l-101.39,-104.69l-45.27,56.26l-56.69,15.84c0,0 9.74,14.67 9.74,33.75c0,19.17 0,238.8 0,265.8c0,27.09 -8.62,39.42 -8.62,39.42l153.69,39.43l52.94,-87.85l-28.35,-9.21l-9.42,26.04Z" style="fill:#f04b24;fill-rule:nonzero;"/><path d="M3863.08,3005.13l-46.39,-14.67l0,-220.7l28.49,-51.86c0,0 10.02,36.36 22.05,78.09c10.27,35.62 -17.49,52.24 -17.49,52.24l19.14,16.82c6.84,-3.91 12.69,-8.44 17.72,-13.45l0,0.05c0,0 0.42,-0.42 1.16,-1.21c2.14,-2.23 4.12,-4.55 5.94,-6.96c0.06,-0.07 0.12,-0.15 0.19,-0.23c0.14,-0.19 0.3,-0.38 0.45,-0.58c12.75,-16.34 35.75,-53.36 24.93,-97.41c0,0 -7.71,-29.94 -28.21,-114.93l-22.18,0.07l-53.23,98.49c0,0 0,-35.73 0,-52.65c0,-16.83 5.35,-25.92 5.35,-25.92l-70.09,-25.84l-42.08,64.18l-1.37,2.02l-1.14,1.9l32.69,15.06c0,0 0,279.49 0,300.82c0,21.43 -5.35,34.93 -5.35,34.93l114.33,29.34l48.54,-84.52l-27.65,-12.53l-5.8,29.45Z" style="fill:#f04b24;fill-rule:nonzero;"/><path d="M2673.19,1606.45c15.23,-6.11 26.85,-18.81 39.03,-29.82c29.99,-27.12 64.74,-42.46 105.11,-46.39c14.11,-1.38 28.12,-5.8 41.69,-10.3c11.19,-3.71 14.12,-2.28 13.13,10.34c-2.93,37.32 -23.67,62.07 -53.76,80.94c-14.78,9.27 -30.86,15.55 -48.4,19.78c33.01,-19.41 59.16,-44.79 74.31,-81.96c-18.81,4.42 -36.18,8.53 -53.56,12.57c-7.97,1.85 -13.08,6.38 -17.24,13.74c-19.86,35.14 -44.23,65.84 -84.77,79c3.84,9.34 13.31,10.38 20.02,17.1c-2.58,1.08 -4.14,1.9 -5.8,2.39c-26.4,7.85 -31.53,5.29 -40.15,-20.25c-1.47,-4.36 -2.3,-8.93 -3.7,-13.32c-4.86,-15.27 -3.7,-26.68 14.09,-33.82Zm-20.98,-73.43c-6.36,-11.57 -15.12,-18.25 -29.88,-21.25c55.07,-20.03 61.01,-71.03 81.57,-111.54c2.68,8.27 3.29,17.17 0.9,26.67c-2.35,9.34 -5.27,18.54 -8.61,30.12c32.94,-6.32 63.29,-14.76 90.32,-31.79c26.78,-16.88 45.1,-42.34 63.41,-67.69c-4.96,25.76 -18.42,47.17 -35.75,68.98c54.53,-10.24 100.51,-32.63 144.95,-65.17c-15.01,24.39 -63.6,58.72 -98.02,70.27c-40.29,13.52 -81.69,24.33 -120.78,40.69c-32.29,13.52 -64.6,29.5 -88.11,60.71Zm-16.1,199.31c-1.68,1.34 -3.47,2.49 -5.53,1.2c-10.17,-6.38 -10.14,-6.4 -22.41,-2.76c-1.92,0.57 -3.9,0.96 -5.66,1.39c-0.65,5.18 8.14,4.06 5.99,8.95c-1.67,3.78 -6.47,2.3 -9.85,2.07c-11.43,-0.77 -23.16,-6.29 -33.81,3.17c-0.98,0.87 -5.58,-0.41 -6.66,-1.97c-2.51,-3.62 -0.18,-7.95 2.96,-9.03c10.24,-3.52 12.11,-12.37 15.99,-20.73c14.24,-30.71 41.63,-37.46 69.63,-18.14c2.59,1.78 3.23,3.51 3.12,6.14c-0.47,11.81 -4.25,22.08 -13.77,29.71Zm-85.89,-54.71c-16.64,10.18 -23.58,27.63 -32.66,43.36c-6.44,-3.04 -5.41,-10.06 -10.3,-14.9c-17.57,16.4 -25.24,38.41 -35.03,61.38c-9.77,-23.27 -18.29,-45.17 -35.69,-62.45c-3.67,5.29 -3.46,11.54 -9.04,15.88c-10.42,-14.38 -17.86,-31.36 -33.27,-42.17c-4.98,6.72 -0.95,15.48 -8.41,21.21c-18.54,-30.31 -42.55,-51.79 -82.14,-45.21c11.57,-19.97 39.41,-29.1 79.05,-17.17c-8.55,-13.71 -27.42,-23.81 -50.32,-24c-14.54,-0.11 -15.13,-5.83 -11,-16.84c4.37,-11.65 11.93,-20.69 25.05,-29.67c-15.01,1.59 -22.35,10.02 -31.3,16.09c-4.62,-43.4 28.08,-55.73 87.05,-34.03c2.97,-5.45 -5.69,-6.86 -4.26,-11.82c22.5,0.58 39.25,12.73 53.61,38.85c3.53,-7.13 -1.99,-16.51 -1.91,-23.39c1.21,-0.26 3.18,1.87 3.41,2.18c9.58,12.75 19.45,2.09 29.15,0.38c5.95,-1.04 11.85,-2.32 18.68,-3.68c-0.35,9.45 -7.24,16.87 -3.61,27.42c17.44,-26.94 37.98,-47.85 74.96,-45.21c-6.57,7.31 -14.61,8.88 -17.85,17.91c18.36,-8.38 35.72,-7.6 53.76,-4.17c12.19,2.33 17.63,9.11 20.31,19.85c2,7.99 3.47,16.03 3.07,24.39c-0.95,19.91 -2.09,20.88 -21.9,22c-19.1,1.08 -35.49,8.46 -51.75,25.13c32.27,-10.23 59.97,-11.26 87.22,15.95c-43.23,-6.83 -67.81,14.19 -86.65,46.06c-6.45,-7.75 -4.19,-16.28 -8.23,-23.33Zm-114.84,219.01c17.11,-13.3 45.09,-13.72 67.78,-0.24c-23.33,8.48 -45.58,8 -67.78,0.24Zm-50.01,-152.95c-1.39,3.18 -6.35,4.42 -7.92,2.83c-10.5,-10.64 -22.26,-3.59 -33.55,-3.34c-3.35,0.08 -7.93,1.82 -9.75,-2.3c-2.17,-4.92 7.1,-2.5 4.69,-8.77c-6.55,-2.24 -13.77,-4.73 -21.01,-7.19c-2.19,-0.74 -5.43,-3.01 -5.67,1.41c-0.96,17.52 -8.03,2.99 -9.74,1.25c-4.63,-4.73 -6.66,-11.15 -8.49,-17.73c-2.75,-9.96 2.15,-12.5 10.16,-16.42c28.04,-13.7 49.65,-6.8 62.19,21.94c3.47,7.94 5.08,16.49 15.07,19.59c2.85,0.89 5.7,4.87 4.02,8.73Zm-97.62,-215.56c-37.82,-42.75 -89.5,-59.22 -141.68,-75.05c-23.51,-7.13 -46.42,-16.19 -69.82,-23.72c-38.07,-12.26 -64.71,-40.35 -92.76,-66.84c44.51,29.53 90.85,54.39 145.8,63.4c-12.81,-18.34 -25.61,-35.46 -30.59,-57.53c36.91,50.98 87.08,78.66 149.86,87.89c-7.07,-19.86 -10.85,-39.11 -9.63,-59.53c9.79,21.52 17.53,43.84 28.67,64.71c11.73,21.97 25.25,41.22 52.34,48.18c-9.13,6.59 -19.7,8.39 -24.27,18c-2.28,4.78 -4.74,4.09 -7.92,0.49Zm-5.46,119.91c-8.2,31.76 -17.36,36.04 -51.53,23.19c7.27,-6.02 15.15,-8.14 20.53,-15.61c-3.98,-2.25 -7.59,-4.68 -11.5,-6.43c-31.34,-14.05 -53.52,-37.69 -69.76,-67.24c-6.45,-11.72 -13.55,-20.21 -28.47,-21.98c-15.04,-1.8 -29.65,-7.24 -47.76,-11.94c11.05,19.59 19.76,37.09 33.2,51.62c13.51,14.61 30.85,24.58 49.14,38.35c-49.67,-12.8 -81.961,-43.05 -106.12,-82.51c-5.19,-8.48 -3.95,-20.94 -5.5,-31.59c-0.76,-5.2 2.879,-6.84 6.639,-5.41c41.081,15.62 87.461,11.26 126.681,34.84c18.08,10.87 36.68,20.43 51.46,35.9c5.31,5.56 11.13,10.74 17.28,15.34c21.27,15.86 22.25,18.18 15.71,43.47Zm396.36,400.95c-17.28,-24.75 -26.04,-51.53 -20.02,-82.92c4.63,-24.08 7.46,-48.71 7.95,-73.47c0.55,-27.25 -1.85,-55.29 3.86,-81.5c5.74,-26.41 13.62,-50.85 7.24,-78.83c-4.91,-21.52 3.12,-28.19 24.86,-31.96c40.11,-6.94 79.3,-16.85 114.9,-37.58c4.74,-2.76 12.5,-4.98 11.65,-11.07c-2.22,-15.85 9.84,-22.26 18.01,-31.62c27.16,-31.13 45.76,-65.6 41.24,-108.84c-1.11,-10.64 -5.33,-13.85 -16.15,-10.18c-20.87,7.08 -41.91,14 -63.89,16.93c-34.66,4.61 -69.06,10.12 -101.87,22.96c-7.61,2.98 -15.5,5.43 -23.44,7.39c-4.2,1.04 -10.21,3.25 -12.7,-1.24c-2.24,-4.03 1.52,-8.8 4.49,-12.29c11.84,-13.96 26.91,-23.74 42.91,-32.17c34.12,-17.99 70.22,-31.16 106.54,-43.86c34.8,-12.17 70.17,-22.93 102.67,-41c52.81,-29.34 89.68,-72.1 113.32,-127.8c18.11,-42.69 32.62,-87.53 69.01,-120.48c34.51,-31.25 54.36,-71.8 64.92,-116.82c9.18,-39.17 16.69,-78.572 4.64,-118.579c-2.06,-6.831 -2.85,-15.007 -12.06,-18.463c-0.46,3.924 -0.95,6.95 -1.15,9.996c-3.63,55.4 -15.48,108.666 -42.34,157.746c-9.27,16.94 -19.75,33.38 -39.86,42.71c-1.4,-12.54 -0.59,-23.52 1.28,-34.55c6.95,-41.03 23.24,-80.01 27.39,-121.592c5.63,-56.31 -0.04,-110.816 -30.16,-160.462c-5.4,-8.896 -11.7,-17.53 -22.83,-20.925c-0.46,1.922 -1.05,2.97 -0.86,3.845c0.66,2.966 1.58,5.877 2.43,8.799c15.28,52.377 22.34,105.377 13.23,159.834c-7.96,47.591 -35.71,61.051 -76.52,36.489c-34.08,-20.519 -59.91,-49.915 -84.83,-80.119c-11.95,-14.487 -22.87,-29.823 -34.58,-45.187c-10.07,19.289 -5.9,41.571 10.79,60.029c26.92,29.775 53.6,59.75 78.38,91.359c41.52,52.98 66.62,110.9 54.12,180.09c-3.73,20.62 -8.68,40.82 -21.09,58.47c-2.19,-11.04 -2.81,-21.75 -3.56,-32.46c-2.41,-34.42 -6.81,-68.53 -18.54,-101.17c-6.18,-17.2 -13.44,-34.05 -30.15,-45.45c-0.35,2.72 -0.84,4.27 -0.68,5.74c0.29,2.53 1.12,5 1.48,7.52c8.6,60.54 18.9,120.9 13.98,182.54c-4.52,56.76 -50.49,110.63 -105.63,121.03c15.06,-38.59 22.48,-78.19 26.61,-118.47c4.12,-40.09 6.17,-80.23 4.49,-122.82c-13.88,8.53 -17.46,20.48 -21.42,31.86c-8.48,24.36 -10.19,50.17 -15.48,75.22c-13.76,65.24 -43.39,119.62 -104.02,152.76c-9.42,5.14 -18.98,10.93 -31.16,11.73c5.15,-21.96 7.95,-42.71 8.72,-63.78c2.24,-61.79 -4.3,-123.54 -0.45,-185.32c0.18,-2.83 1.42,-7.13 -2.52,-7.69c-2.36,-0.33 -5.62,2.06 -7.7,4.04c-9.73,9.21 -14,21.33 -17.02,33.94c-10.62,44.24 -8.46,89.97 -15.74,134.62c-9.22,56.59 -29.6,107.59 -72.43,147.7c-6.22,5.83 -12.62,9.57 -21.61,10.06c-34.54,1.91 -67.72,10.96 -100.31,21.77c-11.01,3.65 -20.44,3.07 -30.97,-0.44c-32.21,-10.72 -65.01,-19.14 -99.06,-21.14c-8.22,-0.48 -14.79,-3.41 -20.88,-8.46c-24.22,-20.1 -42.26,-44.37 -53.46,-74.12c-19.67,-52.26 -23.37,-107.06 -27.69,-161.84c-1.9,-24.11 -4.86,-48.02 -15.44,-70.18c-3.71,-7.75 -8.3,-15 -19.62,-16.42c6.72,86.36 -9.79,172.13 8.59,259.47c-10.93,-4.82 -19.03,-7.93 -26.71,-11.86c-62.23,-31.76 -92.91,-85.95 -107.52,-151.58c-6.12,-27.5 -7.92,-55.92 -17.69,-82.63c-3.82,-10.43 -7.83,-20.79 -21.07,-27.62c1.06,83.03 2.909,163.67 32.74,243.22c-52.12,-18.24 -89.02,-48.06 -102.14,-101.56c-11.68,-47.61 -4.01,-95.18 1.36,-142.66c2.78,-24.49 6.71,-48.86 10.64,-77.02c-28.56,25.06 -35.33,56.33 -42.06,87.14c-6.71,30.73 -7.73,62.36 -10.98,95.37c-13.45,-19.27 -22.46,-53.88 -24.09,-80.4c-3.39,-55.07 14.96,-102.73 47.07,-146.18c27.26,-36.876 57.93,-70.843 88.409,-105c17.431,-19.531 20.671,-39.382 10.621,-58.599c-4.391,0.581 -4.911,4.851 -6.861,7.561c-31.359,43.585 -64.739,85.334 -110.129,115.391c-39.76,26.327 -67.43,15.477 -78.22,-30.752c-9.29,-39.78 -6.38,-79.747 1.52,-119.378c3.84,-19.24 9.17,-38.184 14.27,-59.09c-12.66,5.258 -19.64,13.684 -25.1,22.811c-14.6,24.375 -24.11,50.706 -28.22,78.969c-7.53,51.871 -1.55,102.33 13.75,152.237c8.34,27.23 15.61,54.97 11.59,84.66c-63.64,-55.32 -73.64,-132.088 -81.91,-211.006c-10.32,7.503 -11.8,17.351 -13.85,26.477c-5.73,25.413 -4.61,50.951 -0.42,76.509c8.61,52.52 23.31,102.96 62.33,141.33c33.51,32.94 55.9,71.79 71.67,115.16c31.4,86.3 92.66,140.83 178.669,169.66c47.601,15.95 95.461,31.37 140.591,53.76c17.04,8.45 33.89,17.54 45.85,33.08c3.95,5.14 10.57,11.75 6.22,17.35c-4.4,5.68 -12.56,1.52 -18.27,-1.89c-13.4,-8.02 -27.96,-12.24 -43.09,-15.69c-45.44,-10.38 -92.65,-11.54 -137.09,-27.28c-19.22,-6.81 -22.14,-4.37 -22.38,16.16c-0.46,38.6 16.36,70.45 40.73,98.83c9.22,10.73 21.73,19.06 19.65,36.09c-0.33,2.7 2.83,6.89 5.52,8.73c38.07,26.11 77.58,48.71 125.91,47.69c25.1,-0.53 28.36,3.33 23.14,28.56c-0.72,3.51 -1.08,7.28 -2.64,10.42c-4.7,9.47 -3.63,18.34 -0.08,28.09c10.66,29.23 15.18,59.45 13.81,90.72c-0.74,16.92 -0.28,34.06 1.58,50.88c6.74,60.84 37.31,116.02 40.81,179.36c11.64,-6.789 17.17,-15.96 24,-24.63c35.43,48.46 99.88,67.31 118.9,129.75c18.2,-12.87 26.79,-28.87 35.66,-45.64c1.5,2.65 2.83,3.94 2.88,5.28c0.23,6.06 0.1,12.12 0.1,20.57c45.02,-37.88 58.77,-92.45 86.3,-138.45c-34.46,27.341 -49.09,70.57 -81.58,100.81c-4.9,-7.84 -2.29,-18.52 -12.01,-22.65c-3.19,17.37 -7.16,33.75 -21.45,46.72c-14.56,-30.41 -39.94,-49.51 -66.25,-67.77c-24.68,-17.12 -47.08,-36.47 -59.41,-64.38c-7.28,0.73 -8.39,8.22 -15.18,10.55c-7.97,-49.74 -37.07,-93.65 -38.31,-148.99c6.96,10.95 11.27,19.09 16.9,26.18c5.34,6.73 9.03,15.18 17.94,19.38c-28.17,-44.08 -26.77,-92.36 -22.68,-141.94c16.91,8.07 33.33,15.18 49.06,23.6c17.44,9.34 19.98,28.11 25.67,46.38c3.76,-6.68 6.7,-11.89 10.23,-18.17c4,8.59 3.68,15.74 2.05,22.83c-4.37,18.98 -9.73,37.76 -13.31,56.87c-7.84,41.83 1.11,52.05 42.37,50.14c25.57,-1.19 31.7,-11.78 20.63,-35.84c-3.75,3.3 -6.27,7.98 -12.49,7.95c-7.99,-0.03 -16.26,0.21 -20.18,-8c-5,-10.47 -3.03,-21.42 2.44,-31.1c5.07,-8.99 14.01,-12.68 23.88,-9.61c23.71,7.37 47.01,7.49 70.81,0.14c12,-3.7 21.4,2.26 26.19,13.42c4.56,10.61 7.8,22.86 -2.97,31.19c-9.73,7.54 -20.79,6.12 -29.57,-4.2c-9.07,30.95 -4.58,36.81 26.81,36.17c1.03,-0.02 2.06,-0.08 3.09,-0.11c28.27,-0.97 40.64,-14.9 35.93,-42.67c-2.99,-17.64 -8.51,-34.84 -12.55,-52.32c-2.67,-11.49 -5.55,-23.16 0.59,-36.09c5.08,6.36 5.22,14.08 13.14,18.55c-0.13,-49.89 42.22,-52.71 73.11,-69.32c2.82,49.05 4.31,96.68 -20.87,140.75c15.34,-10.31 22.51,-25.9 31.39,-40.54c0.27,10.38 0.36,20.37 -2.5,30.3c-11.91,41.3 -19.42,82.95 -10,126.03c6.9,31.551 14.07,63.08 19.63,94.88c5,28.69 3.49,56.83 -15.73,82.5c-4.19,-8.59 -0.95,-18.07 -9.53,-25.12c-7.49,33.66 -31.09,52.43 -60.29,69.49c3.69,-13.4 5.74,-24.6 1.81,-38.26c-10.74,17.15 -24.94,27.5 -38.06,38.99c-23.63,20.71 -42.16,45.06 -50.72,75.72c-7.28,26.02 -8.47,51.93 5.08,78.33c17.96,-25.27 44.44,-33.26 69.73,-43.01c34.27,-13.21 70.9,-21.49 99.02,-50.01c0.49,15.91 -8.13,26.69 -15.92,39.49c47.08,-13.01 76.57,-40.18 85.33,-88.07c7.29,8.38 4.29,17.14 6.07,27.91c13.52,-13.77 21.26,-28.57 27.04,-44.39c20.71,-56.74 7.47,-108.2 -25.82,-155.86c-17.37,-24.85 -36.79,-48.269 -54.14,-73.13Z" style="fill:#f04b24;fill-rule:nonzero;"/><path d="M3442.17,1376.82c-0.59,-69.19 -7.39,-129.43 -19.95,-188.87c-36.96,-174.79 -114.44,-329.821 -237.47,-459.184c-224.64,-236.191 -500.92,-337.715 -825.56,-304.6c-132.01,13.466 -256.17,54.016 -369.79,122.064c-280.55,168.013 -442.15,415.251 -480.98,740.21c-14.52,121.5 -4.1,242.47 30.37,360.31c80.29,274.47 248.63,476.63 502.7,607.49c1.99,1.03 3.83,1.96 5.61,2.84l-0.01,0l0.15,0.07c3.889,1.93 7.29,3.51 10.31,4.74l19,8.73l0.589,-1.29l21.781,-44.24l-1.1,-0.5l-12.51,-5.65c-130.64,-60.4 -241.14,-146.97 -330.65,-259.56c-118.65,-149.22 -185.15,-319.11 -198.61,-509.68c-8.06,-114.13 4.41,-225.86 38.37,-334.88c56.16,-180.253 158.34,-329.95 306,-447.305c149.17,-118.564 319.36,-184.715 510.11,-197.746c90.03,-6.15 178.97,-0.062 266.5,20.509c225.63,53.028 408.35,172.942 542.83,361.587c149.13,209.205 200.47,442.345 157.35,695.955c-21.03,123.71 -67.03,237.54 -135.91,342.15c-92,139.69 -213.35,246.4 -363.07,320.83c-4.61,2.29 -8.43,4.19 -11.69,5.92l-0.01,-0.01l-18.83,9.01l-1.07,0.49l20.94,44.24l0.56,1.3l12.49,-5.82c1.62,-0.61 3.33,-1.36 5.21,-2.27c1.44,-0.7 2.86,-1.44 4.3,-2.15l7.11,-3.3l-0.13,-0.19c62.61,-31.22 121.79,-67.82 176.73,-111.33c102.95,-81.53 186.67,-179.62 249.58,-294.79c82.19,-150.46 121.96,-311.75 118.75,-475.08Z" style="fill:#f04b24;fill-rule:nonzero;"/><path d="M2847.33,2193.04c26.61,-12.2 52.9,-25.19 77.66,-40.71c272.66,-170.9 420.41,-416.09 436.47,-738.43c5.45,-109.45 -11,-216.6 -48.03,-319.57c-81.18,-225.708 -228.23,-395.147 -442.74,-503.376c-186.55,-94.124 -383.51,-117.75 -587.47,-73.808c-200.25,43.141 -366.09,145.044 -496.79,302.729c-135.99,164.075 -201.76,354.065 -204.69,568.065c1.44,47.8 4.09,97.11 12.52,145.83c26.37,152.36 87.39,289.28 184.43,409.81c86.66,107.64 192.83,190.59 318,249.12l-0.011,0.01l0.361,0.16c0.2,0.1 0.4,0.2 0.6,0.29c1.42,0.66 2.88,1.35 4.34,1.88l7.53,3.32l7.65,-16.13l-12.4,-5.72c-99.55,-46.07 -187.35,-108.74 -262.64,-188.33c-154.93,-163.77 -235.33,-359.05 -241.84,-584.13c-3.13,-108.31 14.84,-213.78 52.23,-315.66c59.89,-163.169 159.49,-297.421 298.59,-401.075c139.27,-103.783 296.3,-160.919 470.32,-171.136c108.55,-6.373 214.43,6.539 317.63,39.956c166.3,53.848 304.48,149.122 414,285.442c111.99,139.397 174.08,298.973 189.07,476.703c6.29,74.58 1.87,148.91 -11.59,222.78c-30.86,169.3 -105.63,316.3 -222.85,441.81c-76.67,82.1 -166.46,146.34 -268.18,193.96c-0.74,0.34 -1.47,0.7 -2.18,1.06l-10.12,4.74l7.73,16.23l12.01,-5.64c0.13,-0.06 0.26,-0.12 0.39,-0.18Z" style="fill:#f04b24;fill-rule:nonzero;"/><path d="M2272.97,2293.15c-53.88,-12.21 -75.02,-89.95 -52.92,-139.42c2.12,23.14 6,44.53 17.8,63.39c11.51,18.41 27.5,32.82 45.73,47.08c-9.37,4.85 -16.49,3.58 -24.77,2.37c0.34,11.39 8.38,18.06 14.16,26.58Zm149.25,72.99c-2.22,-17.48 2.41,-31.94 7.06,-46.23c9.8,-30.12 7.52,-58.46 -10.15,-85.36c-19.72,-30 -46.16,-54.55 -66.79,-85.76c-5.06,9.92 -0.04,18.69 -2.69,28.33c-20.12,-14.7 -36.51,-31.28 -51.06,-49.8c-19.59,-24.95 -23.37,-55.05 -28.55,-84.95c-3.32,-19.16 -5.77,-38.92 -16.8,-58.83c-5.25,36.72 -20.43,66.321 -38.9,94.281c-32.18,48.709 -53.9,99.719 -46.37,160.329c7.4,59.52 65.72,120.42 123.19,141.78c1.09,-8.93 -4.35,-18.11 1.42,-28.13c38.67,54.67 91.79,79.23 158.76,80.65c-12.81,-27.07 -14.75,-54.39 -14.71,-85.73c-6.2,8.35 -9.72,13.09 -14.41,19.42Z" style="fill:#f04b24;fill-rule:nonzero;"/><path d="M2546.14,2001.72c-51.97,-6.46 -104.78,-5.21 -157.48,-0.2c11.97,41.05 28.84,56.91 63.7,59.66c47.65,3.76 68.54,-3.609 79.91,-28.19c-43.84,11.22 -68.45,8.7 -84.92,-8.68c60.47,5.97 88.22,-0.83 98.79,-22.59Z" style="fill:#f04b24;fill-rule:nonzero;"/><path d="M2597.23,1718.36c9.22,-2.83 16.65,-5.12 24.08,-7.4c-10.48,-6.6 -18.37,-5.69 -24.08,7.4Z" style="fill:#f04b24;fill-rule:nonzero;"/><path d="M2319.73,1710.41c8.5,2.68 15.69,4.95 27.13,8.55c-8.32,-12.93 -15.33,-16.68 -27.13,-8.55Z" style="fill:#f04b24;fill-rule:nonzero;"/><path d="M2443.96,851.826l-82.57,0l0,50.238l82.57,0l0,191.056l50.61,0l0,-191.056l85.65,0l0,-50.238l-85.65,0l0,-82.587l-50.61,0l0,82.587Z" style="fill:#f04b24;fill-rule:nonzero;"/><path d="M2494.76,1114.53l48.28,376.36l18.85,-4.52l-54.3,-371.84l-12.83,0Z" style="fill:#f04b24;fill-rule:nonzero;"/><path d="M2972.45,2045.32l-157.2,-365.91l-21.81,9.85l153.87,375.611l25.14,-19.551Z" style="fill:#f04b24;fill-rule:nonzero;"/><path d="M2898.28,1447.9l280.58,371.84l15.09,-26.4l-280.58,-353.73l-15.09,8.29Z" style="fill:#f04b24;fill-rule:nonzero;"/><path d="M3293.51,1490.89l-247.4,-184.78l-7.54,18.1l250.41,195.34l4.53,-28.66Z" style="fill:#f04b24;fill-rule:nonzero;"/><path d="M3148.69,1143.94l-13.58,17.35l150.85,62.6l-6.03,-27.15l-131.24,-52.8Z" style="fill:#f04b24;fill-rule:nonzero;"/><path d="M2903.56,1217.86l39.22,31.68l0,-25.65l-39.22,-26.4l0,20.37Z" style="fill:#f04b24;fill-rule:nonzero;"/><path d="M3052.15,959.909l3.77,-15.085l-109.37,-15.085l19.61,18.856l85.99,11.314Z" style="fill:#f04b24;fill-rule:nonzero;"/><path d="M2595.83,885.993l0,14.33l269.54,34.346l-6.66,-15.149l-262.88,-33.527Z" style="fill:#f04b24;fill-rule:nonzero;"/><path d="M2595.83,852.052l0,12.822l445.76,-58.83l-6.03,-14.331l-439.73,60.339Z" style="fill:#f04b24;fill-rule:nonzero;"/><path d="M2561.89,832.442l24.14,0l343.18,-141.043l-15.09,-10.559l-352.23,151.602Z" style="fill:#f04b24;fill-rule:nonzero;"/><path d="M2516.64,832.442l16.59,0l275.3,-209.679l-15.09,-8.297l-276.8,217.976Z" style="fill:#f04b24;fill-rule:nonzero;"/><path d="M2511.36,809.815l0,15.085l189.69,-241.285l-15.46,-4.598l-174.23,230.798Z" style="fill:#f04b24;fill-rule:nonzero;"/><path d="M2511.36,756.641l0,25.267l94.28,-218.73l-13.58,-4.525l-80.7,197.988Z" style="fill:#f04b24;fill-rule:nonzero;"/><path d="M2478.93,749.476l11.31,0l26.4,-196.103l-13.58,0l-24.13,196.103Z" style="fill:#f04b24;fill-rule:nonzero;"/><path d="M2662.58,1320.44l-151.22,-351.48l0,22.627l148.33,360.673l2.89,-31.82Z" style="fill:#f04b24;fill-rule:nonzero;"/><path d="M2808.53,1327.98l7.54,-21.87l-77.69,-91.27l0,23.38l70.15,89.76Z" style="fill:#f04b24;fill-rule:nonzero;"/><path d="M2698.82,1160.16l-187.46,-231.929l0,12.067l177.66,234.572l9.8,-14.71Z" style="fill:#f04b24;fill-rule:nonzero;"/><path d="M2856.8,1160.16l-322.06,-239.472l-18.1,0l332.62,254.182l7.54,-14.71Z" style="fill:#f04b24;fill-rule:nonzero;"/><path d="M2561.89,920.688l361.28,151.602l16.6,-11.31l-352.8,-140.292l-25.08,0Z" style="fill:#f04b24;fill-rule:nonzero;"/><path d="M2443.18,1114.68l-12.75,0l-53.98,371.84l18.74,4.53l47.99,-376.37Z" style="fill:#f04b24;fill-rule:nonzero;"/><path d="M2141.64,1698.17l-21.67,-9.84l-151.66,357.14l24.99,19.55l148.34,-366.85Z" style="fill:#f04b24;fill-rule:nonzero;"/><path d="M2042.04,1448.06l-15,-8.3l-278.93,353.74l15,26.4l278.93,-371.84Z" style="fill:#f04b24;fill-rule:nonzero;"/><path d="M1653.64,1519.71l248.93,-195.35l-7.49,-18.1l-245.94,184.79l4.5,28.66Z" style="fill:#f04b24;fill-rule:nonzero;"/><path d="M1662.64,1196.89l-6,27.16l149.96,-62.61l-13.5,-17.34l-130.46,52.79Z" style="fill:#f04b24;fill-rule:nonzero;"/><path d="M1997.8,1249.69l38.99,-31.68l0,-20.36l-38.99,26.4l0,25.64Z" style="fill:#f04b24;fill-rule:nonzero;"/><path d="M1889.08,960.062l85.47,-11.313l19.5,-18.856l-108.72,15.085l3.75,15.084Z" style="fill:#f04b24;fill-rule:nonzero;"/><path d="M2081.37,919.674l-6.61,15.149l267.95,-34.346l0,-14.33l-261.34,33.527Z" style="fill:#f04b24;fill-rule:nonzero;"/><path d="M1899.57,806.197l443.14,58.831l0,-12.822l-437.14,-60.34l-6,14.331Z" style="fill:#f04b24;fill-rule:nonzero;"/><path d="M2011.29,691.552l341.16,141.043l24,0l-350.16,-151.602l-15,10.559Z" style="fill:#f04b24;fill-rule:nonzero;"/><path d="M2131.26,622.917l273.68,209.678l16.5,0l-275.18,-217.975l-15,8.297Z" style="fill:#f04b24;fill-rule:nonzero;"/><path d="M2238.11,583.768l188.57,241.285l0,-15.085l-173.2,-230.797l-15.37,4.597Z" style="fill:#f04b24;fill-rule:nonzero;"/><path d="M2332.96,563.332l93.72,218.73l0,-25.267l-80.22,-197.989l-13.5,4.526Z" style="fill:#f04b24;fill-rule:nonzero;"/><path d="M2421.44,553.527l26.24,196.102l11.25,0l-24,-196.102l-13.49,0Z" style="fill:#f04b24;fill-rule:nonzero;"/><path d="M2426.68,991.74l0,-22.627l-150.33,351.477l2.88,31.82l147.45,-360.67Z" style="fill:#f04b24;fill-rule:nonzero;"/><path d="M2200.99,1238.38l0,-23.38l-77.23,91.26l7.5,21.87l69.73,-89.75Z" style="fill:#f04b24;fill-rule:nonzero;"/><path d="M2426.68,940.452l0,-12.068l-186.36,231.926l9.75,14.71l176.61,-234.568Z" style="fill:#f04b24;fill-rule:nonzero;"/><path d="M2403.44,920.841l-320.16,239.469l7.49,14.71l330.67,-254.179l-18,0Z" style="fill:#f04b24;fill-rule:nonzero;"/><path d="M2351.52,920.841l-350.72,140.289l16.49,11.31l359.16,-151.599l-24.93,0Z" style="fill:#f04b24;fill-rule:nonzero;"/></g></svg>