<?xml version="1.0" encoding="UTF-8" standalone="no"?><!DOCTYPE svg PUBLIC "-//W3C//DTD SVG 1.1//EN" "http://www.w3.org/Graphics/SVG/1.1/DTD/svg11.dtd"><svg width="100%" height="100%" viewBox="0 0 4945 3570" version="1.1" xmlns="http://www.w3.org/2000/svg" xmlns:xlink="http://www.w3.org/1999/xlink" xml:space="preserve" xmlns:serif="http://www.serif.com/" style="fill-rule:evenodd;clip-rule:evenodd;stroke-linejoin:round;stroke-miterlimit:1.41421;"><g><g id="Capa-1" serif:id="Capa 1"><rect x="-0.48" y="-660" width="4973.77" height="4973.77" style="fill:#040586;"/><path d="M3071.02,1269.22c0,327.702 -265.659,593.361 -593.371,593.361c-327.702,0 -593.371,-265.659 -593.371,-593.361c0,-327.712 265.669,-593.371 593.371,-593.371c327.712,0 593.371,265.659 593.371,593.371" style="fill:#ffc500;"/><path d="M2044.51,1464.5c-2.317,2.218 -4.983,4.526 -7.749,6.923c-10.674,9.252 -25.286,21.925 -30.628,40.666c-4.457,-8.903 -9.819,-17.11 -14.902,-24.899c-6.555,-10.027 -12.822,-19.626 -15.866,-28.907c0.796,0.03 1.611,0.04 2.437,0.04c13.777,0 31.902,-3.741 52.404,-10.823c6.028,-2.079 14.294,-3.85 22.551,-5.173c-3.442,6.943 -6.516,14.493 -8.247,22.173m404.507,84.246c-4.447,-3.233 -9.818,-5.949 -15.508,-8.834c-6.585,-3.342 -14.056,-7.132 -18.065,-10.872c-7.371,-6.884 -13.946,-18.871 -20.9,-31.564c-5.809,-10.594 -11.807,-21.546 -19.298,-31.534c-4.924,-6.565 -11.43,-12.036 -17.179,-16.871c-3.591,-3.024 -9.043,-7.59 -10.187,-9.599c-8.176,-15.309 -13.071,-36.01 -17.806,-56.035c-1.81,-7.659 -3.69,-15.577 -5.71,-22.968c-9.818,-35.981 -15.617,-62.59 -18.79,-86.275c-9.361,-69.971 -37.274,-108.19 -75.691,-154.545c-35.155,-42.417 -70.349,-77.591 -110.726,-110.707c-9.142,-7.49 -18.105,-15.707 -27.595,-24.391c-28.231,-25.854 -60.232,-55.149 -104.031,-69.722c-14.613,-4.865 -29.196,-7.332 -43.352,-7.332c-38.954,0 -68.946,18.025 -95.406,33.932c-9.182,5.53 -17.856,10.743 -26.381,14.911c-14.882,7.262 -32.588,13.26 -51.35,19.597c-31.543,10.663 -64.161,21.685 -87.498,40.685c-6.118,4.994 -11.907,10.723 -17.508,16.274c-10.007,9.918 -20.362,20.174 -29.226,22.492c-2.427,0.626 -6.635,0.686 -10.753,0.686l-4.894,-0.01c-5.362,0 -11.251,0.08 -17.945,0.706c-42.815,3.989 -71.016,28.371 -95.895,49.877c-14.483,12.534 -28.171,24.362 -43.092,30.738c-15.777,6.745 -30.898,8.386 -48.395,10.296c-12.345,1.343 -25.098,2.735 -39.164,6.038c-43.63,10.246 -77.252,35.344 -109.761,59.606c-32.896,24.55 -63.963,47.748 -103.156,54.025c-3.999,0.636 -7.988,0.965 -11.827,0.965c-21.845,0 -40.845,-10.853 -50.842,-29.007c-10.286,-18.682 -9.202,-41.243 2.884,-60.332c8.645,-13.638 26.083,-26.958 44.555,-41.064c34.598,-26.41 73.801,-56.352 74.269,-104.21c0.288,-30.917 -10.744,-53.946 -32.787,-68.479c-17.946,-11.808 -40.576,-16.394 -62.481,-20.82c-15.18,-3.074 -30.897,-6.257 -44.048,-11.718c-9.858,-4.089 -18.104,-10.346 -26.072,-16.384c-9.798,-7.431 -19.05,-14.454 -30.738,-17.339l-14.533,-3.601l-7.103,13.191c-15.08,28.012 -15.09,60.759 -0.04,89.836c16.692,32.28 49.738,55.856 84.176,60.083c8.366,1.035 16.195,1.035 23.099,1.035c1.442,0 3.024,0 4.615,0.02c-7.023,6.595 -18.303,14.662 -24.103,18.811c-6.396,4.585 -11.927,8.534 -16.045,12.205c-29.435,26.282 -46.256,45.291 -54.552,61.665c-21.716,42.874 -19.915,90.672 4.954,131.148c27.266,44.386 76.307,70.886 131.178,70.877c16.294,0 32.747,-2.338 49.131,-6.984c0.059,4.009 -0.12,8.227 -0.319,12.803c-0.338,8.027 -0.726,17.12 0.339,26.888c1.87,17.269 8.763,32.16 14.841,45.291c4.109,8.883 8.774,18.95 8.336,23.725c-2.616,7.878 -36.388,23.765 -69.851,23.765c-2.109,0 -4.128,-0.08 -6.009,-0.219l-6.296,-0.488l-5.362,3.323c-20.94,12.991 -26.232,32.877 -30.479,48.852c-1.96,7.361 -3.81,14.305 -6.904,19.587c-4.675,8.008 -13.548,12.982 -23.824,18.751c-0.289,0.179 -0.597,0.338 -0.896,0.507c-0.397,-6.376 -2.954,-12.563 -7.55,-17.965c-4.307,-5.063 -9.51,-8.525 -14.473,-11.638c-5.084,-3.184 -10.376,-4.805 -15.757,-4.805c-11.311,0 -19.03,6.744 -26.501,13.27l-0.487,0.418c-2.925,2.556 -7.6,5.501 -12.126,8.356c-7.013,4.406 -14.265,8.982 -19.517,14.722c-5.312,5.809 -8.227,14.563 -8.336,23.854c-1.781,-0.358 -3.591,-0.537 -5.402,-0.537c-0.358,0 -0.696,0 -1.044,0.02c-8.147,0.298 -23.437,4.098 -34.16,26.112c-6.675,13.698 -6.874,27.127 -7.043,37.92c-0.03,2.209 -0.06,4.317 -0.139,6.327c-0.428,0.388 -0.975,0.845 -1.383,1.194c-3.551,3.014 -12.991,11.031 -10.833,24.341c2.109,13.061 14.643,19.776 27.863,25.098c4.148,1.671 18.423,7.152 27.774,7.371l0.726,0c5.79,0 10.982,-1.612 15.18,-4.626l8.555,1.124c6.416,0.836 12.802,2.388 19.567,4.059c10.654,2.606 21.675,5.312 33.692,5.312c9.112,0 17.528,-1.562 25.724,-4.725c20.134,-7.829 29.415,-24.988 36.876,-38.756c3.959,-7.321 8.445,-15.607 11.927,-16.254c1.96,0 6.008,1.134 9.589,2.149c6.536,1.85 14.673,4.138 23.875,4.138c1.78,0 3.571,-0.09 5.311,-0.259c26.332,-2.616 46.794,-20.134 63.227,-34.209c8.724,-7.471 16.971,-14.524 23.795,-17.558c6.625,-2.944 13.667,-4.327 22.153,-4.327c10.047,0 20.82,1.94 32.22,3.999c13.001,2.348 26.44,4.775 40.815,4.775c5.302,0 10.484,-0.348 15.408,-1.035c19.885,-2.725 32.091,-11.499 42.854,-19.238c4.129,-2.975 8.028,-5.77 12.236,-8.147c4.426,-2.487 10.047,-4.347 15.478,-6.148c7.152,-2.357 13.907,-4.596 19.438,-8.734c12.514,-9.351 19.547,-24.928 25.744,-38.656c2.288,-5.063 4.446,-9.848 6.635,-13.827c0.716,-1.293 1.562,-2.726 2.467,-4.258c5.192,-8.843 12.295,-20.899 13.081,-33.732c5.033,1.005 10.425,1.512 16.175,1.512c13.359,0 27.425,-2.576 41.033,-5.063c11.052,-2.019 21.497,-3.929 31.106,-4.476c2.209,-0.12 4.516,-0.179 6.854,-0.179c18.194,0 37.542,3.78 56.263,7.44c19.09,3.731 37.125,7.262 54.692,7.262c15.777,0 29.057,-2.934 40.606,-8.963l6.088,-3.173c10.932,10.445 24.55,19.079 38.099,27.415c-0.169,-0.009 -0.329,-0.009 -0.498,-0.009c-3.451,-0.07 -6.983,-0.13 -10.445,-0.13c-16.513,0 -33.334,1.094 -41.769,14.165c-0.428,0.667 -0.866,1.393 -1.284,2.179c-4.725,-3.153 -10.076,-5.561 -16.214,-6.914c-7.5,-1.641 -16.215,-2.476 -25.923,-2.476c-5.253,0 -51.737,0.477 -64.44,17.428c-11.908,15.866 -1.711,33.025 7.281,48.156c1.174,1.989 2.417,4.068 3.681,6.247c2.367,4.068 4.397,8.435 6.366,12.653c6.078,13.011 13.638,29.226 32.3,30.39c1.223,0.079 2.487,0.109 3.79,0.109c4.506,0 9.052,-0.428 13.071,-0.816c0.826,-0.079 1.651,-0.159 2.457,-0.218c3.7,4.794 7.073,9.907 10.375,14.901c13.26,20.054 29.753,45.013 68.698,45.013c1.313,0 2.646,-0.02 4.019,-0.08c18.502,-0.796 49.101,-13.161 81.5,-26.242c16.881,-6.824 32.827,-13.26 45.689,-17.507c4.098,-1.353 12.126,-2.368 19.199,-3.263c11.907,-1.522 23.158,-2.945 31.613,-6.983c17.776,-8.476 39.283,-40.586 50.205,-64.162c0.517,5.63 1.87,11.281 3.203,16.831c0.886,3.701 1.89,7.909 2.03,9.998c1.273,18.522 21.228,31.464 48.524,31.464c11.32,0 23.098,-2.238 35.005,-6.635c6.008,-2.219 11.34,-4.218 16.145,-6.028c20.412,-7.67 29.733,-11.182 39.541,-11.798c3.204,-0.209 6.645,-0.309 10.545,-0.309c7.132,0 14.603,0.349 21.835,0.677c7.321,0.328 14.235,0.646 20.949,0.646c2.974,0 5.65,-0.059 8.187,-0.189c19.905,-1.004 35.751,-15.09 47.32,-25.366c2.328,-2.059 5.491,-4.864 7.819,-6.685c1.97,1.701 4.815,4.755 7.043,7.143c10.286,11.042 25.824,27.733 56.184,37.91c20.641,6.933 37.95,10.445 51.458,10.445c25.068,0 33.822,-11.898 36.816,-18.99c1.691,-4.029 3.959,-12.803 -2.745,-22.183c2.208,0.149 4.397,0.229 6.515,0.229c25.307,0 32.738,-12.295 34.916,-19.647c1.453,-4.914 3.263,-17.497 -11.34,-28.141" style="fill:#fff;fill-rule:nonzero;"/><path d="M1423.88,2386.28c292.926,0 280.839,285.385 280.839,285.385l0,45.271l-397.115,0c0,64.918 54.343,120.793 128.353,120.793c73.97,0 111.73,-70.976 111.73,-70.976l140.4,69.444c-64.908,98.192 -152.486,137.395 -250.618,137.395c-305.022,0 -311.05,-253.642 -311.05,-285.355c0,-31.702 4.546,-301.957 297.461,-301.957m-107.473,226.446l217.463,0c0,0 -9.062,-102.649 -107.214,-102.649c-98.153,0 -110.249,102.649 -110.249,102.649" style="fill:#fb0045;"/><path d="M2226.44,2032.56l0,418.613c0,0 -84.574,-64.888 -181.254,-64.888c-96.601,0 -259.681,67.941 -259.681,282.311c0,214.419 138.928,295.979 258.209,295.979c119.29,0 185.73,-78.526 185.73,-78.526l0,69.712l172.112,0l0,-923.201l-175.116,0Zm-156.067,781.001c-9.072,0 -122.335,1.532 -122.335,-137.385c0,-138.937 123.837,-143.444 123.837,-143.444c0,0 138.907,4.507 138.907,140.43c0,135.873 -131.367,140.399 -140.409,140.399" style="fill:#fb0045;"/><path d="M3359.24,2414.96l175.126,0l0,309.517c0,0 6.068,104.221 104.201,104.221c98.132,0 96.66,-104.221 96.66,-104.221l0,-308.025l176.609,0l0,318.619c0,0 22.69,249.136 -268.763,249.136c-291.393,0 -283.833,-218.945 -283.833,-258.188l0,-311.059Z" style="fill:#fb0045;"/><rect x="4011.21" y="2032.56" width="172.878" height="923.201" style="fill:#fb0045;"/><rect x="4310.01" y="2032.56" width="170.66" height="923.201" style="fill:#fb0045;"/><path d="M3139.95,2473.84c0,0 80.008,-62.212 80.008,-180.16c0,-117.978 -85.688,-224.367 -268.165,-224.367l-305.599,0l0.01,886.436l376.405,0c0,0 269.777,-3.044 269.777,-246.819c0,-141.543 -54.94,-195.748 -152.436,-235.09m-147.243,327.652l-163.806,0l0,-577.544l87.558,0c0,0 118.982,-8.953 118.982,94.83c0,103.812 -94.65,94.661 -94.65,94.661l-54.503,0l0,155.599l106.389,0c27.903,0 116.754,13.529 116.754,115.779c0,102.231 -116.724,116.675 -116.724,116.675" style="fill:#fb0045;"/><path d="M501.069,2050.41l0,905.345l182.696,0l0,-732.586l86.067,0c0,0 134.361,-6.038 134.361,116.287c0,122.285 -119.271,119.271 -119.271,119.271l-43.799,0l0,208.371l182.726,288.657l214.39,0l-255.155,-370.177c0,0 209.864,-18.105 209.864,-246.122c0,-227.998 -158.544,-289.046 -369.92,-289.046l-221.959,0Z" style="fill:#fb0045;"/><path d="M2194.98,1539.69c10.196,-6.038 14.732,-34.557 -0.229,-35.681c-18.095,-1.363 -45.44,27.087 -39.044,36.845c5.073,7.73 30.24,4.168 39.273,-1.164m-442.069,1.721c-6.177,9.57 14.255,9.411 20.204,29.037c5.948,19.617 11.111,27.346 18.184,30.241c7.072,2.894 46.484,-9.003 43.102,-20.91c-3.372,-11.907 -9.002,-13.996 -9.967,-25.575c-0.965,-11.589 -5.809,-20.462 -14.484,-18.662c-13.19,2.726 -51.18,-3.233 -57.039,5.869m480.446,-213.315c-7.968,-7.232 -20.511,-35.711 -34.269,-33.294c-13.747,2.417 -17.607,29.196 -25.336,41.262c-7.72,12.067 -13.032,31.614 -3.373,30.161c9.65,-1.442 17.369,-23.645 31.126,-23.844c9.689,-0.139 31.315,22.352 36.677,40.536c3.173,10.783 -2.606,24.919 7.719,30.887c16.125,-4.048 15.757,-30.409 11.589,-50.185c-2.338,-11.032 -16.175,-28.281 -24.133,-35.523m-265.43,-236.672c-31.076,-2.089 -4.138,30.52 0,38.617c11.33,22.173 11.002,53.319 21.238,67.563c18.632,-29.812 4.427,-104.439 -21.238,-106.18m-6.754,339.719c-0.328,-9.978 13.19,-20.92 21.228,-52.453c6.267,-24.541 4.188,-60.153 0,-59.507c-4.178,0.637 -9.331,16.404 -12.226,33.782c-2.894,17.369 -17.05,55.975 -29.275,64.699c-17.11,12.216 -40.875,7.073 -57.915,23.168c1.224,20.73 14.673,37.512 25.098,55.985c19.159,33.96 38.934,45.002 15.438,108.099c17.846,-10.454 34.479,-32.986 34.757,-52.125c0.428,-30.887 -42.894,-71.612 -46.336,-102.31c12.375,-9.45 29.823,-3.472 42.466,1.94c3.84,36.447 45.829,63.127 42.466,104.24c-0.954,11.778 -28.708,61.048 -46.315,69.454c-10.445,4.973 -35.722,5.103 -48.554,9.33c-37.174,12.236 -98.163,41.77 -121.967,42.785c-42.526,1.8 -48.584,-32.121 -72.398,-58.87c-2.676,-3.143 -17.697,0.637 -27.993,0c-10.295,-0.656 -13.827,-17.378 -23.157,-33.463c-9.331,-16.095 -17.05,-26.709 -12.226,-33.145c4.825,-6.437 45.679,-13.191 70.777,-7.68c32.429,7.122 34.438,67.325 69.493,75.283c28.779,6.546 75.502,-16.006 79.153,-38.596c2.765,-17.14 -11.052,-39.084 -21.238,-50.196c-22.651,-24.709 -72.229,-41.163 -88.802,-69.493c-8.077,-13.817 -2.139,-23.297 -15.438,-36.677c-17.777,8.714 2.785,30.559 -1.93,50.186c-38.169,19.924 -96.064,-10.794 -150.576,-7.72c-38.845,2.199 -85.34,23.437 -106.17,-5.789c-9.48,-13.3 -10.853,-43.899 -9.649,-65.634c0.935,-16.911 9.718,-35.194 0,-46.336c-20.85,26.739 -12.475,70.17 -23.168,104.241c-18.005,57.337 -73.95,91.457 -142.847,96.521c-68.31,5.033 -137.316,11.171 -162.155,75.282c11.261,-3.063 18.771,-12.653 27.018,-19.298c27.505,-22.123 61.555,-37.78 110.04,-40.536c73.81,-4.198 123.548,-7.272 160.225,-52.115c9.022,-11.042 12.325,-23.974 25.087,-36.687c28.649,6.954 9.132,33.245 1.94,46.336c-8.465,15.379 -14.812,37.194 -27.027,46.326c-6.148,4.595 -20.94,6.834 -32.817,13.518c-16.583,9.311 -26.312,22.074 -48.256,25.088c-40.218,5.541 -78.257,-18.671 -115.829,-1.93c-24.272,10.813 -47.977,46.903 -81.072,50.196c-15.3,1.512 -29.027,-7.988 -40.547,-5.79c-24.66,4.685 -24.878,45.401 -52.115,55.965c-23.536,9.152 -44.843,-2.567 -69.503,-5.79c2.636,-23.744 13.17,-46.395 23.168,-62.778c28.201,0.397 29.345,-20.652 46.654,-36.995c16.622,-15.698 41.481,-20.194 53.726,-41.133c11.957,-20.443 8.038,-47.609 30.887,-61.775c35.433,2.726 93.706,-15.12 96.521,-40.536c2.189,-19.686 -20.024,-44.406 -23.168,-73.353c-2.407,-22.273 4.049,-41.571 -4.496,-63.107c-126.771,52.125 -233.578,-60.481 -182.746,-160.822c8.943,-17.677 31.404,-39.223 50.185,-55.985c13.002,-11.599 54.294,-34.498 52.125,-52.115c-2.198,-17.816 -25.525,-10.495 -50.195,-13.519c-52.274,-6.416 -98.819,-67.116 -69.493,-121.618c15.766,3.909 29.922,22.799 54.055,32.817c53.209,22.093 128.124,8.107 127.408,83.012c-0.597,61.764 -88.076,91.308 -115.83,135.127c-36.01,56.87 7.551,129.219 79.153,117.759c84.445,-13.519 131.576,-94.472 214.27,-113.899c32.727,-7.69 60.312,-4.367 90.732,-17.369c44.933,-19.208 72.746,-73.512 133.197,-79.152c15.866,-1.472 27.475,0.477 36.677,-1.93c20.203,-5.272 36.796,-28.41 54.045,-42.466c33.533,-27.306 93.576,-37.612 135.127,-57.915c42.705,-20.86 83.639,-62.808 150.576,-40.536c53.458,17.786 87.847,59.874 125.478,90.732c41.68,34.179 75.721,69.026 108.1,108.1c37.801,45.609 62.729,79.759 71.423,144.776c3.741,27.973 10.843,57.805 19.309,88.802c7.182,26.301 12.305,59.038 25.097,83.002c5.103,9.58 21.159,18.562 28.948,28.957c15.876,21.159 25.853,50.116 42.476,65.644c13.837,12.912 42.147,19.567 39.571,28.251c-2.567,8.704 -29.505,6.486 -44.078,0.975c-35.711,-13.509 -53.726,-51.797 -67.563,-72.388c-13.827,-20.592 -36.995,-31.852 -38.607,-28.639c-1.611,3.223 17.369,24.461 25.735,40.904c8.196,16.125 12.145,37.353 23.167,52.115c9.311,12.474 20.542,18.473 32.817,25.108c13.191,7.122 33.145,15.399 30.569,21.506c-2.576,6.108 -17.378,13.509 -64.351,-2.258c-46.972,-15.757 -50.831,-48.573 -71.423,-46.962c-11.907,0.935 -31.524,31.852 -54.055,32.986c-17.577,0.885 -40.924,-2.149 -61.764,-0.816c-15.469,0.985 -27.992,6.755 -61.138,18.98c-33.135,12.236 -56.949,1.283 -57.586,-8.037c-0.647,-9.331 -6.754,-24.77 -5.153,-33.464c3.611,-19.467 18.662,-29.594 16.732,-35.99c-2.775,-10.147 -15.09,5.978 -21.238,-1.93c-4.685,-29.902 23.755,-43.083 38.616,-59.844c2.318,-22.134 25.575,-49.758 23.407,-52.404c-2.179,-2.656 -41.551,0.935 -62.023,8.008c-39.253,13.558 -62.411,11.857 -62.729,1.89m-1008.16,199.15c-6.108,12.543 -4.656,25.416 -5.302,37.959c-0.637,12.554 -13.35,14.325 -12.385,20.274c0.965,5.948 29.435,16.095 36.995,16.244c7.57,0.159 6.595,-5.461 9.171,-19.627c2.577,-14.155 13.678,-36.995 13.36,-43.112c-0.497,-9.311 -14.165,-27.406 -24.292,-27.028c-4.347,0.169 -11.42,2.746 -17.547,15.29m45.848,-44.884c6.446,-7.052 21.238,-13.837 30.091,-21.556c8.843,-7.719 12.862,-11.42 19.786,-7.073c6.913,4.337 15.767,10.127 12.225,18.98c-3.541,8.854 -25.416,39.572 -38.447,41.501c-13.031,1.93 -23.655,-5.152 -25.903,-13.031c-2.249,-7.888 -0.498,-15.817 2.248,-18.821" style="fill:#fb0045;"/><path d="M2979.61,1468.23c-3.91,6.814 -7.938,13.847 -11.32,19.199c-1.443,2.308 -9.192,14.752 -15.469,28.739c-4.068,-8.267 -9.042,-15.688 -13.658,-22.571c-5.769,-8.605 -11.221,-16.732 -13.568,-24.511l-0.149,-0.517l-0.199,-0.508c-2.06,-5.69 -4.775,-10.942 -7.869,-15.856c4.218,1.343 8.605,2.387 13.19,3.084l0.478,0.069l0.477,0.05c15.429,1.542 32.917,3.293 50.285,3.293c1.114,0 2.209,-0.01 3.303,-0.03c-1.721,2.954 -3.551,6.137 -5.501,9.559m1035.03,195.101c-0.467,-1.959 -0.587,-6.535 -0.666,-9.659c-0.129,-4.963 -0.289,-10.594 -1.333,-16.334c-3.621,-19.676 -24.292,-38.984 -41.72,-38.984c-0.269,0 -0.537,0 -0.796,0.01c0,-3.84 -0.756,-7.54 -2.268,-10.982c-3.113,-6.993 -11.937,-16.871 -26.192,-29.365c-22.969,-20.104 -30.917,-21.059 -34.737,-21.527c-1.134,-0.139 -2.278,-0.209 -3.441,-0.209c-12.763,0 -24.71,7.909 -31.067,14.693c-4.546,4.854 -7.48,10.186 -8.704,15.727c-3.909,-2.785 -7.659,-5.65 -11.25,-9.51c-2.219,-3.8 -5.302,-16.811 -7.381,-25.475c-5.193,-21.756 -9.659,-40.557 -21.606,-50.057c-10.376,-8.236 -23.725,-9.002 -36.647,-9.728c-17.209,-0.985 -28.112,-2.228 -34.269,-11.181c-2.04,-2.994 -1.98,-4.835 3.282,-16.066c0.975,-2.089 1.98,-4.237 2.935,-6.505c4.954,-11.708 12.474,-37.572 7.172,-79.173c-0.587,-4.725 -1.731,-8.893 -2.935,-12.653c11.46,3.064 23.765,4.616 36.627,4.616c22.163,0 45.361,-4.745 65.356,-13.37l0.388,-0.169l0.387,-0.189c46.356,-22.531 75.174,-68.031 73.403,-115.938l-0.02,-0.558l-0.059,-0.567c-4.974,-52.035 -35.861,-102.24 -91.836,-149.242c-0.816,-0.717 -1.671,-1.433 -2.527,-2.169c-1.054,-0.895 -2.178,-1.86 -3.322,-2.865c15.886,-2.039 38.855,-7.819 57.755,-20.89c35.483,-24.53 51.747,-67.653 43.541,-115.371l-0.229,-1.413l-0.468,-1.393l-0.189,-0.646c-5.461,-18.562 -17.875,-21.338 -24.799,-21.338c-2.248,0 -4.546,0.309 -6.814,0.916c-8.008,2.158 -14.026,7.6 -19.338,12.404c-2.149,1.94 -4.815,4.367 -6.247,5.183l-0.199,0.109c-8.177,4.815 -19.238,7.113 -30.947,9.55c-12.245,2.537 -24.888,5.163 -37.034,11.002c-37.204,16.105 -72.588,35.801 -80.068,70.428c-4.258,19.637 -1.184,40.457 8.644,58.621l0.319,0.577l0.348,0.567c13.966,22.044 33.185,40.198 51.777,57.746c26.749,25.237 52.025,49.081 57.725,80.794c0.886,5.361 3.333,21.198 -21.278,39.501c-8.843,5.173 -19.298,7.789 -31.105,7.799c-15.23,0 -31.882,-4.436 -46.883,-12.474l-0.488,-0.249c-21.715,-10.862 -42.257,-24.59 -63.992,-39.123c-32.648,-21.825 -66.41,-44.396 -105.136,-56.96c-17.408,-7.689 -35.652,-11.39 -53.289,-14.961c-23.217,-4.705 -45.152,-9.162 -61.744,-22.183l-0.667,-0.517l-0.696,-0.458c-6.525,-4.258 -12.902,-8.863 -19.646,-13.747c-19.368,-14.017 -39.393,-28.51 -63.824,-34.926c-9.549,-3.193 -18.98,-4.785 -28.111,-6.327c-10.157,-1.711 -19.816,-3.342 -27.505,-7.013c-16.444,-14.513 -38.199,-32.3 -63.396,-44.893c-31.792,-15.906 -66.489,-24.262 -102.221,-32.091c-5.342,-1.323 -9.729,-6.406 -16.413,-14.543c-5.462,-6.645 -11.639,-14.156 -20.174,-20.094c-33.662,-26.54 -65.067,-38.905 -98.729,-38.905c-3.651,0 -7.371,0.149 -11.062,0.448c-22.143,1.541 -37.532,14.901 -51.12,26.699l-0.15,0.129c-31.673,27.744 -66.061,52.633 -99.296,76.706c-50.653,36.666 -103.037,74.576 -148.417,124.115c-51.996,53.776 -68.688,119.669 -84.833,183.393l-0.895,3.581c-7.978,31.444 -32.25,127.159 -47.52,154.923c-12.036,21.885 -30.041,52.513 -47.459,65.912c-4.994,3.85 -9.58,7.063 -13.599,9.898c-12.882,9.042 -24.023,16.861 -25.674,31.743c-0.736,6.605 1.323,13.011 5.799,18.005c6.148,6.854 15.827,10.186 29.624,10.186c5.461,0 11.251,-0.517 17.06,-1.522c-1.82,4.307 -2.726,8.913 -2.357,14.026c0.397,5.431 4.008,23.148 33.752,23.148c18.731,0 48.892,-7.471 72.278,-28.559c4.895,-4.417 9.401,-8.545 13.529,-12.345c8.585,-7.889 18.114,-16.633 23.556,-20.462c2.914,2.079 6.098,5.003 9.39,8.047c8.525,7.849 19.129,17.617 34.359,20.751l3.253,0.666l3.283,-0.457c15.707,-2.159 29.852,-3.959 43.868,-3.959c3.064,0 6.048,0.089 8.923,0.258c14.902,4.606 29.445,10.087 44.814,15.867c11.42,4.297 23.217,8.733 35.184,12.782l3.323,1.124l3.521,-0.109c26.242,-0.896 41.849,-25.476 47.738,-34.717l0.856,-1.353l0.617,-1.482c4.585,-10.803 3.959,-21.049 2.556,-29.495c1.89,-0.199 3.701,-0.557 5.501,-1.064l2.905,-0.836l2.507,-1.671c0.636,-0.428 1.263,-0.865 1.85,-1.333c1.601,5.829 3.631,12.176 5.73,18.682l1.661,5.242c0.746,2.318 1.601,5.471 2.507,8.814c5.351,19.636 11.39,41.889 29.335,47.27c3.78,1.144 7.918,1.681 12.613,1.681c4.586,0 8.983,-0.517 12.853,-0.965c2.109,-0.258 4.267,-0.507 5.749,-0.586c2.945,1.382 4.059,2.715 6.466,5.63c3.124,3.81 7.421,9.022 15.24,13.28c8.614,4.705 24.769,9.052 46.654,14.682c7.232,1.851 14.066,3.611 18.015,4.835c2.686,0.836 6.008,1.96 9.719,3.193c20.86,6.993 39.272,12.783 53.249,12.783c26.619,0 58.412,-15.857 68.697,-60.183c15.17,-1.452 28.112,-9.45 35.772,-22.213c1.721,-2.865 3.77,-5.799 6.118,-9.211c3.909,-5.621 8.306,-11.977 13.21,-20.671c5.889,-10.465 7.6,-19.676 5.193,-28.162c-3.104,-11.002 -11.908,-15.896 -14.802,-17.497c-3.442,-1.93 -8.177,-4.546 -40.925,-4.546c-6.366,0 -22.322,0.149 -32.797,1.561c-4.914,0.657 -9.251,1.91 -13.11,3.621c-3.999,-10.017 -13.639,-16.523 -25.019,-16.523c-2.198,0 -4.406,0.249 -6.595,0.736c-2.079,0.359 -4.466,0.587 -7.321,0.697c10.057,-4.735 21.079,-11.44 30.539,-20.243l10.882,1.9c8.297,1.432 16.881,2.138 26.232,2.138c22.203,0 44.665,-4.068 66.41,-8.007c21.526,-3.91 41.869,-7.6 61.645,-7.6c4.058,0 8.017,0.169 11.768,0.487c6.107,0.517 12.126,1.184 17.955,1.82c12.613,1.373 25.645,2.796 39.303,2.796c4.317,0 8.435,-0.14 12.553,-0.408c13.619,-0.637 26.113,-3.8 36.936,-9.122c0.447,5.849 1.552,12.434 3.083,19.855l0.667,3.154c5.262,25.525 11.828,57.287 35.344,76.417c24.281,19.765 58.511,43.311 83.698,43.311c0.945,0 1.86,-0.03 2.775,-0.089c5.889,-0.388 12.236,-1.214 18.98,-2.079c10.903,-1.423 23.258,-3.024 35.921,-3.024c7.461,0 14.225,0.547 20.701,1.651c27.793,4.755 44.973,17.965 61.565,30.738c17.14,13.17 34.836,26.798 60.402,26.798c20.303,0 29.265,-4.963 36.159,-10.335c2.139,2.437 4.914,6.138 6.973,8.863c11.002,14.593 27.595,36.647 56.263,39.054c8.595,0.726 16.404,1.094 23.218,1.094c12.345,0 25.257,-0.955 34.18,-6.376c2.546,3.402 6.058,6.118 11.012,7.709c2.606,0.836 5.381,1.244 8.475,1.244c9.768,0 22.481,-4.367 29.166,-6.973c17.518,-6.834 24.829,-12.922 26.948,-22.442c2.308,-10.375 -1.651,-22.999 -10.883,-34.777" style="fill:#fff;fill-rule:nonzero;"/><path d="M3921.98,1620.56c-17.14,-2.407 -39.094,-40.049 -39.581,-47.529c-0.537,-8.436 14.245,-18.344 22.213,-17.369c7.968,0.955 41.73,30.877 45.599,39.562c3.87,8.684 -11.091,27.753 -28.231,25.336m-744.902,-71.553c-2.248,15.658 -7.271,31.315 -12.842,45.839c-5.073,10.037 -19.02,6.664 -28.519,5.57c-10.087,-3.919 -25.705,-5.013 -27.406,-19c-1.661,-13.419 4.476,-25.724 11.181,-35.771c15.091,-2.238 32.439,1.134 47.52,-1.641c4.456,-1.144 8.952,0.537 10.066,5.003m829.595,144.916c-0.955,4.347 -32.329,16.414 -39.81,13.986c-5.988,-1.929 -4.098,-24.371 -10.862,-41.501c-6.765,-17.129 -11.351,-27.753 -3.611,-36.438c7.709,-8.684 10.852,-11.817 18.084,-12.305c7.252,-0.477 21,11.35 23.178,23.168c2.159,11.828 -0.736,26.301 5.302,33.782c6.028,7.48 8.684,14.951 7.719,19.308m-974.073,-630.425l-2.268,4.436l-2.457,3.969c-0.03,-0.039 -16.612,15.409 -16.612,15.409l-17.766,16.603c-13.36,12.961 -22.711,23.904 -29.455,34.468c-5.67,7.739 -9.918,16.771 -14.046,25.505c-1.263,2.597 -4.456,2.656 -6.167,2.109c0,0 -0.518,-0.179 -0.985,-0.328c-0.149,-0.468 -0.309,-0.985 -0.309,-0.985c-1.114,-3.342 -1.691,-6.864 -1.691,-10.733c0,-2.915 0.329,-6.058 0.955,-9.46l3.313,-13.141l1.631,-5.919c10.107,-26.858 32.648,-54.91 61.914,-76.825c3.74,-2.377 10.703,-4.068 16.045,-2.407c3.223,0.995 5.531,3.114 6.834,6.267c1.303,2.169 1.93,4.307 1.93,6.476c0,1.482 -0.279,3.004 -0.866,4.536l1.254,0.457c-0.647,-0.218 -1.254,-0.437 -1.254,-0.437m-215.294,298.147c-1.214,11.102 -8.923,13.997 -16.404,7.242c-7.48,-6.754 -6.277,-17.617 -19.059,-17.856c-12.793,-0.238 -12.067,8.207 -24.62,16.653c-12.554,8.445 -24.561,17.985 -28.182,27.873c-3.621,9.897 -2.705,30.28 -13.807,31.722c-10.783,1.413 -14.235,-37.393 5.312,-60.083c19.537,-22.68 34.269,-30.4 43.441,-47.768c9.162,-17.378 16.394,-17.866 23.645,-12.554c7.222,5.312 30.877,43.67 29.674,54.771m-12.067,181.215c-4.337,6.038 -21.705,3.631 -29.444,0c-12.365,-5.8 -12.783,-28.948 -8.913,-34.021c3.859,-5.063 20.75,-0.726 29.186,7.481c8.445,8.206 13.518,20.512 9.171,26.54m1096.96,92.263c-14.493,-9.967 -23.943,-30.957 -35.403,-41.819c-8.376,-7.938 -18.652,-12.236 -28.947,-23.496c-10.296,-11.251 -13.837,-63.058 -26.381,-73.025c-14.474,-11.51 -55.358,3.213 -74.806,-25.098c-10.395,-15.12 -0.975,-28.48 4.337,-41.024c5.302,-12.553 10.137,-35.234 5.81,-69.215c-1.482,-11.499 -8.456,-21.039 -6.337,-32.637c5.262,-9.998 17.916,-2.617 25.784,-1.582c29.495,8.435 64.251,4.228 91.08,-7.351c36.836,-17.896 64.112,-55.189 62.54,-97.854c-5.282,-55.269 -42.526,-100.63 -85.151,-136.401c-7.908,-6.854 -17.667,-14.324 -20.561,-24.232c-3.442,-11.748 4.297,-14.394 12.742,-13.917c8.436,0.488 38.607,-2.646 61.287,-18.333c31.842,-22.014 41.83,-59.377 35.493,-96.213c-1.074,-3.163 -2.198,-10.206 -8.475,-8.515c-6.277,1.691 -13.638,11.46 -20.98,15.688c-20.541,12.096 -48.166,10.942 -69.752,21.476c-26.848,11.589 -63.197,28.977 -69.245,56.95c-3.531,16.354 -0.079,32.707 6.765,45.361c32.638,51.558 101.146,83.45 112.198,145.582c4.198,25.267 -10.117,44.664 -29.604,58.879c-29.474,17.886 -68.31,12.037 -97.784,-3.75c-56.87,-28.43 -106.359,-75.82 -167.417,-95.297c-38.438,-17.369 -85.838,-13.171 -120.057,-40.009c-25.784,-16.861 -49.479,-38.945 -78.417,-46.326c-20.024,-6.854 -42.645,-5.789 -61.077,-15.787c-18.97,-16.871 -38.935,-32.638 -61.068,-43.699c-30.539,-15.29 -64.232,-23.168 -97.924,-30.539c-20.004,-4.755 -27.376,-26.849 -43.69,-37.91c-27.922,-22.104 -58.959,-37.89 -96.879,-34.737c-15.786,1.044 -27.893,11.579 -39.999,22.093c-80.555,70.548 -172.679,119.003 -246.38,199.528c-49.489,51.081 -65.027,115.173 -81.083,178.489c-10.693,42.207 -33.384,130.522 -49.31,159.479c-15.926,28.957 -33.782,57.437 -52.602,71.911c-18.831,14.483 -30.897,19.785 -31.842,28.469c-0.975,8.685 26.052,9.172 48.245,0.488c22.203,-8.684 27.515,-27.983 41.511,-44.406c13.986,-16.403 37.632,-50.673 44.396,-47.29c6.764,3.382 -4.247,18.9 -15.448,32.339c-19.299,23.158 -12.296,28.51 -24.123,44.396c-18.334,24.61 -45.361,38.447 -44.396,51.638c0.666,9.191 44.396,8.206 73.831,-18.334c29.444,-26.55 44.117,-42.476 53.428,-38.606c15.966,6.615 26.321,26.321 44.237,30.021c18.95,-2.626 38.944,-5.242 58.969,-3.7c27.873,8.445 54.751,20.034 82.644,29.475c14.205,-0.488 24.749,-14.196 32.1,-25.775c5.8,-13.687 -2.616,-27.365 -1.551,-40.536c6.834,-4.208 14.722,1.035 22.083,-1.064c3.153,-2.109 5.809,-5.79 5.809,-9.44c-5.262,-24.243 -26.868,-42.158 -33.692,-64.809c-10.544,-28.987 -44.754,-46.345 -51.061,-77.401c1.562,-2.109 4.188,-5.283 6.834,-3.144c22.651,16.304 42.655,37.88 70.558,42.088c21.059,2.099 42.616,4.208 63.684,2.656c3.164,-1.074 5.77,-4.765 4.745,-8.415c-8.942,-18.96 -17.716,-37.851 -22.67,-58.452c-9.39,-38.975 -11.639,-95.278 0.905,-96.243c12.544,-0.964 5.461,40.218 15.757,73.682c10.306,33.453 14.981,45.47 26.003,58.332c12.295,14.374 38.348,26.6 44.784,37.542c6.426,10.933 2.895,27.346 -7.719,41.173c-10.624,13.837 -23.795,33.434 -32.827,46.982c-2.567,3.86 -7.391,11.898 -7.391,17.05c0,5.153 1.283,36.349 -2.249,35.712c-3.541,-0.647 -17.378,-38.606 -11.588,-55.338c5.799,-16.732 48.573,-67.245 44.067,-72.717c-4.486,-5.471 -25.406,-12.225 -30.877,-11.897c-5.471,0.318 -21.865,33.135 -33.454,51.469c-11.588,18.343 -21.556,40.974 -20.919,48.802c0.636,7.829 5.471,21.984 9.659,35.175c4.178,13.19 9.321,40.536 18.98,43.431c9.659,2.895 24.749,-2.547 31.205,0c15.439,6.108 14.802,14.802 25.406,20.591c10.634,5.79 47.619,13.837 61.138,18.025c13.509,4.178 42.147,15.11 57.268,15.11c15.12,0 41.978,-8.027 50.275,-46.962c2.566,-12.086 6.028,-12.554 15.199,-13.031c9.172,-0.488 17.379,-4.586 22.442,-13.031c5.063,-8.446 11.579,-16.165 19.06,-29.435c7.48,-13.27 2.168,-16.901 -2.169,-19.308c-4.347,-2.418 -45.609,-2.895 -61.774,-0.727c-24.73,3.323 -26.152,32.34 -36.687,49.221c-5.789,10.514 -13.717,12.136 -25.804,11.101c-25.286,-6.854 -54.781,-7.381 -66.36,-34.746c-1.591,-6.854 -2.775,-14.574 1.94,-19.886c20.502,-23.138 34.976,-44.376 47.519,-47.599c12.554,-3.213 46.983,-17.368 56.95,-44.077c9.978,-26.699 12.554,-26.381 18.343,-26.053c5.79,0.319 4.507,26.7 -5.789,44.078c51.797,9.002 109.652,-17.896 164.403,-13.191c23.605,2.02 43.908,5.75 67.066,4.158c23.178,-1.034 46.207,-11.34 55.826,-34.736c12.872,-31.355 -5.949,-98.929 0.816,-103.266c6.754,-4.347 21.228,55.498 26.052,96.999c3.144,26.997 16.394,57.506 33.782,78.177c20.442,24.292 57.119,48.753 104.081,42.954c46.982,-5.79 82.694,-1.92 119.699,26.062c36.995,27.993 33.125,36.03 30.23,37.324c-2.894,1.283 -39.999,-34.737 -75.283,-46.008c-46.315,-14.802 -92.989,8.684 -138.997,-8.356c-46.007,-17.06 -49.847,-33.632 -66.907,-57.606c-15.229,-21.397 -17.06,-36.348 -24.769,-36.995c-7.739,-0.646 -9.659,6.755 -4.516,31.534c5.153,24.769 10.305,53.09 29.285,68.529c18.98,15.438 53.409,40.217 73.035,38.924c19.617,-1.273 49.071,-8.515 80.098,-3.213c62.102,10.624 78.824,57.268 118.734,57.268c29.275,0 21.546,-11.897 38.278,-11.579c16.741,0.319 28.32,46.336 62.749,49.231c34.408,2.894 46.007,-0.975 47.29,-4.178c1.284,-3.223 -4.834,-43.77 -16.413,-58.89c0,0 -8.356,3.542 -22.83,-6.436" style="fill:#fb0045;fill-rule:nonzero;"/></g></g></svg>